<svg xmlnsRdf="http://www.w3.org/1999/02/22-rdf-syntax-ns#" 
xmlns="http://www.w3.org/2000/svg" height="73.003" width="189.53" version="1.1" 
xmlnsCc="http://creativecommons.org/ns#" 
xmlnsDc="http://purl.org/dc/elements/1.1/" 
viewBox="0 0 189.534 73.003002">
	<g transform="translate(0 -979.36)">
		<path style="color-rendering:auto;text-decoration-color:#000000;color:#000000;isolation:auto;mix-blend-mode:normal;shape-rendering:auto;solid-color:#000000;block-progression:tb;text-decoration-line:none;text-decoration-style:solid;image-rendering:auto;white-space:normal;text-indent:0;text-transform:none" d="m144.23 980.95-0.20072 0.48829c0.98162 0.40331 1.9045 0.85832 2.8275 1.3123-1.076 0.0937-2.1528 0.17883-3.223 0.33582-1.3805 0.20246-2.7432 0.50673-4.1001 0.83027l0.0227-0.0691c-1.1931-0.38813-2.4314-0.72452-3.7186-0.99818l-0.10864 0.51609c0.97239 0.20676 1.8922 0.47939 2.8101 0.75404-1.6651 0.43911-3.3034 0.97982-4.8992 1.641-0.38126 0.15818-0.72299 0.39733-1.0981 0.56967-1.3929-0.13976-2.8275-0.18798-4.2936-0.13391l0.0205 0.5274c1.1332-0.0418 2.2282 0.0258 3.318 0.1031-0.99546 0.49718-2.0196 0.9407-2.9596 1.5359-1.1814 0.74798-2.2923 1.5965-3.3675 2.4908l-0.0128-0.0577c-0.92658 0.14031-1.8626 0.3265-2.8029 0.56242-0.33455 0.0841-0.66855 0.17455-1.0033 0.26989l0.14417 0.50682c0.32949-0.0939 0.6588-0.18199 0.98782-0.26474 0.66334-0.16641 1.3192-0.279 1.9758-0.39657-0.39011 0.34457-0.80146 0.66542-1.1743 1.0291-1.2083 1.1791-2.3049 2.4576-3.3323 3.7908-1.2552 0.50586-2.5071 1.0822-3.7444 1.7306l0.24502 0.46662c0.95954-0.50274 1.9304-0.92211 2.8999-1.3391-0.63643 0.87136-1.2831 1.7368-1.8542 2.6515-0.45966 0.73638-0.89914 1.4843-1.3198 2.2416l-0.21728 0.3914h0.0257c-0.1832 0.336-0.32994 0.6889-0.50693 1.0281l-0.0431-0.072c-1.0802 0.652-2.1507 1.3452-3.2097 2.0705l0.29757 0.4357c0.85091-0.5827 1.7123-1.1272 2.5753-1.6626-0.98692 1.9579-1.8964 3.9473-2.7205 5.9747-1.0853 0.8247-2.1613 1.6747-3.2263 2.5402l0.33265 0.41c0.82513-0.6705 1.6611-1.3197 2.4972-1.9664-0.31715 0.8014-0.66478 1.5921-0.96628 2.398-0.0771 0.2047-0.15446 0.4094-0.2318 0.614l0.49338 0.1864c0.0762-0.205 0.15499-0.4097 0.23173-0.615 0.31157-0.8323 0.66953-1.6467 0.99713-2.4733 0.17206 1.0696 0.34821 2.1375 0.54388 3.1934l0.51826-0.097c-0.24745-1.3342-0.47986-2.6756-0.68611-4.0298 0.82105-2.0171 1.7257-3.994 2.7061-5.9355 0.16755 1.1319 0.3449 2.2584 0.56756 3.3612l0.51719-0.1039c-0.26968-1.3355-0.50026-2.6887-0.68617-4.0659 0.22855-0.4368 0.4137-0.8956 0.65321-1.3268 0.41635-0.7498 0.85061-1.4895 1.305-2.2178 0.59349-0.95052 1.2608-1.8502 1.9245-2.7514-0.10652 1.0856-0.2008 2.1693-0.21742 3.2314l0.52755 0.01c0.0212-1.3377 0.10433-2.6932 0.27285-4.0648v-0.0106c0.98859-1.2727 2.0458-2.4899 3.1995-3.6157 0.40265-0.39271 0.8447-0.74136 1.2681-1.1115-0.17494 0.72229-0.3514 1.4458-0.46563 2.1602-0.0658 0.40454-0.12195 0.80714-0.16996 1.2083l0.52331 0.0628c0.0462-0.3943 0.10228-0.79018 0.16694-1.1877v-0.00081c0.1491-0.9338 0.35412-1.8776 0.60967-2.8256 1.032-0.85233 2.0984-1.6613 3.2294-2.3775 0.9216-0.58361 1.926-1.0181 2.902-1.506-0.56718 0.88768-1.1312 1.777-1.5834 2.6855l0.47176 0.23488c0.56824-1.1413 1.2378-2.2703 1.9912-3.3767 0.39298-0.18174 0.75185-0.43155 1.1516-0.59747 1.6574-0.68659 3.3658-1.2293 5.1023-1.675-0.77766 0.89935-1.5335 1.8062-2.1809 2.7432l0.43396 0.29974c0.75451-1.0921 1.6122-2.1609 2.5482-3.2047 1.3119-0.30993 2.6285-0.60645 3.9649-0.80247 1.1045-0.16199 2.2175-0.25281 3.3294-0.34715-0.91479 0.63803-1.8251 1.2809-2.667 1.9593l0.33173 0.41c1.0574-0.85208 2.1805-1.6742 3.3542-2.463l0.0212-0.0143c0.0461-0.004 0.0947-0.0117 0.14207-0.0144 2.1154 0.076 4.1842 0.53535 6.22 1.13-1.077 0.37467-2.1429 0.76368-3.0882 1.2557l0.24405 0.4687c1.1014-0.57315 2.3267-1.0571 3.6188-1.472 0.87547 0.27972 1.7666 0.50966 2.6175 0.85294 0.41376 0.16689 0.82504 0.34073 1.2332 0.52021 1.0214 0.44927 2.0058 0.97778 2.9944 1.4968-1.0878 0.0585-2.1742 0.12166-3.2263 0.25649l0.0658 0.52331c1.3242-0.16977 2.6854-0.27386 4.0689-0.32347h0.0128c1.4959 0.82153 2.9616 1.6976 4.3884 2.634 0.38383 0.2572 0.74234 0.55021 1.1218 0.81379-0.62093-0.005-1.2406-0.0204-1.874 0.0351-0.52339 0.0224-1.0453 0.0496-1.5634 0.0844l0.0363 0.52638c0.51796-0.0348 1.039-0.0631 1.5627-0.0855h0.0128 0.0128c0.85777-0.075 1.702-0.0876 2.5341-0.0473 1.106 0.78561 2.2245 1.5545 3.2942 2.3899 0.74854 0.58467 1.4519 1.2272 2.1838 1.8336-0.83593-0.29315-1.6621-0.62275-2.5289-0.7973l-0.10335 0.51709c1.2612 0.25394 2.4865 0.6484 3.6809 1.1599 1.3225 1.1251 2.6268 2.2676 3.8989 3.4519-0.54834-0.3032-1.0729-0.68573-1.6388-0.92915l-0.20821 0.48416c1.1792 0.50699 2.3177 1.1644 3.4212 1.9397 0.52627 0.5063 1.0698 0.994 1.5884 1.5081-0.27067 0.01-0.54125 0.01-0.81177 0.021-0.64291 0.029-1.2813 0.1239-1.9222 0.1864 0.1757-0.036 0.34429-0.1492 0.52142-0.172l-0.0673-0.5233c-0.98427 0.1269-1.9464 0.4492-2.8781 0.9508l-0.10872 0.058c-2.0908 0.3507-4.149 0.8814-6.1519 1.5854 0.5543-0.6857 1.1088-1.3763 1.6916-1.8635l-0.33886-0.4038c-0.8264 0.6906-1.6161 1.5637-2.3684 2.6062l0.0189 0.014c-1.0845 0.4167-2.157 0.8689-3.1974 1.3886-0.16513 0.081-0.3288 0.1629-0.49249 0.2462-0.98502 0.5009-1.9402 1.0602-2.8751 1.6502 0.49453-0.9741 1.0005-1.9485 1.609-2.9008l-0.44493-0.2833c-0.78406 1.227-1.4758 2.4772-2.0736 3.7383l-0.0416 0.091c-1.7677 1.1978-3.4432 2.5313-4.9559 4.035 0.19846-1.1407 0.42036-2.2873 0.75731-3.4447l-0.50601-0.1473c-0.41845 1.4381-0.73281 2.8713-0.94138 4.2842l0.0544 0.01c-0.63386 0.6675-1.2681 1.3359-1.8429 2.056-0.26272 0.3295-0.51871 0.6648-0.7685 1.0054-0.64905 0.8857-1.2404 1.8132-1.7862 2.7669-0.0212-1.0867-0.0317-2.1816 0.0841-3.3077l-0.5243-0.054c-0.15059 1.4648-0.18816 2.9112-0.11143 4.308l0.0128 0.1204c-0.98161 1.9054-1.7194 3.9158-2.1579 6.0066-0.46895-1.0753-0.90503-2.1835-1.2074-3.3911l-0.51192 0.1277c0.37105 1.4833 0.86739 2.8872 1.4885 4.1781l0.034-0.016c-0.0219 0.132-0.0658 0.2589-0.085 0.3915-0.17335 1.1947-0.22899 2.4082-0.16685 3.6145 0.0582 1.125 0.25357 2.2356 0.51721 3.3285-0.77494-0.7885-1.5136-1.6543-2.1654-2.6455l-0.4409 0.2896c0.83586 1.2714 1.7903 2.393 2.8196 3.3396l0.0294 0.028c0.4425 1.4529 1.0699 2.8464 1.8911 4.1287 0.35586 0.5555 0.77756 1.0663 1.1742 1.5947-0.83398-0.2664-1.6707-0.5466-2.499-0.9139h-0.0128c-0.29855-0.1402-0.59545-0.2911-0.89105-0.4521l-0.25236 0.4625c0.30619 0.1668 0.6151 0.3231 0.925 0.4687h0.0128c1.0638 0.4719 2.1421 0.8695 3.2161 1.1764l0.0121-0.049c0.84553 1.0454 1.7532 2.0375 2.7847 2.8967 0.20844 0.1735 0.42005 0.3428 0.6365 0.5068 0.68686 0.5212 1.4394 0.9469 2.1983 1.3567-1.0551 0.047-2.1425 0.019-3.2623-0.1597-0.0627-0.011-0.12451-0.02-0.18666-0.03l-0.0895 0.5202c0.0643 0.011 0.12844 0.022 0.19257 0.032 1.4438 0.2299 2.8557 0.2683 4.1914 0.1381l0.10766-0.011c0.84576 0.3879 1.7101 0.7395 2.6102 0.9765h0.0128l0.0287 0.01h0.0128c1.1676 0.3056 2.3602 0.455 3.5589 0.5151-0.98306 0.6255-2.0368 1.1934-3.2232 1.6389l0.18562 0.4934c1.4734-0.5534 2.7847-1.2616 3.9585-2.0767l-0.0219-0.03c1.3361 0.01 2.6776-0.094 4.0041-0.3193 1.1156-0.1895 2.2132-0.475 3.2965-0.7891-0.75624 0.8135-1.5521 1.6161-2.4434 2.3652l0.33886 0.4027c1.0166-0.8544 1.9388-1.762 2.7813-2.6906 0.10011-0.1093 0.19741-0.2187 0.2947-0.3287l0.0537-0.061c2.217-0.7293 4.2065-1.706 6.1562-2.7772-0.60799 1.1431-1.2502 2.2802-1.9757 3.3994l0.44174 0.2864c0.80389-1.2395 1.5259-2.4951 2.187-3.7599l-0.27082-0.1413c1.0559-0.5892 2.1012-1.1566 3.1975-1.8067 0.12717-0.076 0.25403-0.1515 0.38096-0.2277 0.0212-0.012 0.0408-0.025 0.0628-0.037 0.81355-0.4895 1.6072-1.0105 2.4022-1.5287-0.48338 0.9902-0.96973 1.9804-1.5164 2.9709l0.46171 0.2544c0.69154-1.2535 1.3202-2.5042 1.9161-3.7527l-0.0182-0.01c0.0128 0 0.0128-0.01 0.0128-0.01l-0.24203-0.3626-0.0529-0.076c-0.0408 0.028-0.0841 0.053-0.12588 0.081-1.3262 0.065-2.6396 0.1056-3.9215 0.09l-0.0128 0.5275c1.0058 0.012 2.0381-0.03 3.0678-0.07-0.74529 0.4838-1.4873 0.9728-2.2468 1.4298-0.1466 0.088-0.29334 0.1762-0.44091 0.2636-1.1691 0.6934-2.2733 1.297-3.39 1.9151-1.1031-0.098-2.1945-0.2178-3.2522-0.3926l-0.0867 0.5203c0.83511 0.138 1.7019 0.2202 2.564 0.3101-1.8035 0.9626-3.6474 1.8268-5.6934 2.4805-0.0733-0.018-0.14653-0.036-0.21933-0.054-1.1849-0.297-2.3341-0.6634-3.4088-1.096l-0.19693 0.4893c0.90994 0.3662 1.8894 0.6546 2.8763 0.9251-1.0123 0.2875-2.0326 0.5595-3.0687 0.7355-1.3284 0.2256-2.6672 0.3311-3.9959 0.3193-1.0219-0.6592-1.934-1.393-2.6989-2.1951l-0.38224 0.3646c0.61223 0.642 1.3765 1.1942 2.1426 1.7429-1.1281-0.066-2.255-0.161-3.3478-0.4501-0.94262-0.2482-1.8548-0.6034-2.7361-1.023-0.66553-1.032-1.1973-2.0989-1.5514-3.1633-0.0181-0.05-0.034-0.099-0.0499-0.1505l-0.50065 0.1658c0.0166 0.051 0.034 0.1012 0.0529 0.1535 0.28576 0.8588 0.76925 1.7038 1.2475 2.5456-0.70099-0.3847-1.4016-0.7745-2.0386-1.2579-0.20987-0.1591-0.41581-0.3229-0.61812-0.4913-1.0282-0.8565-1.9306-1.8551-2.774-2.9081-0.11151-0.9829-0.15513-1.9522-0.14524-2.9019v-0.01-0.01c0.0128-0.2009 0.0189-0.4006 0.0363-0.5983l-0.52537-0.043c-0.0166 0.2072-0.0317 0.4174-0.0371 0.6293v0.01c-0.0128 0.7002 0.0529 1.4243 0.10758 2.1457-0.34157-0.4631-0.7124-0.9035-1.023-1.3886-0.82315-1.2855-1.4374-2.6926-1.8686-4.1586 0.33923-1.243 0.80025-2.4063 1.3806-3.4416l-0.46072-0.2575c-0.46496 0.8296-0.83867 1.7497-1.1589 2.7092-0.23232-1.0068-0.40802-2.0275-0.46154-3.0625-0.0604-1.172-0.0128-2.3512 0.16186-3.5117 0.0242-0.162 0.0771-0.3177 0.10433-0.4789 0.81069-0.9026 1.6763-1.6967 2.5814-2.391l-0.32026-0.4193c-0.72374 0.555-1.3967 1.229-2.0642 1.9119 0.45098-2.0895 1.2068-4.103 2.2146-6.0086 1.106-0.6585 2.2342-1.2304 3.3685-1.6946l-0.19981-0.4882c-0.93044 0.3807-1.8498 0.8838-2.7658 1.3917 0.53525-0.936 1.1171-1.8477 1.7553-2.7185 0.24541-0.3347 0.49785-0.6639 0.75603-0.9879 0.58577-0.7342 1.2301-1.4183 1.8791-2.0973 1.1837-0.301 2.3605-0.5244 3.5228-0.6727l-0.0658-0.5231c-0.94239 0.12-1.8987 0.327-2.8556 0.5447 1.5376-1.5232 3.2389-2.8785 5.0434-4.0822 1.2982-0.057 2.5772-0.047 3.8185 0.049l0.0431-0.5254c-1-0.077-2.038-0.06-3.0751-0.041 0.90527-0.5691 1.8276-1.112 2.7804-1.5966 0.16193-0.082 0.32395-0.1643 0.48717-0.2442v-0.0008c1.0633-0.5309 2.1576-0.9965 3.2675-1.4185v0.01c1.2831 0.1124 2.5723 0.1814 3.8628 0.1999l0.0128-0.5274c-0.8429-0.012-1.6837-0.077-2.5249-0.1309 1.9418-0.6522 3.9272-1.1675 5.948-1.4854 1.3763 0.1009 2.7492 0.155 4.1091 0.1349l-0.0128-0.5274c-0.0867 0.0008-0.175-0.01-0.26164-0.01 0.0627 0 0.12451-0.016 0.18634-0.019 0.47714-0.022 0.95465-0.034 1.4321-0.036h0.63137l-0.44607-0.4471c-0.65003-0.6499-1.3379-1.2625-2.0004-1.9005l0.0461-0.032c-0.51539-0.7277-1.0175-1.5448-1.5071-2.4517l-0.46352 0.25032c0.19362 0.35843 0.40061 0.64131 0.59854 0.97347-1.3403-1.256-2.7132-2.4712-4.1101-3.6631l-0.0205-0.0349c-0.5817-1.0006-1.1531-2.1075-1.7171-3.319l-0.47787 0.22251c0.38088 0.81821 0.77311 1.5218 1.1629 2.2477-0.77267-0.64196-1.5159-1.3196-2.3075-1.9376-1.0974-0.85689-2.2449-1.6465-3.3807-2.4517l0.0711-0.034c-0.34005-0.71551-0.67919-1.468-1.0177-2.256v-0.005-0.004c-0.19257-0.4011-0.38974-0.80247-0.59214-1.2032l-0.47084 0.23795c0.20049 0.39739 0.39622 0.79477 0.58727 1.1929 0.23112 0.53775 0.46413 1.036 0.69632 1.5411-0.35353-0.24505-0.68709-0.51761-1.0446-0.75717v-0.0008-0.00081c-1.4744-0.96771-2.9949-1.87-4.547-2.7174-0.69231-1.1597-1.4344-2.3089-2.2527-3.4406l-0.42768 0.30904c0.6334 0.87557 1.1884 1.7696 1.7442 2.6639-0.95518-0.49797-1.9032-1.01-2.8905-1.4442-0.41295-0.18159-0.82877-0.3574-1.2475-0.52639-0.8846-0.35682-1.8154-0.59925-2.7288-0.889l0.0947-0.0834c-0.84969-0.95907-1.7886-1.8876-2.8377-2.7628l-0.33779 0.40587c0.81884 0.68332 1.5244 1.4195 2.2177 2.1591-2.0268-0.58151-4.0904-1.0293-6.2095-1.1043l-0.0128 0.205-0.0166-0.009-0.0128-0.19571c-0.10766 0.008-0.21479 0.0265-0.32251 0.034-1.1709-0.60096-2.3814-1.1735-3.6497-1.6945zm-33.353 33.256c-0.49226 1.2994-1.0599 2.5692-1.5907 3.8547-0.98874 0.7151-1.9833 1.4103-2.9821 2.0756l0.2925 0.4389c0.77674-0.5174 1.5477-1.0655 2.3177-1.6132-0.85672 2.0265-1.807 3.9961-2.806 5.9448-1.0662 0.6628-2.1372 1.2998-3.2129 1.881l0.25138 0.4636c0.84123-0.4547 1.675-0.9657 2.5094-1.47-0.47517 0.8967-0.88312 1.8345-1.398 2.7061-0.7146 1.2101-1.5688 2.3243-2.3702 3.4756-1.0419 0.4478-2.0869 0.859-3.1334 1.2145-0.0355 0.011-0.0688 0.024-0.10331 0.035l0.16791 0.5006c0.0363-0.011 0.0688-0.025 0.1054-0.036 0.8162-0.2773 1.6281-0.6139 2.4404-0.9467-0.41429 0.5724-0.75466 1.1955-1.1939 1.7501-0.86754 1.0955-1.7894 2.1512-2.768 3.145-1.2748 0.3239-2.5412 0.5724-3.7753 0.7088l0.0583 0.5242c0.97005-0.107 1.9649-0.3337 2.9576-0.5552-0.76147 0.7281-1.5237 1.4571-2.3527 2.1005-0.64049 0.4967-1.3007 0.9651-1.983 1.402-0.45316 0.2902-0.93353 0.5348-1.4052 0.7941-1.213-0.072-2.384-0.2393-3.4951-0.4975l-0.11937 0.5141c0.91198 0.2118 1.8858 0.3169 2.8648 0.4078-1.9377 0.9768-4.0097 1.6628-6.1364 2.0726-0.5435-0.2042-1.0768-0.4195-1.5844-0.6624-0.61397-0.2979-1.2042-0.6194-1.7646-0.962l-0.27504 0.4501c0.57564 0.352 1.1804 0.6815 1.809 0.9868 0.27383 0.131 0.56997 0.2374 0.85408 0.3575-0.22083 0.033-0.43691 0.092-0.65834 0.1174 0 0.0001 0-0.0001-0.01209 0-0.81137 0.087-1.6276 0.1339-2.4434 0.1381-1.3508 0.01-2.6899-0.1425-4.0083-0.3894-0.8376-0.7791-1.5713-1.608-2.1706-2.4764-0.03172-0.046-0.06581-0.093-0.0968-0.139l-0.43585 0.2957c0.03327 0.048 0.06581 0.096 0.09804 0.1441 0.47214 0.6841 1.0879 1.313 1.7005 1.9408-0.68994-0.1646-1.3914-0.2894-2.0571-0.5347-1.3059-0.4804-2.5492-1.1271-3.7041-1.9057-0.53557-1.1808-0.92856-2.3758-1.1415-3.5425l-0.51802 0.095c0.16874 0.9249 0.53935 1.8643 0.90119 2.7998-0.8175-0.6211-1.6385-1.2433-2.3351-1.9972l-0.03781-0.041c-0.90095-0.9807-1.6917-2.0617-2.3704-3.212h0.01436c0.03781-1.2226 0.19354-2.4011 0.44605-3.5176l-0.5141-0.1165c-0.19891 0.8798-0.28003 1.8248-0.35223 2.771-0.48241-0.9129-0.95826-1.8319-1.3031-2.8061-0.36607-1.0345-0.62584-2.1043-0.83738-3.1819 0.4478-1.2086 0.97686-2.3509 1.5955-3.3892l-0.45317-0.2698c-0.50314 0.8439-0.90065 1.7986-1.296 2.7524-0.16361-1.0541-0.28978-2.116-0.30793-3.183l-0.26377 0.01 0.26377-0.01c-0.01281-0.2811-0.01281-0.5628 0-0.8447 0.02118-1.0773 0.18016-2.1452 0.35012-3.2088 0.79005-0.8971 1.629-1.7054 2.5052-2.3981l-0.32668-0.4142c-0.73274 0.5794-1.4158 1.2835-2.0899 2.0005 0.27474-1.3945 0.67129-2.763 1.2112-4.0751 0.28313-0.6877 0.64882-1.3365 1.0057-1.9891 1.105-0.6321 2.232-1.153 3.3518-1.5051l-0.15847-0.5037c-0.9445 0.2969-1.8833 0.7772-2.8174 1.265 0.55908-0.9295 1.1876-1.8164 1.8912-2.6391 0.44953-0.5257 0.92711-1.0264 1.432-1.4988 0.46707-0.4376 0.96907-0.8359 1.4792-1.2228 1.2131-0.1025 2.3933-0.076 3.523 0.06l0.06271-0.5233c-0.92023-0.1104-1.8929-0.088-2.8688-0.048 1.7394-1.197 3.6657-2.1333 5.6924-2.7504l0.01209-0.0003c0.04608-0.015 0.09597-0.017 0.14304-0.032 1.2831 0.297 2.5699 0.5399 3.8724 0.6788l0.05589-0.5243c-0.8701-0.093-1.7315-0.2864-2.5948-0.4553 0.89242-0.2235 1.7786-0.4781 2.6908-0.6057 1.4196-0.1988 2.8572-0.2582 4.2965-0.2555 1.1467 0.2077 2.3022 0.3384 3.4726 0.3533h0.28509l-0.01963-0.2843c-0.01281-0.074-0.01281-0.1523-0.01281-0.2359h-0.2659l0.01436-0.016c-0.07965-0.0008-0.15892-0.023-0.23898-0.025l-0.13103-0.1462c-0.52785-0.5912-1.0169-1.2491-1.5349-1.9047l-0.01281-0.01-0.01281-0.01c-0.43955-0.4765-0.89279-0.943-1.3381-1.4154-0.16231-0.72259-0.32985-1.446-0.51084-2.1725-0.14704-0.58985-0.30074-1.18-0.46163-1.7718l-0.50881 0.13805c0.15976 0.58789 0.3124 1.1751 0.45846 1.7615 0.10736 0.4283 0.20187 0.85519 0.30165 1.2825-0.08585-0.0908-0.17184-0.18341-0.25954-0.274h0.01591l-0.4388-0.4481c-0.51674-0.52788-1.0402-1.0501-1.57-1.5658-0.98896-0.96258-2.0072-1.8958-3.046-2.806l0.028-0.008c-0.37734-1.2032-0.79323-2.4083-1.2537-3.6136l-0.49248 0.18851c0.35692 0.93403 0.66576 1.8675 0.97142 2.8009-0.97074-0.82727-1.9519-1.6428-2.9708-2.4126-0.67914-0.51328-1.4317-0.92537-2.1343-1.4092l-0.01281-0.0277c-0.59046-1.2698-1.244-2.5345-1.9747-3.7857l-0.4552 0.26577c0.56921 0.97485 1.0581 1.9636 1.54 2.9523-0.93581-0.61661-1.8259-1.3002-2.803-1.8501-1.2242-0.68907-2.526-1.2274-3.8154-1.7883l0.11386-0.0814c-0.4171-0.59095-0.85802-1.1757-1.3237-1.7532-0.35178-0.43544-0.71928-0.86541-1.1021-1.2897l-0.39154 0.35332c0.37635 0.41702 0.73788 0.84001 1.0835 1.2681 0.30558 0.37896 0.58433 0.7656 0.8686 1.1506-0.33606-0.13734-0.64361-0.33412-0.9839-0.4615-1.736-0.65-3.5402-1.109-5.369-1.4401-1.0458-0.89608-2.1806-1.7392-3.4231-2.497l-0.27406 0.45015c0.95857 0.58459 1.8016 1.2556 2.6404 1.9273-1.0841-0.15524-2.1654-0.34541-3.2595-0.36979-1.2975-0.029-2.5973 0.0384-3.8887 0.2122l0.03554 0.52535-0.03554-0.52535c-0.10228 0.0138-0.19898 0.049-0.30083 0.065l0.01591-0.0403c-1.2013-0.47747-2.5169-0.80047-3.8928-0.98685l-0.0688 0.52229c1.0272 0.13915 1.9636 0.43184 2.8894 0.7324-2.0924 0.48588-4.0247 1.44-5.8334 2.5804h-0.01281c-0.47539 0.0161-0.95372 0.0465-1.4337 0.0917-0.94722 0.0867-1.903 0.22299-2.8628 0.40176l0.09684 0.51916c0.94533-0.17604 1.8851-0.31047 2.8144-0.39556 0.11809-0.0118 0.23528-0.0133 0.35314-0.0227-0.04608 0.0329-0.10217 0.0526-0.14917 0.0855-0.84062 0.59314-1.6475 1.228-2.424 1.8975-1.0543 0.90933-2.0406 1.8914-2.9914 2.906l-0.01285-0.0351c-1.1634 0.32497-2.3301 0.70302-3.487 1.1208-0.0567 0.0204-0.11287 0.0413-0.17003 0.0618l0.17925 0.49548c0.05594-0.0205 0.11408-0.0407 0.17003-0.0607 0.89022-0.32144 1.7846-0.5949 2.6783-0.86223-0.49936 0.55515-1.0101 1.1012-1.4845 1.675-0.92515 1.1186-1.8083 2.2696-2.6558 3.4457-1.2235 0.53628-2.4442 1.1109-3.6578 1.7326l0.24117 0.46975c0.94178-0.48252 1.8892-0.91346 2.8367-1.3443-0.61049 0.87506-1.2223 1.75-1.7931 2.6515-0.74552 1.1768-1.3976 2.4093-2.0789 3.625l-0.0499-0.089c-1.0994 0.6175-2.1929 1.2686-3.279 1.949l0.28034 0.447c0.86686-0.5431 1.7414-1.0515 2.6164-1.5544-1.046 1.9139-2.0168 3.8623-2.9194 5.8458-0.64239 0.4484-1.2815 0.906-1.9169 1.3743-0.47032 0.3397-0.94125 0.6765-1.4123 1.0085l0.30385 0.4314c0.47372-0.3337 0.9473-0.6723 1.4194-1.0134v-0.0009c0.37839-0.2787 0.76079-0.5462 1.1413-0.8179-0.14372 0.3258-0.31594 0.6393-0.45619 0.9663-0.28412 0.6619-0.57133 1.322-0.86323 1.9797-0.56853 1.2804-1.2325 2.5072-1.8501 3.7599-1.0172 0.6355-2.0392 1.2437-3.0667 1.8049l0.25228 0.4624c0.8023-0.4381 1.5969-0.9226 2.3911-1.4061-0.38814 0.7634-0.7186 1.5596-1.1351 2.3065-0.61548 1.1031-1.2703 2.1823-1.9699 3.2294-1.19 0.5584-2.3845 1.0526-3.5734 1.4391l0.16383 0.5016c0.93974-0.3055 1.8778-0.7223 2.8154-1.1342-0.56778 0.805-1.1376 1.6094-1.7709 2.361l-0.14092 0.168c-0.82361 0.9556-1.8628 1.976-2.799 2.9832l-0.01663-0.094c-1.1157 0.2099-2.2233 0.3606-3.32 0.4635l-0.29682 0.028 0.0499 0.5254 0.29666-0.028c0.92984-0.088 1.8729-0.2314 2.8182-0.3935-1.8281 1.9349-3.6931 3.8411-5.8025 5.5131-1.1865 0.053-2.3695 0.088-3.5498 0.099l0.012852 0.5275c0.92091-0.01 1.8487-0.045 2.7752-0.078-0.78876 0.5938-1.5756 1.2016-2.3856 1.7007l0.27708 0.4491c1.0252-0.6316 2.0249-1.3731 3.01-2.1437-0.53368 1.1065-1.0904 2.2118-1.6718 3.3098l0.46564 0.2472c0.65751-1.2419 1.298-2.4944 1.8943-3.7517l0.18954-0.3996-0.12853 0.01c1.8272-1.4986 3.428-3.1461 5.0302-4.8261-0.21237 0.8597-0.41838 1.7199-0.69645 2.5826-0.05822 0.1789-0.1153 0.3586-0.17502 0.5377l0.50034 0.1658c0.06049-0.1808 0.11945-0.3619 0.17736-0.5429 0.38308-1.1887 0.70393-2.379 0.96204-3.5621 0.93301-1.0055 1.9734-2.027 2.7938-2.979l-0.09064-0.079 0.09064 0.077c0.02117-0.026 0.04309-0.052 0.06578-0.077 0.0257-0.031 0.05293-0.062 0.07886-0.094 0.67112-0.797 1.2758-1.6461 1.8737-2.499-0.07976 1.1014-0.17026 2.2057-0.36864 3.3355l0.51894 0.092c0.25334-1.44 0.40092-2.8551 0.471-4.2472l0.01285-0.057c0.6399-0.9675 1.2443-1.9587 1.812-2.9699h0.01285l0.07704-0.135c0.48128-0.8627 0.86406-1.7752 1.3074-2.6576 0.18145 1.2031 0.34989 2.4124 0.46344 3.6518l0.52536-0.049c-0.13352-1.458-0.3207-2.8849-0.54479-4.2915l-0.11416 0.019c0.5965-1.2152 1.2431-2.4051 1.7925-3.6425 0.29288-0.6602 0.58032-1.3226 0.86527-1.9859 0.15279-0.3561 0.33946-0.6974 0.49648-1.0518 0.06048 0.4978 0.11658 0.9979 0.18439 1.4917 0.07712 0.5806 0.14894 1.1634 0.21857 1.748l0.52423-0.063c-0.06956-0.587-0.14349-1.1709-0.21955-1.7532v-0.0008-0.0008c-0.10433-0.7655-0.20019-1.5362-0.28631-2.3116 0.90625-1.9916 1.8827-3.9463 2.9338-5.8654 0.12988 1.1442 0.26801 2.285 0.44606 3.4055l0.52128-0.083c-0.2132-1.3419-0.39109-2.7017-0.53474-4.0772 0.6653-1.1843 1.3-2.3868 2.0263-3.5333 0.60164-0.9501 1.2434-1.8747 1.8892-2.7947-0.08233 1.0975-0.15786 2.1928-0.1844 3.2747l0.52755 0.013c0.03327-1.3546 0.10743-2.7214 0.23066-4.0998v-0.0258c0.80796-1.1151 1.6466-2.2066 2.5247-3.2686 0.50782-0.61403 1.0511-1.1983 1.5864-1.7893-0.12588 1.0249-0.23875 2.0476-0.30075 3.0543-0.01285 0.13599-0.01587 0.27048-0.02344 0.40485l0.52635 0.0288c0.0121-0.13437 0.01587-0.26746 0.02419-0.40074v-0.00079c0.07621-1.2412 0.19233-2.494 0.36977-3.7579 0.91464-0.97063 1.8634-1.9082 2.8709-2.7772 0.76449-0.65929 1.5571-1.2841 2.3827-1.8666 0.0842-0.0596 0.18372-0.0959 0.269-0.15453-0.0718 0.15457-0.1509 0.3091-0.21864 0.46356-0.3669 0.84088-0.68352 1.6841-0.95788 2.5289l0.5017 0.16275c0.26944-0.82962 0.57957-1.6563 0.93944-2.4805 0.16496-0.37742 0.34483-0.7549 0.53269-1.131 1.8751-1.1935 3.8857-2.1684 6.0445-2.6268-0.79376 0.85724-1.4766 1.7609-2.0066 2.7102l0.46057 0.25649c0.62327-1.1169 1.4077-2.1835 2.4156-3.1542 0.05599-0.008 0.10887-0.0273 0.16488-0.0349 1.2628-0.1699 2.5358-0.23642 3.8073-0.20809 1.104 0.0247 2.1979 0.21319 3.2931 0.37394-0.98949 0.41003-1.9763 0.82599-2.8606 1.3361l0.26385 0.45737c1.1089-0.63972 2.3172-1.201 3.5971-1.6801 1.7759 0.32528 3.529 0.77658 5.2185 1.4092 0.34353 0.12849 0.65509 0.32775 0.99402 0.46666-0.49165 0.11316-0.98791 0.21904-1.4667 0.35333-0.60467 0.17068-1.1964 0.35945-1.775 0.56553l0.17631 0.49651c0.56732-0.20204 1.1485-0.38666 1.742-0.5542 0.68095-0.19103 1.3801-0.3555 2.089-0.50373 1.2551 0.54799 2.5228 1.0704 3.7176 1.743 0.94118 0.52976 1.8009 1.1917 2.7051 1.7852-1.0448-0.0449-2.0904-0.0897-3.1079-0.0607l0.01436 0.52743c1.2795-0.0365 2.5909-0.004 3.9155 0.0772 0.74392 0.50869 1.5355 0.94466 2.2539 1.4875 1.0655 0.80499 2.0952 1.6546 3.1089 2.5238-1.1721-0.11132-2.3419-0.21162-3.4941-0.2524l-0.01818 0.52744c1.3763 0.0487 2.7714 0.15144 4.1781 0.3008 1.0003 0.87952 1.9849 1.7787 2.94 2.7082 0.52658 0.51253 1.0466 1.0315 1.5607 1.5565 0.2696 0.27542 0.52786 0.56207 0.79397 0.84059-0.48105-0.1336-0.96234-0.27086-1.4431-0.39558-0.57738-0.15002-1.1544-0.29314-1.7305-0.42956l-0.12179 0.513c0.57223 0.13554 1.1451 0.27844 1.719 0.42754 0.75436 0.1957 1.5108 0.4036 2.2683 0.6201l0.01281 0.001c0.40984 0.4357 0.82739 0.8644 1.2329 1.3041 0 0.001 0.01281 0 0.01281 0.01 0.30778 0.3898 0.62395 0.7732 0.93535 1.1609v0c-0.78392-0.1304-1.5917-0.081-2.4001 0.1824l0.01281 0.028c-1.367 0.01-2.7332 0.079-4.0864 0.2688-1.1265 0.1577-2.2297 0.4465-3.3282 0.75 0.73546-0.7157 1.4837-1.3202 2.2405-1.7204l-0.24616-0.4656c-1.0232 0.5412-2.0236 1.3418-2.975 2.392l-0.04008 0.043c-2.0442 0.633-3.9927 1.5727-5.7533 2.7864 0.39518-1.086 0.82981-2.1753 1.4526-3.2407l-0.45535-0.2668c-0.78038 1.3351-1.3927 2.7055-1.8242 4.0721l0.03399 0.012c-0.49875 0.3818-0.9935 0.7701-1.4526 1.2-0.51932 0.4861-1.01 1.0008-1.4719 1.5411-0.6972 0.8151-1.3267 1.6889-1.8851 2.6051 0.01281-1.0649 0.02417-2.1355 0.22356-3.2479l-0.51924-0.093c-0.26741 1.4861-0.35866 2.9432-0.29863 4.3419l0.01281 0.1534c-0.30559 0.5805-0.63718 1.148-0.88697 1.7543-0.55395 1.3457-0.95985 2.7474-1.2413 4.1751-0.47282-1.0512-0.92544-2.1257-1.2372-3.3087l-0.50972 0.1349c0.3917 1.4883 0.92129 2.8799 1.5574 4.1638l0.08668-0.043c-0.16239 1.0502-0.32487 2.1032-0.3452 3.1655-0.01281 0.2878-0.01281 0.5765 0 0.8653v0c0.01818 1.1007 0.14621 2.1965 0.31624 3.284-0.69924-0.839-1.3926-1.6944-1.9911-2.6762l-0.45021 0.274c0.77552 1.2719 1.6447 2.4335 2.5827 3.4704l0.08409 0.093c0.21086 1.0108 0.44356 2.0181 0.788 2.9914 0.37068 1.0472 0.87647 2.0408 1.403 3.0194-1.0595-0.5226-2.1185-1.0933-3.1305-1.8387l-0.31209 0.4243c1.2397 0.9134 2.5339 1.6705 3.8422 2.2569l0.01281-0.02c0.68519 1.1484 1.4717 2.2362 2.3766 3.2212l0.03781 0.041c0.76827 0.8316 1.6657 1.5286 2.5753 2.2025-1.1296-0.1098-2.2819-0.3079-3.4469-0.6666l-0.15544 0.5039c1.4559 0.4483 2.9058 0.7004 4.3049 0.7745h0.06271c1.1472 0.7569 2.3726 1.3961 3.6631 1.8706l0.04463 0.018h0.01818c0.72797 0.2653 1.4888 0.4123 2.2427 0.5841-0.96416 0.4027-1.9524 0.7817-3.0511 1.0209-0.14849 0.032-0.29788 0.061-0.44818 0.09l0.0969 0.5192c0.15476-0.029 0.30861-0.06 0.46147-0.093 1.3703-0.2982 2.6376-0.7345 3.8063-1.2743l-0.01891-0.042c1.319 0.2396 2.6561 0.3787 4.0009 0.3719 0.82619 0 1.6518-0.054 2.4723-0.1401h0.01281c0.01281 0 0.01281-0.0004 0.01818 0h0.01281c0.29364-0.034 0.58025-0.1096 0.87246-0.1555-0.30944 0.2571-0.60815 0.5201-0.93854 0.7644-0.58305 0.4261-1.1954 0.8329-1.8387 1.2155l0.26991 0.4542c0.65835-0.3914 1.2858-0.8085 1.882-1.2443 0.56663-0.4188 1.1027-0.8566 1.609-1.3113l0.07335-0.066c2.0841-0.4274 4.1104-1.1167 6.0106-2.0758-0.54034 1.0206-1.1106 2.0388-1.8405 3.0172l0.42224 0.3162c0.91548-1.2271 1.6853-2.5 2.3106-3.7887l-0.04608-0.023c0.4264-0.2368 0.8618-0.4583 1.2732-0.72h0.01281l0.06581-0.041c0.69636-0.4459 1.3701-0.925 2.0224-1.431 0.88379-0.6856 1.6978-1.4564 2.504-2.2342-0.29047 1.071-0.59469 2.1435-1.0229 3.216l0.49037 0.1957c0.54418-1.3631 0.96869-2.728 1.2989-4.0844l0.0128-0.052c0.94685-0.9714 1.8462-1.9911 2.6875-3.0534 0.53344-0.6736 0.9516-1.4243 1.4483-2.1231 0 1.1122-0.0219 2.2304-0.10645 3.3737-0.0128 0.1189-0.0182 0.2387-0.0287 0.3595l0.52536 0.044c0.0128-0.1207 0.0196-0.2426 0.0294-0.3646 0.099-1.3486 0.13737-2.6738 0.12445-3.9793h-0.1596c0.77235-1.1175 1.6041-2.1954 2.2952-3.3654 0.59362-1.0054 1.0686-2.0803 1.6099-3.1172 0.0658 1.1596 0.11944 2.324 0.11944 3.5066h0.52755c0.00009-1.4233-0.0529-2.8285-0.14439-4.2173l-0.0159-0.2319c0.96573-1.9151 1.8831-3.8471 2.7143-5.8293 0.26158 1.1817 0.51522 2.3682 0.73257 3.5755l0.5191-0.094c-0.25735-1.4293-0.54971-2.8377-0.86634-4.2297l-0.0841 0.02c0.51432-1.2496 1.0676-2.4838 1.5451-3.7445l-0.4933-0.1875zm37.344-31.149v0.0793-0.0762l0.0128-0.004zm-62.468 20.523c0.02645 0.031 0.0499 0.064 0.0749 0.095-0.02944 0-0.06043-0.0008-0.0905 0l0.01591-0.092zm60.606-24.217c-15.018 0.24926-30.882 10.515-37.824 27.234-3.9462 9.5042-7.196 18.214-11.317 24.538-4.1185 6.3212-9.0602 10.25-16.497 10.334-6.8171-0.4133-11.395-3.5896-13.973-7.8772-2.5797-4.2894-3.1445-9.7059-1.8513-14.565 1.2933-4.8589 4.4347-9.1487 9.2515-11.226 4.8169-2.0774 11.335-1.9582 19.432 2.0922l0.77275 0.3863-0.42429-0.752c-1.6531-2.9264-7.7168-10.413-15.667-17.087-7.9505-6.674-17.772-12.522-26.934-11.95-9.1232 0.56943-16.723 5.4442-22.838 12.245-6.1155 6.8008-10.761 15.532-14.011 23.875-2.9736 7.6347-8.1366 14.195-14.479 19.089l0.32145 0.4c6.4134-4.9484 11.637-11.583 14.648-19.315 3.2333-8.3005 7.8579-16.981 13.912-23.713 6.0538-6.7326 13.524-11.513 22.478-12.072 8.9149-0.55645 18.66 5.1952 26.563 11.829 7.3841 6.1986 13.02 13.029 15.027 16.184-7.7953-3.6791-14.208-3.7845-19.011-1.7131-4.9829 2.149-8.2231 6.5846-9.5513 11.574-1.3281 4.9896-0.75391 10.545 1.9089 14.973 2.6629 4.428 7.4292 7.7125 14.4 8.1328h0.01281 0.01281c7.6282-0.082 12.773-4.1705 16.946-10.574 4.1724-6.4035 7.4195-15.131 11.361-24.625 7.8416-18.888 27.227-29.417 43.597-26.401 8.1564 1.5027 17.32 8.1344 24.371 14.531 3.5254 3.1982 6.5265 6.3354 8.6211 8.7343 1.0473 1.1994 1.8685 2.2146 2.4126 2.9564 0.27203 0.3709 0.47524 0.6749 0.59945 0.8911v0.0008c-22.38-3.5923-35.218 8.9213-36.051 21.301-0.57799 6.1411 0.95334 10.383 3.4767 13.064 2.5234 2.6812 6.0148 3.7882 9.3049 3.7382 8.5013-0.1288 16.945-4.4852 24.081-9.5265l-0.30489-0.4315c-7.0928 5.0106-15.459 9.3055-23.784 9.4317-3.1665 0.049-6.506-1.0163-8.9126-3.5736-2.4064-2.5571-3.9034-6.6204-3.3355-12.653v-0.01c0.81188-12.125 13.434-24.564 35.878-20.766l0.22362 0.037 0.0711-0.2143c0.0544-0.1587 0.0128-0.2416-0.0294-0.3389-0.0378-0.097-0.0906-0.2027-0.16187-0.3255-0.14115-0.2457-0.35125-0.5592-0.63029-0.9395-0.55795-0.7606-1.3859-1.7838-2.4404-2.9914-2.1088-2.4153-5.122-5.5652-8.6643-8.7787-7.0845-6.4269-16.272-13.118-24.63-14.658-2.0822-0.38361-4.2105-0.55272-6.3558-0.5171zm-143.11 25.82a0.52747 0.52747 0 0 0 -0.53254 0.5728l0.28638 3.9607c-0.70174-0.5885-1.4037-1.177-2.1055-1.7656a0.52747 0.52747 0 1 0 -0.67785 0.8076c0.83269 0.6983 1.6653 1.397 2.4978 2.0953l-1.9921 0.083a0.52747 0.52747 0 1 0 0.04309 1.0538l1.6234-0.067c-0.67256 0.9035-1.3461 1.8061-2.021 2.7081a0.52766 0.52766 0 1 0 0.84478 0.6325c0.66583-0.8901 1.3315-1.7816 1.9953-2.6731l0.35344 4.8909a0.52747 0.52747 0 1 0 1.0516 -0.076l-0.38209-5.2803c1.1889 0.997 2.3781 1.9943 3.5672 2.9914a0.5276 0.5276 0 1 0 0.67785 -0.8086c-0.99916-0.8379-1.9983-1.6757-2.9976-2.5135l3.246-0.1339a0.52747 0.52747 0 1 0 -0.04461 -1.0539l-4.1451 0.1721c0.83715-1.1215 1.6831-2.2328 2.4826-3.3963a0.52747 0.52747 0 1 0 -0.86935 -0.5975c-0.6653 0.9682-1.3878 1.9155-2.0954 2.8658l-0.28729-3.9711a0.52747 0.52747 0 0 0 -0.51909 -0.4965zm93.424 2.3827a0.52747 0.52747 0 0 0 -0.54064 0.5645l0.19377 3.4817-1.7432-1.9026a0.52747 0.52747 0 1 0 -0.77772 0.7118l2.0573 2.2446-2.9523 0.6819a0.52747 0.52747 0 1 0 0.23799 1.027l2.8626-0.6602-2.7122 3.8031a0.52768 0.52768 0 1 0 0.85906 0.6129l2.3486-3.2932 0.19172 3.4488a0.5278 0.5278 0 0 0 1.0538 -0.059l-0.20805-3.7259 2.4556 2.6793a0.52747 0.52747 0 1 0 0.77773 -0.7118l-2.9152-3.182 3.5106-0.8097a0.5275 0.5275 0 1 0 -0.23694 -1.028l-2.6495 0.6119 1.4659-2.0561a0.52747 0.52747 0 1 0 -0.85925 -0.6119l-1.7005 2.3847-0.20723-3.7063a0.52747 0.52747 0 0 0 -0.51206 -0.5058zm47.365-21.34-0.0128 0.00079c-9.3065 0.60671-15.987 4.9918-21.076 11.259-5.0895 6.2673-8.6088 14.412-11.672 22.596-2.8035 7.4893-6.489 14.477-11.336 19.803-4.8464 5.3257-10.843 8.9915-18.309 9.8705-7.1971 0.7715-13.003-1.9649-17.163-6.4825-4.16-4.5177-6.6572-10.826-7.1582-17.156-0.50117-6.3295 0.99198-12.67 4.7653-17.271 3.7734-4.6007 9.8233-7.4893 18.547-6.908l0.72631 0.048-0.52739-0.5027c-1.3812-1.317-4.82-5.2203-10.252-8.4531-5.4318-3.2328-12.885-5.8111-22.331-4.5366-5.7021 0.76934-10.459 4.6601-14.467 9.9282-4.0078 5.2681-7.2807 11.928-10.02 18.312-6.028 14.05-12.616 21.502-23.698 28.281l0.27602 0.4502c11.15-6.9 17.851-14.4 23.907-28.6 2.7315-6.3666 5.9932-12.994 9.9551-18.201 3.9616-5.2077 8.6099-8.9823 14.117-9.7253 9.3163-1.257 16.635 1.2801 21.991 4.4676 4.9996 2.9756 8.095 6.3426 9.678 7.9154-8.4867-0.3922-14.533 2.5071-18.31 7.1129-3.8806 4.7315-5.3927 11.208-4.8828 17.647 0.50986 6.4392 3.041 12.851 7.295 17.471 4.2546 4.6201 10.249 7.4381 17.608 6.6494 7.6033-0.8951 13.726-4.6414 18.637-10.038 4.9113-5.3971 8.6216-12.443 11.44-19.974 3.0572-8.1671 6.5644-16.262 11.588-22.448 5.021-6.1831 11.537-10.463 20.689-11.063 9.6628 0.34325 22.257 6.2748 30.52 14.167-11.62 0.1887-20.465 7.1255-25.223 15.878-4.8485 8.9179-5.5093 19.703-0.59355 27.11 4.9105 7.3989 13.298 9.0731 21.313 8.274 8.0152-0.7992 15.691-4.0411 19.388-6.5609l-0.2969-0.4356c-3.589 2.4461-11.236 5.6827-19.144 6.4712-7.9077 0.7883-16.043-0.8409-20.821-8.0402-4.7728-7.1913-4.1556-17.788 0.61692-26.567 4.7726-8.7786 13.664-15.716 25.401-15.646h0.64995l-0.4636-0.4554c-8.3545-8.2041-21.307-14.375-31.343-14.726l-0.0128-0.00079z" fill-rule="evenodd"/>
	</g>
</svg>
