<?xml version="1.0" standalone="no"?>
<!DOCTYPE svg PUBLIC "-//W3C//DTD SVG 20010904//EN"
 "http://www.w3.org/TR/2001/REC-SVG-20010904/DTD/svg10.dtd">
<svg version="1.0" xmlns="http://www.w3.org/2000/svg"
 width="700.000000pt" height="700.000000pt" viewBox="0 0 700.000000 700.000000"
 preserveAspectRatio="xMidYMid meet">
<metadata>
Created by potrace 1.14, written by Peter Selinger 2001-2017
</metadata>
<g transform="translate(0.000000,700.000000) scale(0.100000,-0.100000)"
fill="#000000" stroke="none">
<path d="M3285 6769 c-33 -4 -87 -11 -119 -14 -33 -3 -62 -8 -65 -10 -3 -1
-35 -6 -71 -10 -36 -4 -74 -9 -85 -11 -179 -34 -302 -64 -445 -110 -91 -28
-295 -105 -326 -123 -11 -6 -59 -29 -107 -51 -416 -194 -860 -550 -1149 -925
-69 -89 -95 -125 -152 -207 -36 -54 -66 -100 -66 -102 0 -2 -19 -34 -41 -72
-219 -361 -381 -865 -426 -1329 -16 -158 -9 -554 12 -715 12 -95 16 -127 20
-140 2 -8 6 -28 9 -44 113 -652 454 -1286 951 -1767 78 -76 120 -113 210 -188
211 -175 501 -349 781 -469 262 -113 531 -186 864 -236 140 -21 489 -28 615
-12 70 9 118 10 207 6 30 -2 56 3 72 13 13 9 82 28 152 42 1080 216 1965 929
2394 1929 93 216 176 496 206 686 3 19 7 41 9 48 3 7 7 40 11 75 3 34 8 65 10
68 24 43 24 735 -1 811 -2 7 -6 38 -10 68 -22 204 -133 597 -234 825 -48 111
-149 302 -216 411 -58 94 -178 269 -195 284 -3 3 -23 28 -44 55 -95 119 -257
290 -386 404 -482 426 -1101 710 -1725 790 -44 6 -98 13 -120 17 -66 9 -475
12 -540 3z m505 -274 c74 -8 181 -23 282 -40 131 -23 378 -95 533 -157 494
-196 890 -491 1260 -939 61 -73 181 -251 240 -354 125 -219 259 -542 300 -722
2 -10 13 -54 23 -98 20 -81 32 -142 37 -182 2 -13 6 -42 10 -65 35 -202 40
-586 11 -803 -12 -93 -21 -143 -38 -225 -11 -52 -21 -105 -24 -117 -26 -129
-127 -415 -205 -576 -77 -161 -224 -409 -292 -493 -9 -10 -42 -53 -75 -94 -78
-99 -139 -166 -145 -160 -3 3 -41 97 -85 210 -44 113 -119 304 -167 425 -48
121 -107 272 -132 335 -37 96 -75 166 -103 190 -20 18 -222 251 -219 253 22
15 149 53 242 71 15 4 37 8 50 11 202 41 501 49 727 20 84 -11 117 -15 140
-20 143 -28 152 -28 204 4 53 33 75 99 52 156 -19 46 -29 55 -110 105 -312
190 -680 332 -986 380 -41 6 -86 14 -100 17 -48 9 -386 11 -455 2 -130 -17
-150 -20 -257 -45 l-106 -25 -40 43 c-36 40 -208 234 -362 408 -36 40 -69 78
-75 84 -5 6 -57 65 -115 131 -58 66 -121 138 -141 159 l-37 39 25 66 c32 83
71 202 77 236 3 14 7 33 10 43 4 16 12 60 22 122 13 90 19 171 19 285 -1 115
-12 281 -20 295 -2 3 -6 25 -9 50 -9 70 -72 281 -112 378 -75 182 -211 410
-321 540 -24 28 -41 52 -36 53 55 4 109 11 112 14 5 6 325 -3 391 -10z m-857
-138 c30 -96 52 -176 63 -232 4 -22 8 -42 9 -45 0 -3 4 -27 9 -53 4 -27 9 -58
12 -70 23 -120 22 -461 -1 -578 -3 -13 -7 -37 -10 -54 -9 -53 -27 -130 -35
-143 -4 -9 -22 5 -56 45 -27 32 -54 63 -60 68 -5 6 -41 46 -80 90 -38 44 -81
91 -96 106 -17 15 -168 83 -390 174 -200 81 -381 156 -403 166 -22 9 -73 30
-114 47 l-73 29 33 26 c190 142 519 313 769 400 87 30 272 84 314 91 16 3 30
7 32 8 1 2 14 4 27 6 22 1 27 -6 50 -81z m419 -477 c151 -318 201 -691 136
-1000 -6 -30 -12 -59 -14 -65 -7 -35 -27 -104 -36 -129 l-12 -29 -30 36 c-17
19 -70 80 -118 135 l-88 99 21 59 c11 33 29 97 41 144 22 92 23 96 32 155 4
22 9 56 12 75 11 61 13 453 4 520 -5 36 -12 80 -14 99 -5 31 -4 33 8 15 7 -10
34 -62 58 -114z m-1871 -212 c1 -24 2 -54 4 -68 1 -14 5 -63 9 -110 9 -107 15
-180 21 -250 2 -30 7 -86 10 -125 4 -38 8 -92 10 -120 3 -27 7 -93 11 -145 4
-52 8 -101 9 -110 2 -8 4 -20 4 -26 1 -15 50 -75 129 -159 274 -290 381 -407
382 -416 0 -8 -3 -9 -115 -51 -117 -43 -288 -86 -410 -103 -141 -19 -202 -22
-385 -20 -113 2 -214 5 -225 8 -11 2 -47 8 -80 12 -88 12 -85 11 -155 25 -74
15 -113 14 -142 -1 -19 -10 -20 -9 -15 33 9 70 34 175 71 305 113 391 341 807
609 1113 64 73 240 250 249 250 4 0 8 -19 9 -42z m419 -133 c36 -15 79 -33 95
-40 17 -7 138 -57 270 -110 132 -54 249 -107 260 -119 11 -12 49 -55 85 -96
36 -41 74 -84 85 -96 20 -21 109 -122 157 -178 l25 -30 -25 -45 c-73 -134
-175 -267 -276 -364 -66 -63 -172 -149 -213 -172 l-32 -19 -37 40 c-20 21 -66
71 -103 110 -76 81 -278 298 -333 358 -32 34 -38 49 -39 86 -1 25 -3 54 -4 65
-1 11 -6 61 -10 110 -3 50 -8 106 -10 125 -2 19 -6 73 -10 120 -3 47 -8 101
-10 120 -2 19 -7 70 -10 112 l-6 77 38 -13 c21 -8 67 -26 103 -41z m1362
-1103 l46 -54 -35 -57 c-116 -183 -284 -350 -471 -470 l-52 -33 -75 79 c-40
43 -92 99 -113 122 l-40 44 82 61 c161 121 284 253 405 433 l62 92 72 -81 c40
-45 93 -106 119 -136z m271 -304 c14 -18 43 -52 64 -74 21 -23 47 -52 58 -65
11 -13 45 -51 74 -84 30 -33 66 -73 80 -90 87 -101 252 -286 283 -320 21 -22
38 -43 38 -46 0 -4 -24 -19 -52 -34 -155 -81 -315 -200 -449 -337 l-97 -98
-127 135 c-70 74 -136 145 -146 156 -14 17 -113 123 -264 284 -61 64 -60 60
-18 86 150 90 353 284 466 447 28 39 54 72 58 72 3 0 18 -15 32 -32z m-1225
-236 c135 -140 186 -202 167 -202 -3 0 -44 -11 -91 -25 -93 -27 -114 -32 -184
-41 -25 -3 -70 -9 -100 -13 -107 -14 -326 -5 -465 20 -33 5 -69 12 -81 14 -41
6 -189 48 -197 55 -4 4 20 8 55 9 221 8 507 69 713 153 55 22 107 44 115 49
25 14 39 10 68 -19z m-1675 -176 c89 -52 329 -176 342 -176 3 0 25 -8 48 -19
159 -70 428 -147 586 -166 30 -4 63 -9 75 -12 39 -9 371 -11 441 -2 122 15
181 24 225 36 14 3 30 7 36 9 40 8 141 39 207 65 43 16 83 29 87 29 5 0 19
-10 32 -23 22 -23 212 -225 278 -297 33 -36 201 -216 321 -344 l66 -70 -58
-116 c-281 -562 -265 -1210 44 -1774 42 -77 159 -260 177 -276 24 -22 59 -73
55 -80 -5 -9 -301 -5 -380 5 -77 9 -264 36 -283 40 -14 3 -136 31 -215 50
-179 42 -469 160 -682 278 -338 186 -692 492 -923 798 -59 78 -181 258 -212
314 -183 327 -284 598 -354 950 -9 44 -18 98 -21 120 -2 22 -7 49 -9 60 -19
96 -29 595 -13 658 7 25 9 26 23 12 9 -8 57 -40 107 -69z m4565 -360 c17 -3
44 -8 60 -10 82 -13 298 -69 310 -81 3 -3 -10 -5 -29 -6 -19 0 -52 -2 -74 -4
-22 -2 -65 -6 -96 -9 -126 -12 -338 -63 -533 -127 -36 -12 -40 -12 -56 9 -21
26 -138 158 -159 179 -12 13 -12 16 0 24 8 5 23 9 34 10 11 0 29 2 40 5 11 2
45 7 75 10 30 4 57 8 59 10 7 6 331 -3 369 -10z m-847 -153 c13 -16 61 -70
106 -122 l81 -94 -101 -61 c-176 -105 -335 -241 -420 -356 -22 -30 -42 -57
-43 -59 -2 -2 -34 29 -71 69 -38 41 -93 101 -125 134 l-56 60 20 26 c69 89
213 219 331 299 74 50 224 130 243 131 6 0 21 -12 35 -27z m454 -515 c39 -45
77 -88 86 -97 74 -75 148 -174 168 -226 13 -33 30 -73 37 -90 47 -111 296
-756 293 -759 -2 -2 -47 16 -99 39 -52 24 -239 107 -415 184 -258 114 -326
148 -351 176 -18 19 -81 88 -142 152 -184 196 -212 227 -212 235 0 4 17 34 37
65 65 103 214 234 373 328 36 21 79 47 95 57 17 10 37 18 45 18 8 -1 47 -37
85 -82z m-990 -419 c3 -9 -3 -32 -14 -50 -73 -126 -168 -431 -186 -599 -3 -25
-9 -76 -13 -115 -13 -123 -7 -349 14 -505 8 -54 6 -52 -35 25 -67 126 -135
318 -161 454 -22 118 -25 156 -24 331 1 149 5 205 22 287 27 126 69 254 117
358 l37 79 119 -124 c65 -69 121 -132 124 -141z m306 -320 c51 -56 105 -114
118 -128 99 -108 163 -170 193 -184 19 -9 70 -32 114 -50 43 -19 104 -46 134
-60 30 -13 183 -81 340 -150 420 -184 406 -178 389 -191 -8 -6 -42 -32 -74
-57 -282 -218 -626 -394 -964 -494 -149 -44 -294 -77 -345 -79 l-38 -1 -28 93
c-15 50 -26 92 -24 92 2 0 -1 11 -6 26 -6 14 -12 37 -15 52 -3 15 -7 38 -10
52 -12 50 -34 207 -40 280 -7 83 -7 281 0 320 2 14 6 48 9 75 7 66 25 162 37
201 5 17 11 40 13 50 11 56 86 254 97 254 3 0 48 -46 100 -101z"/>
<path d="M4823 5435 c-55 -23 -82 -72 -88 -156 -3 -41 -8 -110 -11 -154 -4
-44 -7 -97 -8 -117 0 -21 -4 -38 -9 -38 -6 0 -46 36 -91 79 -204 199 -224 213
-291 204 -72 -11 -118 -71 -112 -147 4 -48 8 -53 105 -148 l100 -98 -41 6
c-23 3 -66 10 -96 15 -115 19 -168 6 -209 -52 -23 -34 -22 -117 3 -151 31 -41
76 -55 263 -82 96 -13 176 -26 178 -29 2 -2 -60 -69 -140 -148 -151 -151 -161
-168 -146 -236 18 -76 92 -117 170 -94 36 11 62 33 231 198 l46 45 -2 -139
c-1 -86 2 -151 10 -173 23 -69 114 -100 189 -65 56 27 75 80 76 213 l0 63 48
-51 c40 -45 53 -53 93 -57 97 -11 168 67 147 161 -7 32 -70 128 -115 174 -25
26 -27 26 141 3 68 -9 90 -6 129 21 57 40 73 116 37 175 -26 44 -58 62 -125
73 -32 5 -59 11 -62 13 -2 2 27 24 64 48 87 57 111 81 119 123 17 92 -46 166
-141 166 -25 0 -64 -20 -156 -81 -67 -44 -128 -83 -135 -86 -10 -4 -12 6 -9
44 6 54 12 141 20 288 5 89 4 104 -14 132 -38 60 -106 84 -168 58z"/>
<path d="M2230 3041 c-38 -15 -70 -45 -83 -79 -13 -32 -28 -164 -31 -269 0
-18 -3 -33 -7 -33 -3 0 -34 41 -70 91 -113 161 -149 189 -224 175 -96 -18
-138 -130 -81 -216 13 -19 47 -67 75 -107 58 -83 71 -78 -112 -39 -59 13 -125
23 -146 22 -69 -4 -120 -53 -125 -123 -3 -42 6 -66 38 -102 29 -32 49 -39 196
-67 75 -14 275 -57 278 -59 1 -1 -50 -44 -115 -95 -144 -113 -160 -129 -171
-171 -19 -76 27 -150 105 -167 54 -12 80 0 201 97 49 39 92 71 95 71 3 0 4 -9
2 -21 -2 -11 -7 -69 -10 -127 -6 -96 -4 -110 14 -139 58 -91 179 -90 233 3 16
27 25 87 27 168 1 27 5 23 54 -45 29 -41 68 -84 87 -96 82 -56 188 -2 203 102
5 35 -7 67 -42 115 -65 89 -131 190 -123 190 4 0 53 -10 107 -22 167 -37 234
-28 274 35 21 33 24 93 6 131 -27 57 -47 65 -284 114 l-33 7 86 68 c48 38 93
82 101 97 52 101 -36 219 -146 195 -28 -6 -129 -77 -189 -132 -14 -13 -28 -23
-32 -23 -5 0 -6 26 -4 58 14 181 19 239 21 260 4 35 -34 101 -68 119 -33 17
-84 23 -107 14z"/>
</g>
</svg>
