<svg xmlnsRdf="http://www.w3.org/1999/02/22-rdf-syntax-ns#" 
xmlns="http://www.w3.org/2000/svg" 
height="150" 
width="150" 
version="1.1" 
viewBox="0 0 150 150">
	<g transform="translate(0 -902.36)">
		<path style="color-rendering:auto;text-decoration-color:#000000;color:#000000;isolation:auto;mix-blend-mode:normal;shape-rendering:auto;solid-color:#000000;block-progression:tb;text-decoration-line:none;image-rendering:auto;white-space:normal;text-indent:0;text-transform:none;text-decoration-style:solid" fill="#000200" d="m96.845 931.28-21.275 28.724 7.8987-0.0332 13.011-17.566 11.234 17.461 7.5036-0.0317-18.373-28.554zm-51.329 0.14241-21.668 0.22549 10.711 15.578 10.957-15.803zm18.809 0 9.3908 14.382 11.185-13.197-20.576-1.1849zm62.493 0.93342-18.865 0.19526 8.2142 12.701 10.651-12.896zm10.782 1.1217-21.869 26.352 8.2512-0.0348 13.398-16.145 0.22011 0.35618v-10.528zm-83.686 0.9956-17.909 25.699 7.7346-0.0332 10.365-14.874 11.1 14.782 7.8875-0.0332-19.178-25.54zm-39.358 0.3516-2.1536 3.0291v10.92l2.0534-2.889 9.8084 14.339 7.6438-0.0332-17.352-25.365zm56.407 26.582a1.7037 1.7037 0 0 0 -1.1814 0.49179c-6.6292 6.3629-13.206 9.6815-19.805 10.03-6.5998 0.34827-13.407-2.2434-20.601-8.3152a1.7037 1.7037 0 1 0 -2.1975 2.6039c7.6444 6.4521 15.357 9.5157 22.978 9.1136 7.6212-0.40208 14.968-4.2389 21.985-10.974a1.7037 1.7037 0 0 0 -1.1779 -2.9495zm53.144 0.4641a1.7038 1.7038 0 0 0 -0.88564 3.1327c4.7445 3.0786 9.5314 5.6162 14.379 7.0673v-3.5821c-4.0911-1.3657-8.2774-3.5883-12.525-6.344a1.7038 1.7038 0 0 0 -0.9687 -0.2739zm-31.073 1.9928c-3.4659-0.0285-6.8062 1.032-10.394 3.0938-3.8266 2.1993-8.012 5.5234-13.344 10.07-10.348 8.8229-15.677 8.311-24.17 7.864-7.7268-0.40666-17.38-6.4347-22.638-9.7912-3.1432-2.0061-6.3912-3.4397-10.087-4.4921v3.5432c3.0096 0.93452 5.6515 2.1594 8.2539 3.8205 5.245 3.3479 15.035 9.8347 24.292 10.322 8.4914 0.44701 15.676 0.60493 26.559-8.6739 5.2834-4.5048 9.3671-7.7172 12.831-9.7082 3.4644-1.9909 6.2322-2.7738 9.22-2.6245 6.082 0.30413 17.368 4.4846 23.805 7.6488 5.5836 2.7444 14.699 6.0377 20.237 7.6265v-3.5848c-5.2939-1.6235-13.858-4.7027-18.734-7.0991-6.7477-3.3167-17.811-7.6275-25.137-7.9938-0.23244-0.0158-0.46394-0.019-0.69496-0.0206zm6.6224 16.602c-7.3485 0.0807-14.711 2.8259-21.966 8.1726a1.7037 1.7037 0 1 0 2.0214 2.743c7.2768-5.3628 14.322-7.7522 21.286-7.4908s13.95 3.1905 21.043 8.8709a1.7037 1.7037 0 1 0 2.1303 -2.6591c-7.5014-6.0078-15.21-9.3225-23.045-9.6166-0.48973-0.019-0.9793-0.0253-1.469-0.0206zm-87.254 3.2952v3.7489c2.2358 1.1782 4.4842 2.8234 6.7634 5.0062a1.7037 1.7037 0 1 0 2.3564 -2.4604c-2.9669-2.8417-6.0194-4.925-9.1198-6.2947zm0 10.823v11.213l3.3237 4.1351 9.5649-15.115-12.889-0.23339zm62.667 0.2057-18.256 28.628h7.5036l11.164-17.507 13.082 17.513h7.8987l-21.392-28.637zm11.463 0.24969 10.156 14.004 10.451-13.631-20.607-0.37343zm-40.619 0.15191 10.552 12.977 8.3117-12.637-18.863-0.34052zm-12.12 1.3274-16.49 26.89h7.4205l9.864-16.084 13.463 16.09h8.2514l-22.509-26.899zm92.528 0.12658 10.835 15.887 0.44401-0.6351v-15.048l-11.279-0.20393zm-8.3066 1.1658-19.074 25.618h7.8873l11.04-14.827 10.427 14.832h7.7343l-18.014-25.626zm-105.61 23.985v1.6116h1.3336l-1.3336-1.6116z" fill-rule="evenodd"/>
	</g>
</svg>
