<svg xmlnsRdf="http://www.w3.org/1999/02/22-rdf-syntax-ns#" 
xmlns="http://www.w3.org/2000/svg" height="150" width="150" version="1.1" 
xmlnsCc="http://creativecommons.org/ns#" xmlnsXlink="http://www.w3.org/1999/xlink" 
viewBox="0 0 150 150" xmlnsDc="http://purl.org/dc/elements/1.1/">
	<g transform="translate(0 -902.36)">
		<path style="color-rendering:auto;text-decoration-color:#000000;color:#000000;isolation:auto;mix-blend-mode:normal;shape-rendering:auto;solid-color:#000000;block-progression:tb;text-decoration-line:none;text-decoration-style:solid;image-rendering:auto;white-space:normal;text-indent:0;text-transform:none" d="m89.65 914.01c-1.9093-0.0991-3.7367-0.0704-5.4648 0.0631-6.9711 0.5409-12.657 2.784-16.946 5.6435-9.2482 6.1663-12.632 15.315-13.428 22.803-0.7339 6.8945-1.1737 13.842-0.55556 19.585 0.2052 1.9056 0.53072 3.7077 1.0238 5.3757l-0.0272-0.1345c0.46983 3.3875 0.951 5.1907 1.3634 8.6994 0.47112 4.5048-0.3037 8.1911-2.0473 12.992-1.5377 4.2334-4.0645 9.7588-7.0375 12.899-1.5359 1.6226-3.4779 2.9209-5.7415 3.4109-2.2636 0.4901-4.878 0.2046-7.9022-1.4897-2.9151-1.6333-6.1226-4.6682-8.6101-9.4008-2.4635-4.6877-4.2562-11.193-3.766-18.91 0.0286-0.43308 0.0617-0.863 0.0976-1.2894a0.92068 0.92068 0 0 0 -1.749 -0.4747c-0.15001 0.31567-0.29724 0.63388-0.44212 0.95399-0.85266 1.8816-4.7754 9.4866-4.2104 20.59 0.28834 5.6604 1.7554 12.55 5.5956 19.67 3.8174 7.0786 10.108 14.531 19.529 20.182 0.57811 0.3468 1.1621 0.6777 1.749 0.9932a0.92068 0.92068 0 0 0 0.0574 0.029c11.537 5.1972 22.223 4.0302 29.74 0.49 8.0613-3.7968 12.884-10.241 15.504-16.157 2.6338-5.9475 4.9301-12.349 6.2708-16.856 1.3819-4.6464 2.6029-9.8482 1.6553-14.356a0.92068 0.92068 0 0 0 0.0345 -0.39431c-0.20721-1.5789-0.32741-2.9862-0.89746-5.4212-0.5768-2.4665-1.2013-4.294-1.982-6.9896-0.71178-2.4583-1.2652-4.7271-1.4376-7.1724-0.16728-2.3754 0.0272-4.95 0.73204-8.0001 0.68766-2.9746 1.9378-6.2722 4.097-8.7865 2.1809-2.5393 5.4291-4.4902 10.011-4.3867 4.4842 0.10127 10.259 2.3379 15.292 7.9088 4.9676 5.4984 8.9569 14.177 8.6209 24.767-0.0142 0.3891-0.0272 0.77756-0.0475 1.1632a0.92068 0.92068 0 0 0 1.749 0.44416c0.13355-0.28039 0.26507-0.56315 0.3943-0.84718 3.6023-7.9147 5.0537-18.871 1.9582-30.578-3.1066-11.748-10.31-22.218-20.198-29.496 0 0 0-0.0142-0.0142-0.0142a0.92068 0.92068 0 0 0 -0.069 -0.0617h-0.0142a0.92068 0.92068 0 0 0 -0.0142 0 0.92068 0.92068 0 0 0 -0.0532 -0.0388h-0.0142l-0.0201-0.0142c-0.0142 0-0.0187-0.0142-0.0272-0.0158-1.2289-0.83571-2.4725-1.6137-3.7291-2.3328 0 0-0.0142-0.0142-0.0158-0.0142a0.92068 0.92068 0 0 0 -0.0617 -0.0331c-6.7702-3.2338-13.239-4.6877-18.967-4.9857zm0.20477 2.2936c5.3261 0.30082 11.368 1.6692 17.728 4.6982 1.2224 0.698 2.436 1.4524 3.633 2.2673 9.1765 6.7207 16.015 16.427 19.124 27.39 2.5516 8.9975 2.1625 17.492 0.2352 24.438-1.0103-8.8829-4.6662-16.249-9.2657-21.145-5.4411-5.792-11.687-8.1889-16.743-8.2332-5.2289-0.0459-9.097 2.3263-11.564 5.3168-2.4337 2.9509-3.7077 6.6197-4.4238 9.8429-0.72443 3.2612-0.94757 6.0776-0.77539 8.6646 0.17776 2.6645 0.76491 5.0801 1.4921 7.573 0.78933 2.7064 1.4023 4.4869 1.9559 6.8219 0.54365 2.292 0.65651 3.5835 0.86041 5.1991a0.92068 0.92068 0 0 0 0 0.0222 0.92068 0.92068 0 0 0 0.0142 0.34621c0.85496 3.8948-0.28703 8.9716-1.7207 13.626-1.3745 4.4618-3.7307 10.789-6.4232 16.664-2.547 5.5574-7.1289 11.494-14.659 14.931-6.9588 3.176-16.679 4.1412-27.205-0.564-0.58929-0.3153-1.176-0.6467-1.7554-0.9954-8.9155-5.367-14.855-12.402-18.468-19.052-3.6382-6.6951-5.0514-13.158-5.3604-18.47-0.37205-6.3951 0.72313-10.769 1.8602-14.131 0.48734 5.7811 2.1088 10.77 4.2298 14.634 2.7191 4.9548 6.2013 8.2242 9.4986 10.026 3.4732 1.8977 6.6898 2.2534 9.4443 1.6097s5.0175-2.2513 6.7391-4.134c3.3226-3.6341 5.8004-9.4196 7.3772-13.829 1.7906-5.0074 2.685-9.1532 2.1694-13.979a0.92068 0.92068 0 0 0 0 -0.0158c-0.42345-3.5337-0.89946-5.2616-1.3417-8.4859a0.92068 0.92068 0 0 0 -0.0302 -0.14241c-0.48562-1.607-0.8008-3.4006-0.98676-5.3364-0.53028-5.5247-0.0142-12.471 0.81028-19.315 0.85323-7.0892 4.1011-15.502 12.748-21.13 3.9871-2.5951 9.2453-4.6221 15.724-5.0859 1.6043-0.11488 3.3028-0.13355 5.0816-0.0331zm-49.9 29.078c-0.27843-0.0997-0.52124-0.0158-0.73849 0.11076-0.21726 0.11867-0.4203 0.29542-0.58816 0.51837-0.56619 0.74892-1.071 1.5357-1.5877 2.3154 0.0459-0.46362 0.0761-0.92266 0.13639-1.3898 0.0187-0.12975 0.0142-0.26299-0.0416-0.39432-0.0546-0.13292-0.17044-0.25317-0.30498-0.30935-0.26911-0.11234-0.52312-0.0253-0.75803 0.11393-0.47127 0.27897-0.8373 0.74022-0.8864 1.272-0.0976 0.91981-0.14415 1.8293-0.18078 2.7357-0.67388-0.37328-1.3486-0.74528-2.0278-1.1108-0.26967-0.15665-0.53891-0.0633-0.74496 0.0585-0.16915 0.0997-0.31632 0.26378-0.45734 0.43784a0.36292 0.36292 0 0 0 -0.0976 0.0933c-0.18379 0.2584-0.3011 0.52518-0.33973 0.78626-0.0187 0.13134-0.0187 0.26267 0.0244 0.40081 0.043 0.13766 0.15317 0.2883 0.31145 0.35935 0.61013 0.29827 1.215 0.60397 1.8209 0.90826-0.63812 0.35871-1.276 0.72012-1.9102 1.1217-0.0919 0.0601-0.18336 0.12184-0.2744 0.18292-0.46094 0.28894-0.75343 0.8206-0.79508 1.3679-0.0215 0.27327 0.0416 0.57185 0.305 0.7274 0.26391 0.15507 0.56576 0.057 0.77971-0.10127 0.47155-0.33071 0.94655-0.64987 1.4267-0.95621 0.23163-0.14399 0.46481-0.27184 0.69701-0.40935-0.0804 0.17485-0.16658 0.34669-0.24411 0.52265-0.38569 0.90256-0.73662 1.8118-1.0541 2.7248-0.00028 0.00079 0.00014 0.001 0 0-0.0976 0.26393-0.13212 0.51521-0.0775 0.75572 0.0272 0.12026 0.0818 0.24431 0.18293 0.34637 0.1019 0.10127 0.2589 0.16852 0.40723 0.16979 0.29479 0 0.49367-0.16029 0.65994-0.34179 0.16643-0.18149 0.30169-0.41109 0.38785-0.66869 0.27282-0.76443 0.57021-1.5265 0.893-2.2828 0.0704-0.16014 0.14811-0.31742 0.21998-0.47692 0.0258 0.31235 0.0388 0.62914 0.0718 0.9388 0.0991 0.90684 0.22917 1.7956 0.38985 2.6637 0.0473 0.24732 0.25128 0.4959 0.51176 0.53815 0.26047 0.0411 0.48562-0.0696 0.67086-0.23308 0.36932-0.32358 0.59591-0.79164 0.52282-1.2809-0.056-0.35097-0.10491-0.70478-0.15032-1.0629-0.10633-0.81838-0.1591-1.6558-0.20477-2.496 0.59534 0.31457 1.1905 0.62898 1.7817 0.94956 0.25345 0.13766 0.52081 0.068 0.72098-0.0427 0.20016-0.11234 0.37219-0.2807 0.51177-0.4921 0.13925-0.21172 0.22501-0.43609 0.2418-0.66442 0.0172-0.22849-0.0546-0.51458-0.30283-0.66221-0.61659-0.36568-1.2386-0.7255-1.86-1.0847 1.0446-0.45571 2.0921-0.8899 3.1365-1.2371 0.48363-0.14399 0.84893-0.54258 0.99094-1.0258 0.0718-0.2432 0.0617-0.52501-0.13212-0.72771-0.19471-0.20238-0.49684-0.21757-0.74066-0.1345-1.2033 0.37058-2.4085 0.86807-3.6134 1.3744 0.75215-1.216 1.5204-2.424 2.3958-3.5677 0.16499-0.21457 0.2754-0.43356 0.30284-0.67313 0.0142-0.11867 0.0142-0.25159-0.0546-0.38118-0.0617-0.12975-0.18839-0.24463-0.32667-0.294zm-0.44011 0.79496c-0.023 0.0427-0.0187 0.0617-0.0574 0.11076-1.1207 1.464-2.146 2.989-3.0668 4.5698a0.36292 0.36292 0 0 0 0.46394 0.5141c1.5-0.68388 3.0016-1.2458 4.4999-1.7121-0.10191 0.18086-0.31002 0.42185-0.42905 0.45729a0.36292 0.36292 0 0 0 -0.0142 0c-1.2982 0.43103-2.5999 0.94165-3.8967 1.5377a0.36292 0.36292 0 0 0 -0.0286 0.64481c0.83643 0.47913 1.6683 0.96395 2.4962 1.455-0.0546-0.0317-0.0445-0.0791-0.0503-0.0158 0 0.0665-0.043 0.19241-0.12343 0.31583-0.0818 0.12342-0.18853 0.21647-0.26133 0.25697-0.0718 0.0396-0.0733 0.0158-0.0201 0.0411-0.78789-0.42707-1.5789-0.84876-2.3742-1.2654a0.36292 0.36292 0 0 0 -0.53144 0.33546c0.0388 1.0855 0.12484 2.1559 0.26134 3.2083 0.0459 0.36409 0.0976 0.72645 0.15459 1.0847 0.0158 0.10285-0.11915 0.48372-0.28316 0.62723-0.0142 0-0.00058-0.00031-0.0142 0-0.14937-0.81854-0.27483-1.6529-0.36816-2.5069-0.0818-0.75572-0.13782-1.5205-0.17203-2.2936a0.36292 0.36292 0 0 0 -0.68838 -0.14399c-0.28661 0.58135-0.5603 1.1682-0.81891 1.7622-0.32983 0.77266-0.6341 1.5497-0.91267 2.3305-0.0489 0.14558-0.13355 0.27644-0.21338 0.37248 0.0142-0.057 0-0.0823 0.0244-0.15665 0.31231-0.8986 0.65722-1.7929 1.0367-2.6813 0.23018-0.5228 0.47127-1.0401 0.72313-1.5529a0.36292 0.36292 0 0 0 -0.50315 -0.47708c-0.57695 0.31979-1.1513 0.65699-1.725 1.0127-0.45245 0.28861-0.90147 0.58973-1.3462 0.89955 0.0674-0.25728 0.25874-0.61901 0.40076-0.70793a0.36292 0.36292 0 0 0 0.0142 0c0.0919-0.0617 0.18638-0.12184 0.27873-0.18292 0.8143-0.51568 1.6326-0.9964 2.4526-1.4398a0.36292 0.36292 0 0 0 -0.0142 -0.64258c-0.78473-0.39764-1.5735-0.79101-2.3654-1.1784-0.00014-0.0158 0-0.0158 0-0.0332 0.0158-0.10759 0.0877-0.29447 0.21352-0.47264 0.11203-0.15823 0.24484-0.27343 0.33544-0.32675 0.0905-0.0522 0.0948-0.0158 0.0142-0.0586a0.36292 0.36292 0 0 0 0.0142 0c0.84706 0.45587 1.6902 0.91744 2.5287 1.3853a0.36292 0.36292 0 0 0 0.54019 -0.30713c0.0286-1.076 0.1019-2.1665 0.21782-3.265 0.0142-0.13292 0.28503-0.56727 0.5336-0.71443 0 0-0.00059-0.00047 0 0-0.1163 0.90747-0.20865 1.8116-0.26349 2.7072a0.36292 0.36292 0 0 0 0.67086 0.2114c0.72814-1.179 1.5139-2.3252 2.3546-3.437 0.0905-0.11867 0.20433-0.20586 0.30699-0.27248zm74.01 54.814c-0.26651-0.07-0.50258 0.035-0.7036 0.1896-0.40018 0.3079-0.67072 0.7742-0.65334 1.2765 0.0373 1.0003 0.0142 2.019-0.0373 3.0428-0.92875-0.5122-1.8554-1.0268-2.7705-1.5575-0.2487-0.1619-0.52613-0.1029-0.73634 0-0.21007 0.1028-0.39603 0.2655-0.55097 0.4749-0.15507 0.2095-0.25631 0.4318-0.28316 0.6642-0.0272 0.232 0.0487 0.5361 0.30484 0.6818 0.00072 0.0005-0.00057 0 0 0 0.96049 0.6064 1.9339 1.1958 2.91 1.7818-1.5656 0.8137-3.1412 1.553-4.7265 2.1345-0.47213 0.1711-0.86113 0.5464-0.99983 1.0281-0.0704 0.2429-0.0331 0.5558 0.18954 0.7296 0.22128 0.1737 0.49741 0.155 0.7405 0.07 1.0148-0.3516 2.0222-0.8184 3.032-1.2589-0.7586 0.8204-1.5013 1.6572-2.3174 2.4197-0.20333 0.1875-0.35711 0.3946-0.44441 0.6187-0.043 0.1123-0.0733 0.2309-0.0661 0.3636 0.0142 0.1329 0.0617 0.2886 0.17648 0.3988 0.22817 0.2216 0.52353 0.1924 0.75787 0.1171 0.23363-0.074 0.46022-0.2154 0.66656-0.4116 1.3215-1.2383 2.5203-2.6025 3.694-3.9881-0.18222 1.1832-0.37334 2.3622-0.61198 3.5634-0.0272 0.1297-0.0302 0.2672 0.0201 0.4051 0.0503 0.1376 0.16773 0.2637 0.30285 0.3224 0.26994 0.1171 0.52367 0.038 0.76879-0.093 0.49008-0.2635 0.89012-0.7114 0.97801-1.2415 0.20562-1.1866 0.3986-2.3667 0.55541-3.5743 0.74409 0.4256 1.4905 0.8473 2.2433 1.2611 0.27325 0.1614 0.53977 0.066 0.75156-0.052 0.17246-0.097 0.32667-0.2567 0.47701-0.427a0.36292 0.36292 0 0 0 0.10475 -0.092c0.19915-0.2567 0.3327-0.5225 0.3854-0.7842 0.0272-0.1298 0.0359-0.2627 0-0.4051-0.0373-0.1424-0.14906-0.3026-0.3093-0.3768-0.73965-0.3698-1.4705-0.7513-2.202-1.1326 0.88524-0.5639 1.7663-1.1434 2.6355-1.7882 0.45446-0.3217 0.77768-0.8519 0.80139-1.4005 0.0142-0.1361-0.0142-0.2709-0.0761-0.4008-0.0646-0.1298-0.19371-0.2472-0.33975-0.292-0.29206-0.089-0.53804 0.038-0.75141 0.2114-0.69039 0.5352-1.3979 0.9857-2.0998 1.4659 0.2477-0.3862 0.51077-0.7597 0.74712-1.1545 0.15095-0.2468 0.24195-0.4963 0.25919-0.7427 0.0142-0.1234 0-0.2502-0.0503-0.3768-0.0487-0.1265-0.15175-0.258-0.29623-0.3267-0.28618-0.1361-0.55599-0.019-0.75572 0.1218-0.2006 0.1409-0.37492 0.3417-0.51622 0.5837-0.23076 0.3853-0.48347 0.7556-0.72543 1.1327 0-0.8587 0.0201-1.7208-0.0331-2.5637-0.0158-0.2565-0.18882-0.5418-0.45519-0.6121zm-0.26809 0.7776c0.0718 1.185 0.0891 2.3866 0.0459 3.6047a0.36292 0.36292 0 0 0 0.66211 0.2179c0.48635-0.7133 0.95302-1.4444 1.3983-2.189 0.0589-0.1013 0.12928-0.1567 0.19601-0.2242-0.0258 0.076-0.0301 0.1345-0.0818 0.2221-0.54839 0.9162-1.1266 1.8077-1.736 2.6769a0.36292 0.36292 0 0 0 0.48792 0.5161c1.1941-0.7446 2.3736-1.5701 3.5373-2.4656-0.0891 0.2271-0.2039 0.5091-0.36804 0.6252a0.36292 0.36292 0 0 0 -0.0142 0c-1.0258 0.7614-2.0652 1.4635-3.1125 2.1105a0.36292 0.36292 0 0 0 0.0215 0.6296c0.88811 0.4675 1.7834 0.9257 2.6836 1.3765-0.00072 0.016 0 0.016 0 0.029-0.0229 0.1076-0.10475 0.2957-0.24182 0.4747a0.36292 0.36292 0 0 0 -0.0142 0c-0.125 0.1603-0.26823 0.2797-0.36803 0.3354-0.10048 0.055-0.1163 0.016-0.0286 0.062a0.36292 0.36292 0 0 0 -0.0142 0c-0.90608-0.4978-1.8077-1.0053-2.701-1.5204a0.36292 0.36292 0 0 0 -0.5402 0.2744c-0.15791 1.373-0.39487 2.7011-0.63165 4.0666-0.0215 0.1361-0.33284 0.5731-0.60754 0.7209-0.0142 0-0.00058 0.0005-0.0142 0 0.30786-1.5538 0.60324-3.0915 0.79723-4.6566a0.36292 0.36292 0 0 0 -0.64257 -0.2725c-1.3766 1.717-2.8734 3.3292-4.4738 4.829-0.0775 0.074-0.14827 0.1-0.22444 0.144 0.043-0.06 0.0603-0.1092 0.12643-0.1698 1.2523-1.1702 2.4398-2.4096 3.5568-3.7136a0.36292 0.36292 0 0 0 -0.43336 -0.562c-1.4625 0.7123-2.937 1.3135-4.4129 1.8317 0.1163-0.1535 0.2507-0.3415 0.39645-0.3942 1.8198-0.6674 3.6339-1.4793 5.4256-2.4482a0.36292 0.36292 0 0 0 0.0142 -0.6316c-1.177-0.6991-2.3437-1.412-3.498-2.1411a0.36292 0.36292 0 0 0 -0.0158 -0.016c0.056 0.032 0.0517 0.096 0.0589 0.033 0.0142-0.063 0.0546-0.1919 0.1459-0.3158 0.0919-0.125 0.20848-0.2163 0.28762-0.2549 0.079-0.038 0.0761 0 0.0187-0.043a0.36292 0.36292 0 0 0 0.0172 0.016c1.1006 0.6383 2.2102 1.2636 3.3303 1.8752a0.36292 0.36292 0 0 0 0.53589 -0.2983c0.0747-1.2505 0.0919-2.4871 0.0459-3.7071 0-0.1266 0.18021-0.5117 0.36372-0.6623zm-26.353-93.07c-7.7383-0.17388-14.96 1.2994-21.158 3.9946-12.372 5.3801-19.176 14.725-20.581 22.829-1.6645 9.5989-0.0331 18.496 1.4985 24.46 0.30786 1.1981 0.63526 2.3526 0.96709 3.4479 1.1543 4.8163 1.7607 7.5949 1.7534 12.829-0.19787 2.8972-0.46251 5.2592-1.0107 7.6321-0.52972 2.2928-1.2872 4.3907-2.2738 6.214-1.9412 3.5876-4.8794 6.2798-8.7298 6.2839-3.65 0-8.8971-2.7937-11.799-10.344-2.7097-7.0507-3.0536-19.608 5.8568-30.151 0.27642-0.32707 0.55613-0.64796 0.84073-0.96506a0.75339 0.75339 0 0 0 -0.83196 -1.2067c-0.28691 0.11235-0.57438 0.22564-0.86027 0.34416-1.7431 0.72376-5.1805 2.8025-8.9151 6.9438-3.7625 4.1726-7.7756 10.446-10.115 18.832-2.339 8.3845-2.8167 18.375 0.12199 28.646 2.938 10.267 9.0961 19.951 18.237 27.152 2.6391 2.079 5.4196 3.9056 8.2919 5.4778a0.75339 0.75339 0 0 0 0.0546 0.025c17.524 7.8104 33.148 5.0571 43.098-0.5991 12.023-6.8341 16.655-17.554 17.357-25.503 0.65448-7.4069 2.5256-14.538 1.7425-21.905a0.75339 0.75339 0 0 0 0.21999 -0.5272c0-7.6683-3.2278-14.102-5.099-20.387-0.67732-2.2746-0.91052-4.869-0.28963-7.4514 0.57954-2.4091 2.1204-5.6304 5.833-7.7584v0a0.75339 0.75339 0 0 0 0.0517 -0.0301v0c1.8169-1.1333 4.1587-1.6632 7.0242-0.96712 2.8269 0.68673 6.2208 2.6484 9.2657 6.4167 3.0123 3.728 5.6973 9.315 6.3949 16.401 0.68866 6.9942-0.62362 15.608-5.7086 23.587-0.0661 0.1029-0.13355 0.2098-0.20262 0.3179a0.75339 0.75339 0 0 0 -0.0546 0.7124c0.0331 0.073 0.0617 0.1345 0.0877 0.1894 0.0934 0.2093 0.39171 0.4965 0.68177 0.5423 0.27341 0.043 0.38541-0.019 0.43121-0.035 0.17346-0.038 0.32481-0.09 0.48361-0.1612 0.33357-0.1456 0.74367-0.3658 1.2458-0.6774 0.99983-0.6201 2.4-1.6258 4.0055-3.0754 3.2383-2.9236 7.343-7.6974 10.59-14.681 3.2514-6.9926 5.4058-15.752 4.9073-25.471-0.49913-9.7317-3.645-19.515-9.6055-27.921-2.9184-4.1161-6.4871-7.9738-10.662-11.422a0.75339 0.75339 0 0 0 -0.122 -0.0832c-2.6583-2.1852-5.5373-4.1869-8.6144-5.9701a0.75339 0.75339 0 0 0 -0.0847 -0.0603 0.75339 0.75339 0 0 0 -0.0142 0 0.75339 0.75339 0 0 0 -0.0574 -0.0288c-8.2644-3.89-16.519-5.7112-24.258-5.8853zm0.26148 1.9625c7.3638 0.19213 15.227 1.9343 23.112 5.6326 7.7558 4.4651 14.101 10.288 18.754 16.813 5.6418 7.9129 8.7179 17.208 9.2722 26.549 0.55369 9.3301-1.4316 17.781-4.4957 24.536-3.0585 6.7431-6.9514 11.354-9.9866 14.155-0.98647 0.9106-1.6682 1.3545-2.4198 1.904 3.9244-7.6474 5.0272-15.565 4.2822-22.167-0.83971-7.4409-3.745-13.324-7.0441-17.292-3.3272-4.0014-7.0683-6.1459-10.326-6.8849-3.2861-0.74559-6.1291-0.0823-8.2854 1.3111-4.1564 2.4772-5.9519 6.2673-6.6127 9.0783-0.70504 2.9988-0.43595 5.9369 0.32008 8.4772 1.9155 6.4352 4.978 12.623 4.9726 19.721a0.75339 0.75339 0 0 0 -0.17203 0.5641c0.77626 7.126-1.2197 14.317-2.0147 22.077-0.76333 7.4484-5.2282 17.538-16.726 23.909-9.4342 5.2274-24.125 7.7219-40.693 0.3724-2.7968-1.5257-5.5043-3.3017-8.072-5.3277-8.586-6.7746-14.483-15.93-17.353-25.723-2.8717-9.8004-2.509-19.381-0.33544-27.455 2.0258-7.5259 5.4598-13.269 8.7364-17.209 1.7639-2.1213 3.4286-3.6501 4.905-4.8223-6.2371 10.184-5.8222 21.21-3.1277 28.117 3.2439 8.316 9.2317 11.655 13.746 11.583 4.6677-0.074 8.0873-3.4052 10.202-7.4077 1.0719-2.0282 1.8778-4.3302 2.4373-6.787 0.5804-2.5482 0.8594-5.051 1.0586-8.0197a0.75339 0.75339 0 0 0 0 -0.0506 0.75339 0.75339 0 0 0 0 -0.0158c0.0142-5.1943-0.61243-8.252-1.6552-12.89a0.75339 0.75339 0 0 0 -0.0142 -0.0475c-0.37118-1.261-0.73045-2.5987-1.0652-3.9881-1.4254-5.9189-2.8596-14.68-1.1305-23.892 1.3808-7.3559 7.7983-16.123 19.581-21.138 5.898-2.5106 12.773-3.8712 20.147-3.6788zm13.458 44.945a0.75339 0.75339 0 0 0 -0.23735 0.087c-0.0142 0-0.0142 0.0158-0.0158 0.0158-0.0142 0-0.0187 0.0158-0.0301 0.0222a0.75339 0.75339 0 0 0 -0.043 0.0301c-0.10633 0.0617-0.17518 0.144-0.27871 0.20697v-0.24827l0.60553-0.11076zm-78.592 10.383a0.36292 0.36292 0 0 0 -0.27871 0.12975c-0.0201 0.0237-0.0503 0.0585-0.0804 0.0965a0.36292 0.36292 0 0 0 -0.0142 0c-0.0142 0.0158-0.0142 0.0158-0.0172 0.0222a0.36292 0.36292 0 0 0 -0.0804 0.22643 0.36292 0.36292 0 0 0 0.16341 0.3027c0.0258 0.0174 0.0445 0.0285 0.0503 0.0332a0.36292 0.36292 0 0 0 0.55757 -0.19827c0.0215-0.0791 0.0317-0.13924 0.0388-0.172a0.36292 0.36292 0 0 0 -0.35065 -0.44669zm0 0.13134 0.25704 0.0775v0.2701l-0.10475 0.0554-0.35956-0.18086 0.37249-0.13134c-0.0345-0.0237-0.0589-0.038-0.0718-0.0459a0.36292 0.36292 0 0 0 -0.0934 -0.0459zm99.04-40.042a0.36292 0.36292 0 0 0 -0.0301 0 0.36292 0.36292 0 0 0 -0.0142 0 0.36292 0.36292 0 0 0 -0.0589 0.0142 0.36292 0.36292 0 0 0 -0.0142 0 0.36292 0.36292 0 0 0 -0.0345 0.0142 0.36292 0.36292 0 0 0 -0.0631 0.0331 0.36292 0.36292 0 0 0 -0.0215 0.0158 0.36292 0.36292 0 0 0 -0.0142 0 0.36292 0.36292 0 0 0 -0.0244 0.0215 0.36292 0.36292 0 0 0 -0.0142 0l-0.0416 0.043a0.36292 0.36292 0 0 0 0.24813 0.60553l-0.0589-0.0416h-0.0142l-0.0532-0.0459-0.0244-0.0201 0.1851-0.23751 0.22874 0.21352-0.20476 0.0891h-0.0934a0.36292 0.36292 0 0 0 0.20475 0.0142 0.36292 0.36292 0 0 0 0.11345 -0.0804l-0.0589 0.0631a0.36292 0.36292 0 0 0 0.0962 -0.61212l-0.0272-0.0201a0.36292 0.36292 0 0 0 -0.0891 -0.0546 0.36292 0.36292 0 0 0 -0.0302 -0.0142 0.36292 0.36292 0 0 0 -0.0345 -0.0142 0.36292 0.36292 0 0 0 -0.0775 -0.0142zm-68.181 12.152a0.36292 0.36292 0 0 0 -0.11345 0.0158c-0.24368 0.0704-0.48635 0.14352-0.72958 0.21782a0.36292 0.36292 0 0 0 -0.0473 0.0172c0 0.001-0.0201 0.0142-0.0302 0.0158-0.0142 0-0.0142 0-0.0272 0.0142a0.36292 0.36292 0 0 0 -0.14209 0.12343 0.36292 0.36292 0 0 0 -0.0589 0.17c-0.18007 1.2328-0.39532 2.3684-0.5336 3.6244-0.89601 1.1739-1.7332 2.3631-2.5048 3.5588a0.36292 0.36292 0 0 0 0.28086 0.55778c0.17029 0.0158 0.34017 0.0237 0.5119 0.038a0.36292 0.36292 0 0 0 0.33313 -0.16108c0.37061-0.56537 0.77886-1.1242 1.1742-1.686-0.14067 1.4792-0.28703 2.9501-0.35726 4.4369-0.73546 1.1774-1.4035 2.3567-2.0104 3.524a0.36292 0.36292 0 0 0 0.27441 0.52724c0.15143 0.0206 0.30442 0.038 0.45519 0.0617a0.36292 0.36292 0 0 0 0.37248 -0.18956c0.27843-0.52755 0.58915-1.0576 0.88653-1.5879 0.0142 0.44733 0.0215 0.91269 0.0172 1.2852-0.0142 1.2496-0.1106 2.3556-0.0718 3.6199-0.50099 0.98627-0.94987 1.9651-1.3503 2.9297-0.0187 0.0443-0.0331 0.0791-0.0388 0.0918a0.36292 0.36292 0 0 0 0.23735 0.49653c0.13212 0.0364 0.26665 0.0712 0.39862 0.10918a0.36292 0.36292 0 0 0 0.43566 -0.21551c0.0142-0.0285 0.0244-0.0633 0.0345-0.087 0.15048-0.35919 0.3231-0.72107 0.48147-1.0825 0.0187 0.14557 0.043 0.32153 0.0517 0.44875 0.0919 1.1587 0.21783 2.3026 0.38339 3.4218-0.25515 0.69433-0.47973 1.372-0.67961 2.0365-0.13213 0.27295-0.26106 0.54495-0.38771 0.81474a0.36292 0.36292 0 0 0 0.19816 0.49432c0.12785 0.049 0.25588 0.0965 0.3834 0.14558a0.36292 0.36292 0 0 0 0.45963 -0.18292c0.12343-0.25982 0.24482-0.52375 0.36587-0.78626a0.36292 0.36292 0 0 0 0.0201 -0.0538c0.0142-0.0522 0.0316-0.10285 0.0459-0.15507 0.0503 0.21298 0.0919 0.4372 0.1421 0.6448 0.0172 0.14083 0.0345 0.27817 0.0503 0.41172 0.0674 0.588 0.14351 1.1673 0.21782 1.7425 0.0331 0.24273 0.0704 0.70271 0.10776 1.0258-0.37894 0.72138-0.77799 1.497-1.1545 2.2086a0.36292 0.36292 0 0 0 0.15459 0.4921c0.12058 0.0617 0.23965 0.12501 0.36157 0.18751a0.36292 0.36292 0 0 0 0.48577 -0.15507c0.0646-0.12342 0.2283-0.45207 0.39416-0.78626 0.12627 1.0841 0.25546 2.1725 0.3485 3.2629-0.18381 0.33371-0.36875 0.67518-0.55542 0.9975-0.25602 0.43578-0.5198 0.87741-0.78416 1.3068a0.36292 0.36292 0 0 0 0.10919 0.49211c0.1163 0.0775 0.23562 0.15348 0.35294 0.2288a0.36292 0.36292 0 0 0 0.5053 -0.11709c0.17921-0.29336 0.35238-0.58863 0.52699-0.88421 0.0142 0.35539 0.0317 0.7081 0.0388 1.0671 0.0244 0.95937-0.0142 1.9319-0.0617 2.936-0.48679 0.67755-0.99424 1.3369-1.5225 1.9145-0.0373 0.0396-0.0674 0.0728-0.0891 0.0981a0.36292 0.36292 0 0 0 0 0.49226c0.10048 0.11077 0.20189 0.21647 0.3027 0.32248a0.36292 0.36292 0 0 0 0.53358 0c0.0331-0.0364 0.0603-0.068 0.0877-0.0965a0.36292 0.36292 0 0 0 0.0142 0c0.19242-0.21456 0.35166-0.45666 0.5293-0.69275-0.0143 0.15507-0.0143 0.32391-0.0302 0.47486-0.13497 1.0553-0.34749 2.1352-0.60552 3.2128-0.69471 0.67724-1.4082 1.2951-2.1324 1.7554a0.36292 0.36292 0 0 0 -0.12342 0.47929c0.0775 0.144 0.15491 0.28704 0.23521 0.43119a0.36292 0.36292 0 0 0 0.51635 0.12659c0.32079-0.21061 0.59721-0.49939 0.89516-0.76443-0.11915 0.44986-0.22501 0.91332-0.37463 1.3307l0.0617-0.10918c-0.0875 0.10444-0.0976 0.21931-0.0832 0.16979v-0.0174c-0.35625 0.99086-0.7744 1.9692-1.2283 2.9123-0.79794 0.37095-1.6084 0.64215-2.433 0.78185a0.36292 0.36292 0 0 0 -0.28532 0.464c0.0546 0.1751 0.10775 0.3541 0.16557 0.5335a0.36292 0.36292 0 0 0 0.41168 0.244c0.42661-0.079 0.81847-0.2581 1.224-0.4073-0.25316 0.4815-0.49899 0.98-0.77742 1.3983-0.45202 0.6795-0.95948 1.2922-1.4921 1.895-0.97614 0.052-1.9632 0-2.9426-0.2482a0.36292 0.36292 0 0 0 -0.44428 0.403c0.0272 0.1972 0.0574 0.3957 0.0919 0.5945a0.36292 0.36292 0 0 0 0.27441 0.2918c0.61472 0.144 1.2108 0.1297 1.81 0.1455-0.39042 0.3686-0.77123 0.7578-1.1937 1.0499-0.00073 0.0005 0 0 0 0a0.36292 0.36292 0 0 0 -0.0142 0c-0.1588 0.1219-0.32595 0.2304-0.50098 0.3266a0.36292 0.36292 0 0 0 -0.0142 0.016c-0.63267 0.3844-1.35 0.63225-2.1062 0.86905-1.0758-0.49435-2.1286-1.1142-3.1124-1.8926a0.36292 0.36292 0 0 0 -0.58385 0.2394c-0.0215 0.1828-0.0459 0.3678-0.0674 0.5554a0.36292 0.36292 0 0 0 0.1364 0.3292c0.58269 0.45365 1.2065 0.76505 1.8209 1.1108-0.75988 0.093-1.5051 0.2293-2.3371 0.1187-0.59662-0.079-1.2435-0.2838-1.9102-0.5032-1.1775-1.1938-2.2434-2.5198-3.1254-3.9596a0.36292 0.36292 0 0 0 -0.60567 -0.022c-0.0891 0.125-0.17863 0.2519-0.26779 0.3788a0.36292 0.36292 0 0 0 -0.0142 0.3987c0.47672 0.7717 1.086 1.4255 1.6553 2.1169-0.51162-0.2818-1.0202-0.4813-1.5313-0.8493-0.65047-0.4683-1.2972-1.0073-1.9299-1.6163-0.56848-0.5465-1.1212-1.1737-1.664-1.8404-0.71781-1.8203-1.2274-3.6548-1.5422-5.4495a0.36292 0.36292 0 0 0 -0.35282 -0.30064c-0.13782 0-0.27627 0-0.41598-0.0158a0.36292 0.36292 0 0 0 -0.36588 0.4247c0.11915 0.68958 0.37751 1.3858 0.56189 2.0801-1.1414-1.954-2.1629-4.0755-2.8555-6.4952a0.36292 0.36292 0 0 0 -0.0142 -0.0506c-0.0142-0.0396-0.0258-0.11076-0.043-0.18513-0.0704-2.1887-0.0546-4.3978 0.0158-6.5952a0.36292 0.36292 0 0 0 -0.28531 -0.36615c-0.1364-0.0301-0.27053-0.0585-0.40522-0.0886a0.36292 0.36292 0 0 0 -0.44212 0.34194c0 0.13291 0 0.27089-0.0142 0.40508-0.0187-0.19305-0.0747-0.37628-0.0891-0.57059-0.18021-2.4539-0.0875-4.9532 0.2286-7.4492 0.40666-1.9588 0.87003-3.943 1.3636-5.9224 0.0388-0.1595 0.0818-0.32027 0.12343-0.48341a0.36292 0.36292 0 0 0 -0.31793 -0.45302c-0.0733 0-0.14747-0.0158-0.22227-0.0206a0.36292 0.36292 0 0 0 -0.0775 0c0.0272 0 0.0142 0.00016-0.0473-0.0158a0.36292 0.36292 0 0 0 -0.44011 0.26789c-0.0272 0.11076-0.0532 0.22073-0.0804 0.33118a0.36292 0.36292 0 0 0 -0.0416 0.0997c-0.0215 0.0854-0.0589 0.20111-0.0934 0.32232-0.0388 0.049-0.079 0.0997-0.11773 0.14557-0.59217 0.73594-1.3752 1.6374-1.9931 2.4222a0.36292 0.36292 0 0 0 -0.0345 0.0522l-0.0142 0.0222-0.0142 0.0206c-0.47989 0.69654-0.93537 1.4197-1.3831 2.152-0.55957 0.21678-1.125 0.44764-1.6924 0.71427-0.49181 0.23102-0.98346 0.48198-1.4767 0.75382a0.36292 0.36292 0 0 0 -0.18738 0.31789c0 0.34115 0.0142 0.67313 0.0142 0.99545a0.36292 0.36292 0 0 0 0.5445 0.31583c0.47213-0.26931 0.94255-0.51948 1.4135-0.74923 0.0142 0 0.0158 0 0.0244-0.0158-0.0473 0.0902-0.0976 0.18086-0.14605 0.27232-0.49583 0.94466-0.96595 1.9248-1.4069 2.9362-0.79692 1.8257-1.4819 3.7731-2.0627 5.8067-0.89415 0.80952-1.7728 1.727-2.6181 2.7705a0.36292 0.36292 0 0 0 -0.069 0.31362c0.0804 0.33371 0.1627 0.66616 0.24841 0.99766a0.36292 0.36292 0 0 0 0.63597 0.13292c0.35598-0.45208 0.73922-0.82472 1.113-1.2243-0.35524 1.6143-0.69786 3.242-0.88424 4.9704-0.15852 1.4702-0.1565 2.9878-0.17646 4.4936-0.66656 1.4285-1.261 3.0282-1.7207 4.8223a0.36292 0.36292 0 0 0 0.0316 0.2656c0.16384 0.2945 0.33098 0.5887 0.49884 0.88a0.36292 0.36292 0 0 0 0.66641 -0.096c0.1805-0.7439 0.44456-1.3656 0.67732-2.0344 0.0589 1.4101 0.0847 2.8108 0.31145 4.2822 0.38699 2.5136 1.0996 5.0703 1.9342 7.6321a0.36292 0.36292 0 0 0 -0.0617 0.2025c0.0142 1.026 0.0631 2.108 0.18522 3.2432 0.0934 0.8568 0.22401 1.7458 0.39861 2.6661a0.36292 0.36292 0 0 0 0.11773 0.2047c0.2342 0.2076 0.46753 0.4127 0.70345 0.6163a0.36292 0.36292 0 0 0 0.59461 -0.3463c-0.14209-0.7045-0.24008-1.3749-0.33097-2.0408 1.5043 3.472 3.4709 6.8949 5.9069 10.174 0 0 0.0142 0.016 0.0142 0.017 1.0171 2.2697 2.3416 4.6775 4.0904 7.1527a0.36292 0.36292 0 0 0 0.196 0.1393c0.23938 0.068 0.47945 0.1345 0.71882 0.2003a0.36292 0.36292 0 0 0 0.39 -0.5619c-0.60538-0.8423-0.97858-1.6339-1.4725-2.4548 0.9286 1.0245 1.7814 2.0906 2.8229 3.045 2.261 2.0723 4.7243 3.9684 7.3577 5.6588h0.0142a0.36292 0.36292 0 0 0 0.0416 0.033c0.16972 0.1092 0.32781 0.1957 0.48362 0.2874a0.36292 0.36292 0 0 0 0.0473 0.054c0.78302 0.7003 1.6229 1.3959 2.5178 2.0823a0.36292 0.36292 0 0 0 0.0244 0.017c1.7244 1.1198 3.5835 2.1634 5.552 3.106a0.36292 0.36292 0 0 0 0.4052 -0.063c0.10776-0.1 0.21281-0.2015 0.32007-0.3027a0.36292 0.36292 0 0 0 -0.0919 -0.5926c-1.0331-0.4924-1.8997-1.0842-2.8404-1.6334 3.464 1.1932 6.8502 2.0206 9.9845 2.3371h0.0142c1.0412 0.3193 2.0932 0.6057 3.1539 0.8558 2.095 0.4963 4.2157 0.8599 6.3469 1.0912a0.36292 0.36292 0 0 0 0.3834 -0.4791c-0.0473-0.1408-0.0934-0.2821-0.1421-0.4269a0.36292 0.36292 0 0 0 -0.30485 -0.2461c-1.1991-0.1329-2.3772-0.4001-3.5634-0.6187 0.83025-0.035 1.7119 0 2.5025-0.084 2.3296-0.2415 4.4725-0.7002 6.469-1.2676a0.36292 0.36292 0 0 0 0.0919 0.016c2.4403-0.016 4.8484-0.2035 7.2052-0.5576 0.1163-0.017 0.23061-0.038 0.34419-0.054a0.36292 0.36292 0 0 0 0.2026 -0.6122c-0.12342-0.125-0.24396-0.2512-0.36601-0.3768a0.36292 0.36292 0 0 0 -0.31591 -0.106c-0.11203 0.017-0.22458 0.035-0.33743 0.051-0.89847 0.1314-1.8246 0.1584-2.738 0.2353 0.17676-0.071 0.37147-0.1266 0.54464-0.2005 1.8625-0.8044 3.5638-1.725 5.1228-2.716 2.3055-0.5418 4.5418-1.24 6.689-2.0931a0.36292 0.36292 0 0 0 0.0459 -0.6536c-0.16728-0.095-0.33386-0.1897-0.49885-0.2852a0.36292 0.36292 0 0 0 -0.3136 -0.024c-1.0102 0.3942-2.0786 0.6837-3.13 1.0042 0.48547-0.3738 1.0097-0.7282 1.4573-1.1219 1.1703-1.0295 2.1331-2.1393 3.0558-3.2235a0.36292 0.36292 0 0 0 0.14605 -0.035c1.7953-0.8463 3.507-1.8009 5.1249-2.849a0.36292 0.36292 0 0 0 -0.0761 -0.6469c-0.18322-0.065-0.36702-0.1297-0.54882-0.196a0.36292 0.36292 0 0 0 -0.3202 0.035c-0.87535 0.5587-1.8183 1.0445-2.751 1.5421 1.0267-1.4262 2.0184-2.8615 2.7336-4.3213 0.8568-0.6211 1.6829-1.2665 2.4699-1.9386 0.59504-0.5019 1.1763-1.0122 1.7425-1.5291a0.36292 0.36292 0 0 0 -0.16124 -0.6208c-0.18423-0.043-0.36875-0.087-0.55111-0.1329a0.36292 0.36292 0 0 0 -0.32883 0.084c-0.56361 0.5073-1.1426 1.0052-1.7337 1.4962-0.0976 0.082-0.2052 0.1602-0.305 0.2418 0.19457-0.4938 0.38856-0.989 0.57294-1.4834 0.46452-1.246 0.95129-2.3364 1.3852-3.6157 1.0953-0.9965 2.1391-2.0144 3.1343-3.0384a0.36292 0.36292 0 0 0 -0.14827 -0.5967c-0.1557-0.051-0.31015-0.1028-0.46394-0.155a0.36292 0.36292 0 0 0 -0.37463 0.089c-0.47557 0.4834-0.97628 0.9601-1.4681 1.4396 0.0919-0.3413 0.1907-0.7064 0.2658-0.9407 0.33084-1.0339 0.72011-2.2484 1.0542-3.2957 1.0594-1.0785 2.0537-2.1483 3.0123-3.1952a0.36292 0.36292 0 0 0 -0.10048 -0.5663c-0.12785-0.067-0.25531-0.1329-0.38109-0.2003a0.36292 0.36292 0 0 0 -0.43796 0.074c-0.41928 0.4546-0.85192 0.9175-1.2741 1.3789 0.10475-0.3491 0.20834-0.6994 0.34405-1.1153 0.0215-0.065 0.0416-0.1297 0.0631-0.1938 0.37076-1.1197 0.75414-2.2251 1.0521-3.4392a0.36292 0.36292 0 0 0 0.0473 -0.041c0.81933-0.8683 1.5985-1.7338 2.3283-2.6008 0.0676-0.0811 0.13212-0.15955 0.196-0.23755a0.36292 0.36292 0 0 0 -0.0631 -0.5206c-0.10919-0.082-0.21928-0.1637-0.32682-0.2438a0.36292 0.36292 0 0 0 -0.49655 0.062c-0.0631 0.078-0.12643 0.1519-0.18939 0.2266-0.36804 0.4364-0.7655 0.87395-1.1523 1.3112 0.33199-1.9194 0.58055-3.8636 0.62952-5.6674 0.55497-0.8205 1.0508-1.6608 1.4702-2.5243a0.36292 0.36292 0 0 0 -0.15032 -0.47486c-0.11915-0.068-0.23851-0.13292-0.35726-0.20048a0.36292 0.36292 0 0 0 -0.50529 0.15902c-0.14067 0.29194-0.3195 0.57102-0.47471 0.85812-0.023-0.3665-0.0302-0.75558-0.0546-1.1042a0.36292 0.36292 0 0 0 -0.36372 -0.33767c-0.1307 0.001-0.26119 0-0.38985 0a0.36292 0.36292 0 0 0 -0.36157 0.38561c0.0258 0.43277 0.0172 0.89873 0.0302 1.3461-0.19974-0.3944-0.37896-0.7994-0.59463-1.185a0.36292 0.36292 0 0 0 -0.48779 -0.144c-0.1106 0.0585-0.21725 0.11551-0.32665 0.17216a0.36292 0.36292 0 0 0 -0.15697 0.49648c0.51434 0.9575 0.96565 1.9389 1.3918 2.9536 0.0445 0.1045 0.0877 0.2124 0.1307 0.3179a0.36292 0.36292 0 0 0 0.0142 0.021c-0.0775 1.3744-0.2889 2.8237-0.52483 4.2582-0.0775-0.2021-0.16542-0.3979-0.2418-0.6143-0.0489-0.1408-0.10332-0.2837-0.1481-0.4159a0.36292 0.36292 0 0 0 -0.50086 -0.2092c-0.14383 0.07-0.28862 0.1392-0.43351 0.2069a0.36292 0.36292 0 0 0 -0.19169 0.4444c0.0473 0.1424 0.0962 0.2837 0.14368 0.4269 0.2984 0.89345 0.61243 1.7666 0.94973 2.6182-0.30184 1.2233-0.71208 2.3286-1.1153 3.5046a0.36292 0.36292 0 0 0 -0.0142 0.035c0 0.016-0.0142 0.036-0.0142 0.035a0.36292 0.36292 0 0 0 0 0.016c-0.0142 0.035-0.0258 0.073-0.0388 0.1139-0.2342 0.6939-0.3999 1.2306-0.57723 1.7925-0.18624-0.4714-0.39201-0.9312-0.53575-1.4417a0.36292 0.36292 0 0 0 -0.49008 -0.2354c-0.18007 0.076-0.35898 0.1487-0.54019 0.2223a0.36292 0.36292 0 0 0 -0.21568 0.4291c0.28905 1.0941 0.64962 2.1128 1.0759 3.0929-0.3248 0.9783-0.64185 1.9226-0.9671 2.8969a0.36292 0.36292 0 0 0 -0.0416 0.084c-0.0158 0.046-0.0302 0.089-0.0459 0.1345-0.17777 0.531-0.37721 1.244-0.56633 1.884-0.42144-0.5691-0.8446-1.1329-1.2068-1.7446a0.36292 0.36292 0 0 0 -0.46609 -0.144c-0.20419 0.095-0.40824 0.1889-0.61415 0.281a0.36292 0.36292 0 0 0 -0.16771 0.5119c0.56259 0.9853 1.1958 1.9087 1.8839 2.7966-0.40205 1.0885-0.83928 2.0651-1.2807 3.2018-0.2421 0.6233-0.49138 1.2479-0.74927 1.8667-0.0487 0.1187-0.12342 0.2557-0.18508 0.379-0.0861-0.1488-0.16873-0.295-0.26148-0.4467-0.00073-0.001 0 0 0 0-0.23463-0.3942-0.46252-0.7937-0.68394-1.1958a0.36292 0.36292 0 0 0 -0.43996 -0.1677c-0.24224 0.085-0.48578 0.1722-0.7296 0.2549a0.36292 0.36292 0 0 0 -0.20476 0.5141c0.21295 0.4029 0.43652 0.7978 0.66224 1.1914 0 0 0 0.016 0.0142 0.016a0.36292 0.36292 0 0 0 0.0142 0.017 0.36292 0.36292 0 0 0 0.0142 0.017c0.27498 0.4658 0.54349 0.9367 0.80584 1.4113-0.83455 1.6352-1.9134 3.2509-3.1605 4.831-0.30227-0.639-0.5995-1.2758-0.94527-1.908a0.36292 0.36292 0 0 0 -0.40952 -0.1764c-0.27341 0.07-0.54608 0.1376-0.82108 0.2046a0.36292 0.36292 0 0 0 -0.23749 0.5228c0.47113 0.8938 0.90464 1.8046 1.309 2.727-0.90908 1.0348-1.8398 2.0769-2.9469 3.0254-0.80025 0.6858-1.7122 1.3263-2.6355 1.9624 0.0589-0.5965 0.13354-1.1926 0.12927-1.7925a0.36292 0.36292 0 0 0 -0.3811 -0.3593c-0.31505 0.016-0.62993 0.029-0.94542 0.038a0.36292 0.36292 0 0 0 -0.35064 0.3593c-0.0142 0.9847-0.0976 1.9792-0.26564 2.9797-1.4455 0.8741-3.0022 1.6922-4.7048 2.4025-0.79938 0.3335-1.6752 0.6126-2.5505 0.8951 0.20319-0.5247 0.42087-1.0469 0.55111-1.5834 0.0473-0.144 0.0646-0.2619 0.0818-0.342a0.36292 0.36292 0 0 0 -0.31805 -0.44c-0.33931-0.036-0.67804-0.073-1.0171-0.1155a0.36292 0.36292 0 0 0 -0.38553 0.2397c-0.0503 0.144-0.0676 0.2543-0.0877 0.3288-0.22085 0.8616-0.53459 1.7214-0.94742 2.568-1.8875 0.5017-3.9007 0.9025-6.0747 1.1044-1.3923 0.1298-2.8866 0.1314-4.3998 0.1045 0.59405-0.2877 1.2149-0.5657 1.7099-0.8909a0.36292 0.36292 0 0 0 -0.0674 -0.6424c-0.33528-0.1298-0.66857-0.2613-1.0018-0.3964a0.36292 0.36292 0 0 0 -0.33113 0.029c-0.70748 0.4478-1.5178 0.8633-2.4504 1.2241-0.40333 0.155-0.84259 0.2994-1.3025 0.4335-3.5413-0.3709-7.3595-1.2885-11.267-2.8338 0.97815 0.071 1.9592 0.144 2.7598 0.074a0.36292 0.36292 0 0 0 0.18279 -0.6557c-0.29063-0.2113-0.57953-0.4225-0.86672-0.638a0.36292 0.36292 0 0 0 -0.24411 -0.071c-0.71235 0.052-1.4981 0.054-2.3566 0-1.0883-0.1456-2.3026-0.4119-3.6309-0.8298-0.10333-0.063-0.20376-0.1187-0.28531-0.1721-2.539-1.6329-4.9153-3.4687-7.1028-5.4735-0.93234-0.8546-1.6963-1.8259-2.5397-2.7446 0.75013 0.5453 1.4968 1.1985 2.2456 1.6642a0.36292 0.36292 0 0 0 0.53789 -0.414c-0.0676-0.2231-0.13497-0.4451-0.2003-0.6663a0.36292 0.36292 0 0 0 -0.1546 -0.2047c-2.1514-1.3593-4.3447-3.0311-6.4906-5.0054-2.1737-2.9308-3.9251-5.9838-5.3342-9.0741 0.8044 1.0578 1.6336 2.0637 2.4852 3.0125a0.36292 0.36292 0 0 0 0.62735 -0.1765c0.0331-0.1758 0.0646-0.353 0.0976-0.5293a0.36292 0.36292 0 0 0 -0.0847 -0.3071c-0.81876-0.9212-1.6192-1.8967-2.3938-2.9251-0.88022-1.1698-1.7198-2.4088-2.5222-3.7028-0.87764-2.6059-1.5963-5.1939-2.0038-7.728-0.15111-0.9407-0.15617-1.8504-0.22442-2.7748 0.35582 1.0974 0.65593 2.224 1.0848 3.2802a0.36292 0.36292 0 0 0 0.49224 0.1917c0.125-0.059 0.24712-0.1156 0.37018-0.1743a0.36292 0.36292 0 0 0 0.18078 -0.4639c-0.98604-2.4316-1.7897-4.9856-2.4067-7.6256-0.00044-1.5966-0.0187-3.1765 0.1307-4.672 0.13497-1.3565 0.42603-2.6142 0.67086-3.9031 0.1364 1.4592 0.22802 2.9287 0.48793 4.3562a0.36292 0.36292 0 0 0 0.39416 0.29621c0.1364-0.0158 0.27325-0.0285 0.40952-0.0427a0.36292 0.36292 0 0 0 0.31 -0.18c-0.47989-2.6287-0.75487-5.3255-0.81891-8.059 0.54724-1.9784 1.2003-3.8682 1.956-5.6456 0.30125-0.70826 0.63324-1.3803 0.96279-2.0561-0.0142 0.0649-0.0274 0.12975-0.0373 0.19384-0.17705 1.0758-0.31921 2.1564-0.42704 3.2411a0.36292 0.36292 0 0 0 0.18092 0.35065c0.13355 0.076 0.2655 0.1519 0.39862 0.22643a0.36292 0.36292 0 0 0 0.54019 -0.28087c0.10191-1.0552 0.2365-2.1091 0.40507-3.1561 0.21883-1.3629 0.49669-2.7164 0.82767-4.0579 0.41727-0.69243 0.83499-1.3711 1.2742-2.0213l0.0143-0.0158c0-0.0158 0.0142-0.0158 0.0142-0.0158s0-0.0158 0.0142-0.0158c0.00044-0.00079 0 0 0 0 0.11915-0.15348 0.24067-0.30222 0.35941-0.45508-0.18006 0.99197-0.3953 1.9803-0.37032 3.0101a0.36292 0.36292 0 0 0 0.0244 0.12184c-0.25991 2.3673-0.33832 4.7419-0.16342 7.0833 0.0747 0.99624 0.31721 1.9298 0.48133 2.8947-0.13497-0.36426-0.35941-0.69908-0.4638-1.0717a0.36292 0.36292 0 0 0 -0.63826 -0.11867c-0.11488 0.15348-0.22962 0.30966-0.3419 0.46394a0.36292 0.36292 0 0 0 -0.0546 0.31361c0.52986 1.8461 1.3472 3.58 2.4198 5.1252 0.0142 0.0158 0.0142 0.0222 0.0229 0.0332 0.88783 2.987 2.2073 5.6042 3.7333 7.9002-0.64516-0.285-1.2816-0.5034-1.9559-1.0042a0.36292 0.36292 0 0 0 -0.57724 0.3072c0.0142 0.265 0.0142 0.5383 0.0258 0.8188a0.36292 0.36292 0 0 0 0.15017 0.2788c1.3937 1.0091 2.7573 1.6401 4.0296 1.9669 0.52769 0.6278 1.0643 1.2369 1.6314 1.773 0.68377 0.647 1.3841 1.2187 2.0887 1.7163 0.82135 0.58005 1.6451 0.97195 2.4658 1.3548-0.50429 0.2355-0.99394 0.5034-1.566 0.5793a0.36292 0.36292 0 0 0 -0.28547 0.501c0.10918 0.2593 0.22156 0.5179 0.33544 0.7733a0.36292 0.36292 0 0 0 0.38554 0.2112c1.2553-0.185 2.3424-0.6475 3.2736-1.2719 0.55973 0.1649 1.1296 0.3485 1.7142 0.4181 1.124 0.1329 2.151-0.016 3.1496-0.2048-0.27297 0.7948-0.53948 1.6015-0.91483 2.2914a0.36292 0.36292 0 0 0 0.0574 0.4227c0.17031 0.1789 0.34133 0.356 0.51405 0.5315a0.36292 0.36292 0 0 0 0.57941 -0.086c0.59978-1.1439 1.061-2.3792 1.4266-3.6308 0.698-0.2399 1.3973-0.481 2.043-0.8886 0.19903-0.1156 0.38943-0.2447 0.57064-0.3857l-0.0761 0.041s-0.0718-0.1744-0.10634-0.26355a0.36292 0.36292 0 0 0 0.043 -0.03l0.13925 0.25275c0.44858-0.32065 0.82408-0.72115 1.2198-1.1022-0.0674 0.719-0.12342 1.4456-0.23952 2.1344a0.36292 0.36292 0 0 0 0.16757 0.3704c0.16615 0.1013 0.33213 0.2035 0.49885 0.3027a0.36292 0.36292 0 0 0 0.54234 -0.2571c0.20735-1.3344 0.35998-2.702 0.4641-4.0186 0.50774-0.6016 1.0079-1.205 1.4592-1.9017 0.29321-0.4525 0.52885-0.9475 0.78201-1.4353 0.0962 0.7491 0.20303 1.4924 0.26793 2.2653a0.36292 0.36292 0 0 0 0.30054 0.3289c0.15048 0.024 0.30083 0.048 0.45088 0.07a0.36292 0.36292 0 0 0 0.41598 -0.3898c-0.122-1.3911-0.27498-2.7813-0.45302-4.0905 0.4569-0.97319 0.88351-1.974 1.246-2.997l-0.0631 0.11393c0.0891-0.10602 0.0976-0.23434 0.0891-0.19589 0.15032-0.4304 0.24956-0.8638 0.36817-1.3026 0.10618 0.48973 0.22846 0.95984 0.31145 1.4768a0.36292 0.36292 0 0 0 0.40078 0.3027c0.13639-0.0158 0.27282-0.0301 0.40938-0.0475a0.36292 0.36292 0 0 0 0.31374 -0.41821c-0.20318-1.2654-0.45963-2.4667-0.76893-3.6091 0.25013-1.0668 0.45949-2.135 0.5969-3.1887a0.36292 0.36292 0 0 0 0.0215 -0.0918v-0.0222-0.0158c0.0258-0.20587 0.0286-0.39195 0.0416-0.59243 0.21122 0.35919 0.43781 0.70778 0.62722 1.0956 0.0487 0.10285 0.0976 0.20491 0.14589 0.30713a0.36292 0.36292 0 0 0 0.47918 0.17849c0.12342-0.0554 0.2464-0.11235 0.37031-0.16773a0.36292 0.36292 0 0 0 0.1808 -0.48562c-0.0517-0.10918-0.1019-0.21551-0.15238-0.32026-0.46193-0.94371-0.96135-1.82-1.4921-2.6594 0.0445-0.96934 0.0733-1.9173 0.0517-2.8577-0.0142-0.40412-0.0317-0.80034-0.0475-1.198 0.22716 0.33023 0.45476 0.65999 0.67734 0.99782a0.36292 0.36292 0 0 0 0.46623 0.12342c0.11345-0.057 0.23075-0.11235 0.34634-0.16773a0.36292 0.36292 0 0 0 0.14589 -0.52691c-0.3011-0.45603-0.61084-0.91032-0.91698-1.3505-0.2902-0.41267-0.58385-0.8187-0.87993-1.2176-0.0962-1.0896-0.22272-2.1805-0.34849-3.2628 0.33858 0.35238 0.68163 0.69955 1.0281 1.0913a0.36292 0.36292 0 0 0 0.45289 0.0728c0.1019-0.0585 0.20476-0.11551 0.30713-0.16994a0.36292 0.36292 0 0 0 0.10048 -0.55968c-0.69055-0.79211-1.417-1.6042-2.128-2.3589-0.0272-0.26093-0.0373-0.43894-0.0733-0.75145a0.36292 0.36292 0 0 0 0.0142 -0.0585c0-0.019-0.00057-0.14557-0.0761-0.25697l0.0617 0.15887c-0.0704-0.57866-0.14067-1.1526-0.20475-1.7382v0.038c0-0.12025-0.0142-0.15507-0.0142-0.10443a0.36292 0.36292 0 0 0 -0.0142 -0.0839c-0.0804-0.34115-0.14067-0.69765-0.21568-1.0477 0.23175 0.28593 0.4651 0.56031 0.72299 0.89734a0.36292 0.36292 0 0 0 0.50975 0.068c0.0962-0.0728 0.19269-0.14557 0.28963-0.21567a0.36292 0.36292 0 0 0 0.0775 -0.50967c-0.68221-0.92725-1.3178-1.777-2.0017-2.6376-0.13924-1.0665-0.23765-2.1496-0.30915-3.2585-0.0229-0.35365-0.0589-0.71727-0.10333-1.0956 0.33974 0.36346 0.68724 0.71379 1.0172 1.1086 0.0631 0.0823 0.12643 0.1519 0.17204 0.20918a0.36292 0.36292 0 0 0 0.52052 0.0459c0.11773-0.10285 0.23993-0.20365 0.36156-0.30508a0.36292 0.36292 0 0 0 0.0574 -0.49653c-0.0646-0.0839-0.125-0.15824-0.17863-0.22659-0.6611-0.8225-1.3403-1.5942-2.054-2.324 0-1.0673 0.0891-2.0464 0.122-3.1954 0.0187-0.64021 0.0142-1.353 0.0142-2.0496 0.35998 0.42707 0.73017 0.84434 1.0652 1.3024a0.36292 0.36292 0 0 0 0.5053 0.0807c0.15953-0.11551 0.31949-0.22976 0.48131-0.34194a0.36292 0.36292 0 0 0 0.0891 -0.50746c-0.64186-0.91031-1.3209-1.7664-2.0452-2.5854l-0.0142-0.0158c0.10775-1.6217 0.28762-3.2308 0.47485-4.8638 0.57998 0.46631 1.1598 0.93025 1.6922 1.442a0.36292 0.36292 0 0 0 0.45963 0.0348c0.18523-0.13133 0.37033-0.2584 0.55771-0.38562a0.36292 0.36292 0 0 0 0.0517 -0.55761c-0.80396-0.79686-1.6626-1.536-2.5614-2.2347 0.15064-1.1065 0.35367-2.1401 0.5379-3.2887a0.36292 0.36292 0 0 0 -0.34634 -0.42044zm-0.93865 4.1253a0.36292 0.36292 0 0 0 0.20692 0.20048 0.36292 0.36292 0 0 0 -0.31376 0.31568c-0.0172 0.14241-0.0244 0.2826-0.0416 0.42485a0.36292 0.36292 0 0 0 -0.18295 -0.18956c0.0775-0.10285 0.14067-0.21029 0.21999-0.31362a0.36292 0.36292 0 0 0 0.0733 -0.18292c0.0143-0.087 0.0272-0.16899 0.0374-0.25491zm-0.55771 6.5342c0.0331 0.038 0.069 0.076 0.10332 0.11392 0.0574 0.0665 0.10633 0.14083 0.16343 0.20697a0.36292 0.36292 0 0 0 -0.29625 0.0712c0.0142-0.12975 0.0229-0.26029 0.0302-0.39005zm-0.16974 0.74053c0 0.087 0.00044 0.18228 0 0.27248a0.36292 0.36292 0 0 0 -0.11203 -0.0744c0.0402-0.0665 0.0733-0.13292 0.11345-0.19811zm1.0106 12.428c0.0631 0.0522 0.0718 0.0696 0.0142 0l0.0142 0.0158a0.36292 0.36292 0 0 0 -0.0158 -0.0174zm-0.35064 0.72313c0.0158 0.019 0.0302 0.0395 0.0459 0.0585a0.36292 0.36292 0 0 0 -0.0804 0.0506c0.0142-0.038 0.0215-0.0712 0.0345-0.10918zm-29.415 2.7509c-0.18581 0.76332-0.35296 1.5227-0.52712 2.2849 0.066-0.33023 0.0373-0.68404 0.12484-1.0064l-0.3508 0.26583-0.18939-0.39859c0.3271-0.39258 0.64042-0.77566 0.9431-1.1458zm-2.2152 2.4613 0.0661 0.0222c0.0172 0.0174 0.0286 0.0332 0.0574 0.0633a0.36292 0.36292 0 0 0 -0.15238 -0.0459l0.0142-0.0158 0.0142-0.0158s0.0142 0 0.0142-0.0158zm0.20261 0.0696 0.44212 0.15032s-0.26206-0.0665-0.46395-0.1171c0.0142-0.0158 0.0142-0.0222 0.0215-0.0332zm0.0617 0.16551c0.00029 0.00031 0.0142 0 0.0142 0s0.0733 0.0823 0.14367 0.15665l-0.3528-0.10918c0.0142-0.0158 0.0201-0.0332 0.0301-0.0475h0.17648zm32.271 0.7448c0.0142 0.0158 0.0142 0.0174 0.0201 0.0237a0.36292 0.36292 0 0 0 -0.0388 0.0332 0.36292 0.36292 0 0 0 -0.0142 0c0.0142-0.0174 0.0187-0.0364 0.0272-0.0522zm-33.931 1.2372a0.36292 0.36292 0 0 0 -0.0172 0.0506c-0.079 0.32106-0.12501 0.64908-0.19816 0.97156a0.36292 0.36292 0 0 0 -0.13924 -0.0348 0.36292 0.36292 0 0 0 -0.47918 -0.47485c-0.34289 0.14874-0.69786 0.297-1.0586 0.47485-0.30686 0.15033-0.61401 0.31995-0.92144 0.48578-0.001-0.0585 0-0.11709 0-0.17659 0.41585-0.22453 0.8314-0.43925 1.2458-0.63372 0.52312-0.2459 1.0475-0.45809 1.5705-0.66221zm-4.8527 11.368a0.36292 0.36292 0 0 0 0 0.0475c0.0143 0.33387 0.0877 0.65161 0.10048 0.98453a0.36292 0.36292 0 0 0 -0.16125 0 0.36292 0.36292 0 0 0 -0.61415 -0.19827c-0.5142 0.5111-1.025 1.0931-1.5311 1.6858-0.0142-0.049-0.0229-0.0981-0.0345-0.14557 0.72814-0.88563 1.4816-1.6676 2.2456-2.3741zm8.3159 1.4265v0.55555c-0.0416-0.17231-0.0473-0.35634-0.0875-0.52929a0.36292 0.36292 0 0 0 0.0891 -0.0253zm0 1.0869c0 0.15966-0.0142 0.31979 0 0.47913-0.0646-0.10443-0.0962-0.23039-0.15896-0.33751a0.36292 0.36292 0 0 0 0.16126 -0.14241zm30.857 1.686 0.0142 0.0506c0-0.0285-0.0142-0.0237-0.0142-0.0427 0.00059 0 0 0 0 0zm-0.65133 0.40064c0.00058 0 0 0 0 0a0.36292 0.36292 0 0 0 -0.0142 0s0.0142 0 0.0142-0.0158zm-2.3654 6.4232c0.0142 0.041 0.0142 0.087 0.0158 0.1297a0.36292 0.36292 0 0 0 -0.17218 0.016 0.36292 0.36292 0 0 0 -0.066 -0.084c0.0517-0.024 0.10617-0.027 0.15681-0.051a0.36292 0.36292 0 0 0 0.066 0zm-37.749 1.5378v0.024a0.36292 0.36292 0 0 0 0.0142 0.084c0.10633 0.4531 0.2971 0.861 0.41384 1.3091a0.36292 0.36292 0 0 0 -0.125 0.016c0-0.087-0.0172-0.1799-0.0201-0.2679a0.36292 0.36292 0 0 0 -0.59676 -0.2658c0.11488-0.2848 0.19773-0.623 0.31805-0.8951zm14.763 0.222c0.099 0.2733 0.122 0.5442 0.23089 0.817a0.36292 0.36292 0 0 0 0.0331 0.065c-0.17633-0.051-0.38082-0.2117-0.56188-0.2766a0.36292 0.36292 0 0 0 0.23521 -0.5728c-0.00044-0.0005 0.00043 0 0 0a0.36292 0.36292 0 0 0 0.0631 -0.03zm-15.902 2.9712c-0.0976 0.2922-0.20189 0.5647-0.28978 0.8712 0-0.016-0.0142-0.016-0.0142-0.022 0.0818-0.3148 0.21253-0.5469 0.30269-0.8494zm35.357 0.2307c0.0674 0 0.13782 0.022 0.20475 0.017a0.36292 0.36292 0 0 0 0.0877 -0.016c-0.0142 0.1-0.0272 0.2014-0.0345 0.3006a0.36292 0.36292 0 0 0 -0.21567 -0.063 0.36292 0.36292 0 0 0 -0.0416 -0.2395zm0.29407 0c-0.00044 0.016 0 0.0005 0 0.016v-0.016zm-12.056 2.9928c0.0818 0.084 0.1364 0.1953 0.21998 0.2788a0.36292 0.36292 0 0 0 0.14367 0.089c0.1163 0.038 0.23449 0.054 0.35066 0.092a0.36292 0.36292 0 0 0 -0.0302 0.022c-0.0244 0.02-0.0475 0.039-0.0733 0.062-0.78359 0.5301-1.7195 0.8756-2.7554 1.0695-0.0158-0.036-0.0316-0.07-0.0473-0.106 0.75759-0.1808 1.4626-0.4493 2.0627-0.7537a0.36292 0.36292 0 0 0 0.0142 -0.6426 0.36292 0.36292 0 0 0 0.11915 -0.1092zm6.4711 0.4247c0.0302 0.016 0.056 0.038 0.0847 0.052a0.36292 0.36292 0 0 0 0.21568 0.025 0.36292 0.36292 0 0 0 -0.0172 0.3421c0 0.016-0.0142 0.018-0.0142 0.025a0.36292 0.36292 0 0 0 -0.35511 -0.257 0.36292 0.36292 0 0 0 0.0832 -0.1894zm54.05 0.8059a0.36292 0.36292 0 0 0 0.12501 0 0.36292 0.36292 0 0 0 0.11345 0.2177 0.36292 0.36292 0 0 0 -0.13212 0.076c-0.0374-0.095-0.0676-0.1983-0.10475-0.294zm-1.9188 7.3142a0.36292 0.36292 0 0 0 0.0331 0.029c-0.0258 0.025-0.0473 0.052-0.0733 0.079a0.36292 0.36292 0 0 0 0.0272 -0.063c0.0142-0.017 0.0142-0.027 0.0142-0.043zm-0.15897 0.2308c-0.0546 0.055-0.1019 0.1124-0.15696 0.1678a0.36292 0.36292 0 0 0 -0.0875 0.1455c-0.0142 0.017-0.0142 0.038-0.0172 0.057-0.0503-0.1155-0.079-0.2461-0.12643-0.3616a0.36292 0.36292 0 0 0 0.38784 -0.016zm-78.27 0.4769c0.21883 0.3526 0.46365 0.6665 0.68838 1.0107a0.36292 0.36292 0 0 0 -0.0674 0.038 0.36292 0.36292 0 0 0 -0.56648 -0.087c-0.0172-0.3196-0.0475-0.6503-0.0546-0.9604zm76.319 5.7175a0.36292 0.36292 0 0 0 0.11772 0.1551c-0.0804 0.073-0.15 0.1503-0.23075 0.2243 0.0373-0.1076 0.0747-0.2546 0.11346-0.3791zm-0.70131 0.573a0.36292 0.36292 0 0 0 0.0172 0.016 0.36292 0.36292 0 0 0 -0.0142 0s0-0.016-0.0142-0.016zm0.41813 0.035c-0.0229 0.068-0.0532 0.1313-0.0761 0.2005a0.36292 0.36292 0 0 0 -0.11487 -0.1504 0.36292 0.36292 0 0 0 0.1917 -0.051zm-4.5348 4.977c0.17934 0.3205 0.35854 0.6403 0.54665 0.9562 0.20389 0.3333 0.39302 0.6687 0.59892 1.0194a0.36292 0.36292 0 0 0 0.64042 -0.03c0.0459-0.1 0.10048-0.2128 0.15238-0.3136a0.36292 0.36292 0 0 0 0.14368 0.2853c-0.15776 0.1171-0.30126 0.2457-0.46165 0.3616a0.36292 0.36292 0 0 0 -0.11345 0.1345c-0.0331 0.068-0.0919 0.1313-0.12643 0.2004a0.36292 0.36292 0 0 0 -0.043 -0.1455c-0.29077-0.5311-0.59103-1.0548-0.89731-1.5748-0.00087 0 0 0 0 0a0.36292 0.36292 0 0 0 -0.0172 -0.035c-0.16083-0.2797-0.31461-0.5625-0.46826-0.8449 0.0142 0 0.0286-0.016 0.043-0.016zm0.44427 1.1782-0.0142 0.024-0.0258 0.038a0.36292 0.36292 0 0 0 0.0331 -0.063zm-64.11 1.8188c0.30298 0.2699 0.61042 0.4456 0.91483 0.7035a0.36292 0.36292 0 0 0 -0.21553 0.318 0.36292 0.36292 0 0 0 -0.0891 0.043c-0.17475-0.347-0.45032-0.7238-0.60985-1.065zm59.647 3.1604c0.3831 0.7193 0.73691 1.4432 1.0868 2.1934a0.36292 0.36292 0 0 0 0.60985 0.079c0.41125-0.4997 0.63754-1.0312 1.0064-1.5399-0.25272 0.3462-0.39171 0.7075-0.66439 1.0497a0.36292 0.36292 0 0 0 0 0.4554c-0.0877 0.043-0.16442 0.098-0.25259 0.1393a0.36292 0.36292 0 0 0 -0.35726 0.1171c-0.0847 0.1012-0.19298 0.1936-0.27886 0.2941a0.36292 0.36292 0 0 0 -0.0272 -0.1786c-0.37764-0.8762-0.80068-1.7325-1.2372-2.5811 0.0373-0.016 0.0761-0.019 0.11346-0.028zm-5.8525 6.2598c-0.0158 0.6983-0.0631 1.401-0.15254 2.1281a0.36292 0.36292 0 0 0 0.56203 0.3464c0.18925-0.125 0.34563-0.2671 0.53143-0.3943a0.36292 0.36292 0 0 0 0 0.2592c-0.27297 0.068-0.52223 0.184-0.79721 0.2482a0.36292 0.36292 0 0 0 -0.11346 0.048c-0.15728 0.1-0.35798 0.1758-0.51837 0.2745a0.36292 0.36292 0 0 0 0 -0.041v-0.022c0.1657-0.9585 0.22832-1.9029 0.25257-2.838 0.0761 0 0.15254 0 0.22875-0.016zm-39.443 3.448c0.35969 0.1028 0.6766 0.1534 1.0192 0.233a0.36292 0.36292 0 0 0 -0.11203 0.5184c-0.30039-0.2506-0.62305-0.4992-0.90821-0.7514zm30.528 0.7558c0.0976 0.016 0.19442 0.024 0.29178 0.035-0.17662 0.7069-0.43479 1.4202-0.7448 2.1455a0.36292 0.36292 0 0 0 0.25257 0.4944c-0.0286 0.0003-0.056 0-0.0847 0a0.36292 0.36292 0 0 0 -0.22644 0c-0.15897 0.046-0.3554 0.055-0.51621 0.1 0.45562-0.9209 0.79147-1.8518 1.0281-2.7749zm-29.463 0.1235c0.167 0.095 0.33558 0.1807 0.50315 0.2721a0.36292 0.36292 0 0 0 -0.0546 0.1013c-0.15349-0.1234-0.29882-0.2486-0.44873-0.3725zm17.852 2.2761c0.0416 0.016 0.0818 0.035 0.122 0.051-0.56173 0.3269-1.1136 0.6578-1.8012 0.9366-0.15967 0.065-0.35825 0.1265-0.55986 0.2003a0.36292 0.36292 0 0 0 -0.11772 0.61c-0.33802-0.095-0.68121-0.1725-1.0172-0.2746 0.33314-0.1044 0.67114-0.206 0.97801-0.3245 0.90693-0.351 1.6866-0.7628 2.3958-1.198zm12.228 0.051a0.36292 0.36292 0 0 0 -0.0272 0.1633c-0.19099 0-0.37478 0.04-0.56634 0.043 0.20419-0.063 0.39029-0.1424 0.5926-0.2071zm-14.19 1.8535c0.12058 0.016 0.24253 0.028 0.38554 0.038a0.36292 0.36292 0 0 0 -0.0201 0.063c-0.122-0.032-0.24396-0.068-0.36587-0.1013zm24.007-131.19a0.36292 0.36292 0 0 0 -0.37463 0.39645c0.0142 0.12643 0.0187 0.26047 0.0272 0.40076a0.36292 0.36292 0 0 0 0.3485 0.33759c1.1505 0.0388 2.2528 0.25086 3.3804 0.37463-0.89961 0.0761-1.8457 0.066-2.7074 0.21123-2.5058 0.42172-4.807 1.0802-6.9503 1.8558a0.36292 0.36292 0 0 0 -0.13497 -0.0142c-1.9251 0.20462-3.8451 0.52928-5.7437 0.97801-0.67488 0.15968-1.343 0.33386-2.0083 0.52282a0.36292 0.36292 0 0 0 -0.15033 0.61414c0.11915 0.11203 0.23563 0.22285 0.35294 0.33544a0.36292 0.36292 0 0 0 0.34851 0.0891c0.64215-0.17962 1.2906-0.34504 1.9406-0.49653 0.3821-0.0891 0.77224-0.13355 1.1566-0.20908-2.1904 1.1345-4.1108 2.4198-5.7524 3.7811-2.29 0.90047-4.4817 1.9741-6.5408 3.2106a0.36292 0.36292 0 0 0 0.0674 0.65349c0.18366 0.0646 0.36646 0.12785 0.54896 0.19385a0.36292 0.36292 0 0 0 0.30713 -0.0286c0.96265-0.56962 2.0109-1.0261 3.0341-1.5159-0.44656 0.45261-0.94655 0.88797-1.3353 1.3591-0.65994 0.8004-1.2534 1.6104-1.786 2.4221-0.0934 0.14067-0.18336 0.27985-0.27226 0.41813a0.36292 0.36292 0 0 0 -0.0574 0.16341c-0.14209 0.24396-0.26566 0.47975-0.38541 0.70346a0.36292 0.36292 0 0 0 -0.0891 0.0459c-1.6309 1.1432-3.1534 2.3806-4.5609 3.6919a0.36292 0.36292 0 0 0 0.19815 0.62505c0.20088 0.0272 0.40178 0.056 0.60123 0.0847a0.36292 0.36292 0 0 0 0.29838 -0.0919c0.78099-0.71665 1.646-1.3724 2.5005-2.0366-0.73907 1.5765-1.4391 3.1547-1.8515 4.7025-1.2887 1.3215-2.4648 2.6982-3.5197 4.1145a0.36292 0.36292 0 0 0 0.28748 0.5795c0.19714 0.001 0.3976 0.0158 0.59891 0.0158a0.36292 0.36292 0 0 0 0.29408 -0.14399c0.53804-0.70997 1.1578-1.3897 1.7599-2.0758-0.0676 0.31705-0.15381 0.62836-0.2026 0.95174-0.0317 0.19844-0.0589 0.39445-0.0877 0.58816a0.36292 0.36292 0 0 0 0.46625 0.39873c0.23965-0.0744 0.48089-0.14748 0.72098-0.21795a0.36292 0.36292 0 0 0 0.25472 -0.29193c0.0317-0.19328 0.0631-0.38626 0.0962-0.58155 0.0919-0.56073 0.24756-1.1381 0.39215-1.7162 0.44011 0.46912 0.87348 0.93279 1.3307 1.4069a0.36292 0.36292 0 0 0 0.44226 0.0631c0.22515-0.12785 0.45002-0.25387 0.67746-0.37893a0.36292 0.36292 0 0 0 0.0919 -0.56634c-0.69527-0.74293-1.4032-1.5024-2.0845-2.2566 0.48978-1.7145 1.2264-3.4565 2.1368-5.199 0.45232 0.56978 0.89918 1.1391 1.4005 1.6924a0.36292 0.36292 0 0 0 0.41614 0.0875c0.26047-0.11773 0.52324-0.2329 0.78616-0.34634a0.36292 0.36292 0 0 0 0.12786 -0.57279c-0.68867-0.783-1.3376-1.5897-1.9494-2.4155 0.21438-0.38411 0.40321-0.76679 0.63382-1.1087 0.52167-0.77381 1.1015-1.5453 1.7446-2.3067 0.68135-0.80598 1.5304-1.5833 2.3872-2.3609 0.0142 0.59806 0 1.1997 0.10775 1.7838a0.36292 0.36292 0 0 0 0.43567 0.28748c0.31232-0.069 0.62505-0.13497 0.93865-0.19817a0.36292 0.36292 0 0 0 0.28547 -0.41612c-0.16284-0.94714-0.20864-1.9335-0.12643-2.9469 1.619-1.2867 3.4606-2.5087 5.602-3.5612 0.49625-0.24368 1.0557-0.45734 1.601-0.67734-0.14905 0.30256-0.32782 0.59764-0.42919 0.91053-0.1106 0.33442-0.19945 0.66814-0.2701 0.99753a0.36292 0.36292 0 0 0 0.36588 0.43782c0.34117-0.0142 0.68091-0.0172 1.0215-0.0215a0.36292 0.36292 0 0 0 0.34849 -0.28102c0.0704-0.29952 0.15444-0.59863 0.25933-0.89947 0.22831-0.67027 0.57997-1.3576 1.0238-2.0496 2.0394-0.70849 4.2228-1.3021 6.5887-1.6815 1.3366-0.21438 2.8055-0.23836 4.2493-0.29838-0.59319 0.25831-1.2612 0.48103-1.7708 0.77754a0.36292 0.36292 0 0 0 0.0775 0.66211c0.32251 0.0948 0.64401 0.1917 0.9648 0.29193a0.36292 0.36292 0 0 0 0.28546 -0.0286c1.2546-0.70533 2.7743-1.3409 4.526-1.8601 0.84934 0.0201 1.6744 0.001 2.5091 0.0704 2.9669 0.24383 6.0325 0.85495 9.1328 1.675-1.0344 0.0359-2.1438 0.0142-3.0601 0.14209a0.36292 0.36292 0 0 0 -0.13782 0.66857c0.28287 0.17317 0.56503 0.34807 0.84504 0.52497a0.36292 0.36292 0 0 0 0.23965 0.0546c1.8432-0.23937 3.96-0.30572 6.297-0.15896 1.7761 0.61572 3.5566 1.3107 5.3298 2.1062 1.0909 0.59563 2.1642 1.2238 3.2147 1.8884 1.1851 0.74955 2.2561 1.6345 3.3783 2.4613-0.82249-0.37579-1.6565-0.83902-2.4678-1.1545a0.36292 0.36292 0 0 0 -0.44011 0.53144c0.14921 0.23936 0.2971 0.47945 0.44226 0.71882a0.36292 0.36292 0 0 0 0.17633 0.14811c2.3499 0.93722 4.7631 2.1112 7.1878 3.5351 0.0142 0 0.0142 0.0142 0.0201 0.0142 0.0761 0.066 0.14921 0.12928 0.2177 0.19169 2.7394 2.6289 4.9439 5.5368 6.9046 8.5229-0.91641-0.88884-1.8205-1.8824-2.7466-2.6247a0.36292 0.36292 0 0 0 -0.58572 0.33329c0.0302 0.21438 0.0574 0.42877 0.0847 0.64472a0.36292 0.36292 0 0 0 0.1307 0.2352c1.9259 1.5649 3.8769 3.4722 5.7589 5.6718 0.9187 1.7352 1.7863 3.4637 2.4678 5.2035 0.33313 0.85051 0.63927 1.7026 0.92128 2.5528 0.33358 1.0051 0.51306 2.0013 0.76894 3.0036-0.51606-1.0462-0.97355-2.1395-1.553-3.1322a0.36292 0.36292 0 0 0 -0.57724 -0.0649c-0.0976 0.10285-0.19385 0.2084-0.29192 0.31141a0.36292 0.36292 0 0 0 -0.0517 0.43134c1.4112 2.4279 2.653 5.0217 3.6985 7.7541 0.4763 3.087 0.64818 6.1076 0.58155 9.0348-0.0934-0.394-0.14763-0.78611-0.25703-1.1806-0.27009-1.0413-0.56819-2.071-0.89514-3.0843a0.36292 0.36292 0 0 0 -0.50747 -0.21345c-0.12501 0.0617-0.24884 0.12342-0.37247 0.18513a0.36292 0.36292 0 0 0 -0.18295 0.43562c0.31993 0.99513 0.613 2.0054 0.87778 3.0297a0.36292 0.36292 0 0 0 0.023 0.068l0.0142 0.0174c0.4516 1.6418 0.78515 3.29 1.0149 4.9291-0.2503 2.309-0.60194 4.5581-1.1282 6.6996-0.0733 0.29558-0.18264 0.56933-0.26349 0.86048 0.0331-0.47138 0.1307-0.91507 0.13783-1.3961a0.36292 0.36292 0 0 0 -0.22213 -0.33988c-0.13782-0.0585-0.27512-0.11551-0.41385-0.17422a0.36292 0.36292 0 0 0 -0.50313 0.33103c-0.0286 2.4319-0.31145 4.7918-0.80585 7.0485-0.53114 1.3491-1.2221 2.5297-1.8449 3.7854-0.0473-0.0617-0.0933-0.12342-0.14209-0.18513a0.36292 0.36292 0 0 0 -0.63366 0.11709c-0.62536 2.1142-1.4731 4.0868-2.4852 5.9004-0.24498 0.35287-0.49871 0.67724-0.74496 1.0216 0.13354-0.61334 0.22472-1.2244 0.32222-1.8362 0.0875-0.0158 0.17346-0.0158 0.26134-0.0253a0.36292 0.36292 0 0 0 0.32682 -0.30919c0.26032-1.7902 0.27195-3.5655 0.0574-5.2753a0.36292 0.36292 0 0 0 0 -0.0222c-0.0142-0.0332-0.0142-0.0902-0.0201-0.17216 0.0818-2.9805-0.24855-5.8616-0.79723-8.6494 0.18094 0.33039 0.42217 0.63815 0.56418 0.98231a0.36292 0.36292 0 0 0 0.66441 0.0158c0.0962-0.20412 0.19241-0.40919 0.28746-0.61647a0.36292 0.36292 0 0 0 0 -0.29194c-0.61988-1.4673-1.4354-2.8128-2.4177-4.0141a0.36292 0.36292 0 0 0 -0.0158 -0.0158c-0.54163-1.7512-1.1769-3.4394-1.9362-5.0182-0.12342-0.25824-0.24913-0.5122-0.37692-0.76459-0.52485-1.0378-1.1436-1.9562-1.7468-2.8946 0.53373 0.33007 1.0663 0.60588 1.5986 1.0323a0.36292 0.36292 0 0 0 0.58816 -0.28308v-0.78847a0.36292 0.36292 0 0 0 -0.13925 -0.2853c-1.3147-1.028-2.6312-1.822-3.9097-2.4069a0.36292 0.36292 0 0 0 -0.0142 0h-0.0158c-1.6517-2.0855-3.4652-3.7922-5.3429-5.1839 0.6364-0.0823 1.2629-0.18687 1.9516-0.14399a0.36292 0.36292 0 0 0 0.36601 -0.48562c-0.0919-0.25665-0.18638-0.51426-0.28316-0.77329a0.36292 0.36292 0 0 0 -0.32251 -0.23513c-1.3041-0.0617-2.5143 0.0696-3.6307 0.34178-0.85882-0.51995-1.7197-1.0117-2.5941-1.383-0.42948-0.18212-0.85897-0.347-1.2852-0.49226-0.83068-0.2834-1.6319-0.41995-2.4329-0.55967 0.44427-0.35128 0.87705-0.72281 1.3809-0.98026a0.36292 0.36292 0 0 0 0.13213 -0.52929c-0.14399-0.20807-0.29006-0.4152-0.43782-0.62075a0.36292 0.36292 0 0 0 -0.4661 -0.10918c-1.036 0.55176-1.9445 1.2399-2.7336 2.0105-1.6628-0.0459-3.1612 0.27089-4.5239 0.81458 0.1851-0.7361 0.36272-1.4826 0.64258-2.1629a0.36292 0.36292 0 0 0 -0.12642 -0.4334c-0.17648-0.12659-0.35324-0.24827-0.53145-0.37027a0.36292 0.36292 0 0 0 -0.54234 0.16551c-0.43824 1.1179-0.75802 2.2795-0.99323 3.4413-0.0473 0.0222-0.0646 0.0237-0.12627 0.0633-0.8304 0.51615-1.5606 1.153-2.202 1.8665-0.34793 0.38719-0.60654 0.83689-0.8953 1.2678-0.0215-0.59575-0.0574-1.1871-0.0345-1.7904a0.36292 0.36292 0 0 0 -0.26779 -0.36378c-0.16097-0.0443-0.32036-0.0854-0.48148-0.12658a0.36292 0.36292 0 0 0 -0.45087 0.34415c-0.0316 1.2543 0.0142 2.5085 0.10918 3.681-0.53574 1.0453-0.98346 2.1539-1.3265 3.2844-0.0373 0.11867-0.0617 0.24067-0.0962 0.36599-0.0976-0.28181-0.19844-0.56109-0.29408-0.8581a0.36292 0.36292 0 0 0 -0.0272 -0.0665c-0.0674-0.22564-0.13213-0.45444-0.19601-0.6861a0.36292 0.36292 0 0 0 -0.43781 -0.25491c-0.13497 0.0332-0.2678 0.0649-0.40076 0.10127a0.36292 0.36292 0 0 0 -0.25703 0.44859c0.0733 0.26393 0.14937 0.5266 0.22644 0.78405a0.36292 0.36292 0 0 0 0.0373 0.0839c0.2632 0.8149 0.53187 1.6478 0.80153 2.435-0.26177 0.95415-0.52325 1.9031-0.71666 2.8599-0.0402 0.20349-0.0804 0.40571-0.11772 0.60984-0.0388 0.21361-0.0517 0.41441-0.0775 0.62502-0.12642-0.2902-0.27353-0.56426-0.38325-0.87124-0.0173-0.0475-0.0317-0.0886-0.043-0.12184a0.36292 0.36292 0 0 0 -0.48347 -0.21345c-0.12484 0.0538-0.25029 0.1076-0.37477 0.16124a0.36292 0.36292 0 0 0 -0.19818 0.4508c0.0142 0.0412 0.0272 0.0823 0.0388 0.1171a0.36292 0.36292 0 0 0 0 0.0158c0.33658 0.94972 0.73547 1.8417 1.1978 2.6811-0.043 0.63325-0.0818 1.2703-0.0574 1.9059v0.0158c0.00014 0 0 0 0 0v0.0158a0.36292 0.36292 0 0 0 0 0.0158c0.0229 0.51837 0.1106 1.0062 0.17862 1.5031-0.35797-0.32834-0.72974-0.64544-1.0586-1.0042a0.36292 0.36292 0 0 0 -0.48132 -0.0475c-0.10775 0.0775-0.21611 0.15507-0.32452 0.23292a0.36292 0.36292 0 0 0 -0.0574 0.54242c0.68723 0.74702 1.4286 1.4277 2.2064 2.0757 0.18366 0.8456 0.39388 1.6808 0.65349 2.5113 0.10618 0.33862 0.2273 0.66727 0.34405 1.0019-0.30772-0.24653-0.61945-0.49195-0.9279-0.74923a0.36292 0.36292 0 0 0 -0.45734 0c-0.0948 0.0744-0.19097 0.14874-0.28746 0.22216a0.36292 0.36292 0 0 0 -0.0142 0.56631c0.7 0.58436 1.4524 1.1982 2.1499 1.7686 0.0733 0.0601 0.1451 0.11709 0.21768 0.17659 0.364 1.0163 0.74468 2.0632 1.1087 3.0906-0.43409-0.34194-0.86386-0.69037-1.2938-1.0193a0.36292 0.36292 0 0 0 -0.45519 0.0158c-0.0832 0.0696-0.16886 0.13925-0.25488 0.20682a0.36292 0.36292 0 0 0 0 0.5728c0.83916 0.65161 1.669 1.3227 2.4744 2.0039a0.36292 0.36292 0 0 0 0.1307 0.0712c0.18336 0.65588 0.35079 1.3273 0.47486 2.0344 0.0172 0.0997 0.0359 0.19811 0.0503 0.29384v-0.0554c0 0.0443 0.0142 0.0459 0.0142 0.068a0.36292 0.36292 0 0 0 0 0.038c0.0373 0.23023 0.0532 0.46157 0.0847 0.69259-0.24956-0.30713-0.49267-0.6217-0.74051-0.91696a0.36292 0.36292 0 0 0 -0.44872 -0.087c-0.10333 0.0554-0.20808 0.10918-0.3136 0.16108a0.36292 0.36292 0 0 0 -0.11915 0.55556c0.6417 0.78215 1.2646 1.5964 1.8448 2.4176a0.36292 0.36292 0 0 0 0.22645 0.14557c0 0.00095 0.0173 0 0.0173 0a0.36292 0.36292 0 0 0 0.0661 0c0.11773-0.00016 0.23577 0.00016 0.35509 0 0.0201-0.00063 0.043 0 0.0674 0a0.36292 0.36292 0 0 0 0.35927 -0.36172v-0.0206c0.49324-0.82012 0.91541-1.6744 1.2896-2.5482a0.36292 0.36292 0 0 0 -0.19615 -0.47929c-0.12484-0.0506-0.25113-0.10285-0.37678-0.15507a0.36292 0.36292 0 0 0 -0.47055 0.19384c-0.13498 0.31488-0.29307 0.60524-0.43551 0.91031-0.0331-0.22073-0.0517-0.44938-0.0877-0.66632-0.0201-0.12342-0.0416-0.24304-0.0617-0.3595-0.15953-0.89181-0.3653-1.7553-0.61645-2.5765 0.25216-0.68894 0.47415-1.3886 0.6927-2.0998a0.36292 0.36292 0 0 0 -0.23966 -0.45303c-0.1307-0.0395-0.26162-0.0807-0.39201-0.11867a0.36292 0.36292 0 0 0 -0.45087 0.24178c-0.0718 0.23751-0.14462 0.45429-0.21338 0.68373-0.35525-0.99244-0.7408-2.0366-1.0652-2.9534 0-0.0158 0.0142-0.0206 0.0142-0.0285a0.36292 0.36292 0 0 0 0 -0.0158c0.226-0.78611 0.47169-1.6273 0.72312-2.42a0.36292 0.36292 0 0 0 -0.24181 -0.45729c-0.1307-0.038-0.26349-0.0775-0.39645-0.11551a0.36292 0.36292 0 0 0 -0.44657 0.23972c-0.0976 0.31125-0.18021 0.62423-0.26996 0.94529-0.11346-0.3239-0.23435-0.65287-0.33327-0.9714-0.26193-0.84354-0.4776-1.6877-0.65996-2.542 0.32998-0.74655 0.69054-1.485 1.0956-2.1562a0.36292 0.36292 0 0 0 -0.13498 -0.50524c-0.11772-0.0649-0.23721-0.12817-0.35711-0.19178a0.36292 0.36292 0 0 0 -0.48146 0.1345c-0.1527 0.25586-0.26034 0.52565-0.38986 0.79512-0.056-0.37849-0.13924-0.75999-0.15459-1.1415-0.0258-0.63911 0-1.2991 0.0503-1.9689 0.51965-0.7217 1.0683-1.4159 1.6401-1.9907 0.0272-0.0285 0.0574-0.0554 0.0847-0.0839a0.36292 0.36292 0 0 0 0 -0.50745c-0.0962-0.10127-0.19284-0.20033-0.28978-0.29843a0.36292 0.36292 0 0 0 -0.52497 0.0158c-0.0229 0.0253-0.0503 0.0538-0.0818 0.087-0.21583 0.22263-0.39245 0.48973-0.59031 0.74275 0.0215-0.16187 0.0331-0.33055 0.0617-0.49021 0.0374-0.19573 0.0733-0.39131 0.11346-0.58594 0.19456-0.95225 0.47011-1.9156 0.7491-2.9012 0.5257-0.46441 1.0607-0.89022 1.6118-1.2742a0.36292 0.36292 0 0 0 0.0388 -0.0206c0.13782-0.0839 0.26938-0.16915 0.3877-0.23735a0.36292 0.36292 0 0 0 0.1307 -0.49875c-0.0789-0.13292-0.1576-0.26805-0.23951-0.40302a0.36292 0.36292 0 0 0 -0.49453 -0.12342c-0.12057 0.0712-0.24397 0.1519-0.36587 0.23307a0.36292 0.36292 0 0 0 -0.0934 0.0459c-0.14984 0.10602-0.28171 0.23387-0.42689 0.35065 0.0187-0.068 0.0388-0.15349 0.0589-0.21773 0.34117-1.0871 0.79406-2.1377 1.3288-3.1278 0.85237-0.3565 1.7356-0.59116 2.6376-0.62502a0.36292 0.36292 0 0 0 0.33543 -0.46189c-0.0473-0.16757-0.0991-0.33419-0.14826-0.49875a0.36292 0.36292 0 0 0 -0.36588 -0.25918c-0.50099 0.0253-0.96724 0.19098-1.4463 0.3114 0.2711-0.38894 0.52455-0.80019 0.83642-1.1347 0.59664-0.6399 1.265-1.2059 2.0169-1.6466 0.0331-0.0206 0.122-0.0585 0.18953-0.087 1.067 0.20602 2.129 0.55825 3.1605 1.0738a0.36292 0.36292 0 0 0 0.52483 -0.29842c0.0142-0.18577 0.0142-0.35935 0.0172-0.52043a0.36292 0.36292 0 0 0 -0.20262 -0.33767c-0.55369-0.27153-1.121-0.4065-1.6858-0.58151 1.2177-0.39289 2.5312-0.6217 4.0055-0.52059 1.2478 0.82076 2.4362 1.7798 3.5176 2.8794a0.36292 0.36292 0 0 0 0.59477 -0.11709c0.0589-0.14557 0.11773-0.28957 0.17634-0.43546a0.36292 0.36292 0 0 0 -0.0775 -0.39004c-0.57163-0.57581-1.2168-1.033-1.8404-1.5268 0.51793 0.12343 1.0234 0.19115 1.553 0.37897 0.39932 0.14241 0.8008 0.30065 1.2046 0.47692 0.88885 0.38941 1.786 0.90715 2.6899 1.479 1.0372 1.4019 1.9519 2.8833 2.7248 4.4237a0.36292 0.36292 0 0 0 0.54235 0.12975c0.11203-0.0839 0.22385-0.16836 0.33542-0.2527a0.36292 0.36292 0 0 0 0.10475 -0.45302c-0.33371-0.66237-0.76548-1.2725-1.1522-1.908 1.5024 1.2654 2.965 2.701 4.2996 4.4584 0.71652 1.927 1.263 3.874 1.6206 5.8048a0.36292 0.36292 0 0 0 0.37679 0.29622c0.13782-0.0158 0.27455-0.0174 0.41153-0.0237a0.36292 0.36292 0 0 0 0.33774 -0.42691c-0.14368-0.77614-0.41068-1.5486-0.61645-2.324 0.35353 0.60287 0.74754 1.1546 1.0673 1.7969 0.12199 0.24511 0.24296 0.49163 0.35926 0.74038 0.75932 1.6045 1.4009 3.3194 1.9299 5.1143 0.15744 2.1632 0.22215 4.3359 0.1917 6.5124a0.36292 0.36292 0 0 0 0.3419 0.36821l0.40723 0.0237a0.36292 0.36292 0 0 0 0.32911 -0.17643c0.20059 1.8884 0.29709 3.8077 0.20246 5.7678-0.35883 2.3706-0.83643 4.7101-1.4157 7.022a0.36292 0.36292 0 0 0 0.28086 0.4444h0.0373c-0.1614 0.6528-0.32682 1.3052-0.52268 1.9518-0.10776 0.3566-0.22142 0.7127-0.33758 1.0693a0.36292 0.36292 0 0 0 0.61645 0.3529c0.19341-0.2182 0.38641-0.4396 0.57724-0.6621 0.78874-0.9228 1.5127-1.9209 2.2324-2.9274a0.36292 0.36292 0 0 0 0.1307 -0.087c0.7629-0.7856 1.57-1.5619 2.4264-2.3417a0.36292 0.36292 0 0 0 0.11772 -0.28308c-0.0142-0.29447-0.0172-0.5948-0.0302-0.89956a0.36292 0.36292 0 0 0 -0.2309 -0.3201c1.0889-1.8776 2.1519-3.7918 3.021-5.9048-0.00099 0.001 0.0142 0 0 0a0.36292 0.36292 0 0 0 0.0142 -0.0158c0.83915-1.0823 1.7293-2.1794 2.6748-3.3152a0.36292 0.36292 0 0 0 0.0775 -0.29384c-0.0546-0.32422-0.11345-0.64543-0.17203-0.96506a0.36292 0.36292 0 0 0 -0.63826 -0.1633c-0.18251 0.22532-0.33328 0.43467-0.50315 0.65556 0.28934-0.86712 0.60538-1.7102 0.83858-2.6224 0.54795-2.1431 0.90708-4.3907 1.1806-6.6825a0.36292 0.36292 0 0 0 0.066 -0.0839c0.44644-0.77313 0.90837-1.5586 1.3852-2.3697a0.36292 0.36292 0 0 0 0.0286 -0.0585c0.22917-0.44542 0.45446-0.90272 0.67086-1.3766a0.36292 0.36292 0 0 0 0.0142 -0.28529c-0.12643-0.3171-0.2546-0.63119-0.38541-0.94529a0.36292 0.36292 0 0 0 -0.66656 -0.0158c-0.20992 0.47596-0.42718 0.93785-0.65119 1.3853-0.0345 0.0617-0.0646 0.11393-0.0976 0.17406 0.0142-0.19368 0.0373-0.37802 0.0459-0.57486 0.00016 0-0.00015 0 0 0a0.36292 0.36292 0 0 0 0 -0.0158c0.1163-3.1591-0.066-6.4396-0.57062-9.7905 0.34059-1.6914 0.58354-3.5302 0.64902-5.5367a0.36292 0.36292 0 0 0 -0.0775 -0.2353c-0.20305-0.2595-0.40608-0.5171-0.612-0.77312a0.36292 0.36292 0 0 0 -0.64688 0.21994c-0.0158 0.77677-0.13354 1.4545-0.20692 2.176-0.31102-1.3817-0.58685-2.7602-1.039-4.1581-0.28389-0.8782-0.59247-1.758-0.93005-2.6378-0.66757-1.7407-1.5238-3.4568-2.4155-5.1687a0.36292 0.36292 0 0 0 0.0142 -0.18719c-0.44973-2.013-1.142-4.2186-2.1715-6.5714a0.36292 0.36292 0 0 0 -0.15254 -0.16988c-0.24898-0.1421-0.49897-0.28202-0.74926-0.42044a0.36292 0.36292 0 0 0 -0.50531 0.46826c0.36359 0.80928 0.53762 1.5206 0.80815 2.2848-2.0366-3.1422-4.35-6.2079-7.2422-8.9912a0.36292 0.36292 0 0 0 -0.043 -0.0345 0.36292 0.36292 0 0 0 -0.0416 -0.043c-0.1973-0.17776-0.39402-0.34017-0.5794-0.50314-1.7303-2.2125-3.7183-4.4376-6.0246-6.6149a0.36292 0.36292 0 0 0 -0.0272 -0.0244c-0.0229-0.0187-0.0473-0.0345-0.066-0.0473a0.36292 0.36292 0 0 0 -0.26779 -0.0631 0.36292 0.36292 0 0 0 -0.0142 0c-0.18826 0-0.37708 0.0142-0.56648 0.0172a0.36292 0.36292 0 0 0 -0.2329 0.6295c0.78056 0.72714 1.3923 1.4728 2.0975 2.2107-1.051-0.76305-2.0484-1.5822-3.1562-2.2804-1.0271-0.6476-2.0755-1.2632-3.1408-1.847a0.36292 0.36292 0 0 0 -0.0258 -0.0142c-1.9007-0.85595-3.8088-1.5861-5.7111-2.2369a0.36292 0.36292 0 0 0 -0.11202 -0.0962c-2.5122-1.4012-5.2061-2.6628-8.0742-3.7289a0.36292 0.36292 0 0 0 -0.36386 0.0646c-0.12058 0.10332-0.24023 0.20791-0.35941 0.31145a0.36292 0.36292 0 0 0 0.11203 0.61429c0.8314 0.30628 1.5746 0.70332 2.372 1.0455-2.476-0.54149-4.9297-0.96696-7.3206-1.1502-0.86585-0.066-1.6855-0.0402-2.4919-0.0589-3.041-0.66756-6.1954-1.0791-9.4224-1.1871zm7.8913 1.7251c0.36457 0.0704 0.75601 0.0617 1.1174 0.13925-0.63553 0.20274-1.127 0.46682-1.699 0.69914 0.17605-0.066 0.30198-0.14668 0.48148-0.21137a0.36292 0.36292 0 0 0 0.10047 -0.6272zm-13.781 2.4982c-0.43595 0.69728-0.80699 1.3957-1.0433 2.0888-0.0818 0.23563-0.13925 0.46711-0.20047 0.6993h-0.27654c0.0416-0.15713 0.0747-0.31232 0.12627-0.47055 0.17016-0.52585 0.47112-1.0874 0.79278-1.6662a0.36292 0.36292 0 0 0 -0.22645 -0.52712c0.0832-0.0142 0.16499-0.0331 0.24827-0.0416a0.36292 0.36292 0 0 0 0.25273 0c0.10048-0.0373 0.22543-0.0503 0.32667-0.0877zm30.029 0.0142c0.26938 0.14351 0.58428 0.24538 0.8495 0.39199-0.35684-0.0172-0.63612 0.0331-0.98232 0.0258a0.36292 0.36292 0 0 0 0.13213 -0.41815zm-31.182 0.17201c-0.12501 0.0489-0.2434 0.10776-0.36816 0.15681a0.36292 0.36292 0 0 0 -0.0142 -0.0919c0.125-0.0158 0.24913-0.0503 0.37463-0.0646zm-8.4272 5.112c-0.0861 0.98576-0.0142 1.9279 0.12058 2.8446-0.079 0.0158-0.15852 0.0331-0.2375 0.0503-0.0919-0.67043-0.13782-1.3582-0.12358-2.0888a0.36292 0.36292 0 0 0 -0.60106 -0.281c-0.14431 0.12642-0.25431 0.26464-0.39647 0.39215a0.36292 0.36292 0 0 0 -0.043 -0.21353c0.27412-0.11345 0.51377-0.27899 0.79075-0.3877a0.36292 0.36292 0 0 0 0.10048 -0.0589c0.11203-0.0934 0.27813-0.16485 0.39201-0.25704zm56.515 4.1014c0.25387 0.30641 0.59059 0.60839 0.83413 0.91468-0.34506-0.19472-0.6815-0.31821-1.0258-0.50315a0.36292 0.36292 0 0 0 0.1917 -0.41153zm-63 3.315a0.36292 0.36292 0 0 0 0.069 0.22659c0.56991 0.78185 1.1947 1.5278 1.8295 2.2652-0.0359 0.0158-0.0718 0.0316-0.10633 0.0473-0.55312-0.62448-1.0708-1.2618-1.5921-1.9254a0.36292 0.36292 0 0 0 -0.60338 0.0503c-0.22888 0.418-0.30944 0.83183-0.51407 1.2503 0.12501-0.25403 0.16385-0.50157 0.2984-0.75588a0.36292 0.36292 0 0 0 -0.0891 -0.44872c0.0674-0.0473 0.122-0.10475 0.18941-0.15238a0.36292 0.36292 0 0 0 0.31145 -0.18309c0.0761-0.13212 0.14067-0.24654 0.20707-0.37463zm-2.8859 6.9111a0.36292 0.36292 0 0 0 0.0775 0.14384c0.63051 0.70159 1.2843 1.4006 1.9299 2.091-0.0142 0-0.0229 0.0142-0.0345 0.0201-0.53905-0.56317-1.0561-1.1164-1.6008-1.6945a0.36292 0.36292 0 0 0 -0.61659 0.16341c-0.0258 0.10475-0.0459 0.2128-0.0718 0.31792a0.36292 0.36292 0 0 0 -0.1917 -0.27226c0.11915-0.125 0.20806-0.26191 0.32896-0.38555a0.36292 0.36292 0 0 0 0.0919 -0.16111c0.0187-0.0733 0.0674-0.14922 0.0875-0.22213zm77.05 3.0996c0.0875 0.32021 0.25314 0.68823 0.32896 0.99968-0.26507-0.30699-0.54278-0.50386-0.81029-0.79938a0.36292 0.36292 0 0 0 0.17647 -0.1481 0.36292 0.36292 0 0 0 0.30486 -0.0517zm-23.05 12.59c0 0.0158 0.0142 0.0158 0.0172 0.0222-0.44888 0.26489-0.84835 0.56284-1.2329 0.8714 0.39761-0.30619 0.76635-0.63642 1.2155-0.89307zm-1.8492 1.3613a0.36292 0.36292 0 0 0 0.24382 0.58151c0.0142 0.001 0.0172 0 0.0272 0a0.36292 0.36292 0 0 0 -0.0891 0.12975c-0.0976-0.0649-0.17676-0.16076-0.27441-0.22421a0.36292 0.36292 0 0 0 -0.17 -0.0554c-0.10634-0.0158-0.19889 0.019-0.30486 0.0158a0.36292 0.36292 0 0 0 0.0459 -0.0459c0.0142-0.0158 0.0244-0.0317 0.0373-0.0459 0.13925-0.13608 0.33615-0.22437 0.48347-0.35507zm-6.3297 1.407a0.36292 0.36292 0 0 0 0.38986 0.13767 0.36292 0.36292 0 0 0 -0.0172 0.13924c-0.0804-0.0158-0.15522-0.0665-0.2352-0.0807a0.36292 0.36292 0 0 0 -0.15253 0 0.36292 0.36292 0 0 0 0.0142 -0.17421c0-0.0158 0.0142-0.0174 0.0142-0.0253zm36.686 0.58167a0.36292 0.36292 0 0 0 0.53575 0.14399c-0.0546 0.35286-0.0646 0.75699-0.12786 1.0977-0.16312-0.41995-0.3986-0.78231-0.57063-1.1958a0.36292 0.36292 0 0 0 0.16326 -0.0459zm-19.522 0.89734c0.0142 0.0206 0.0142 0.0411 0.0229 0.0633-0.86471 0-1.7056 0.0475-2.4678 0.1807a0.36292 0.36292 0 0 0 -0.14209 0.65777c0.0373 0.0237 0.0704 0.0617 0.10633 0.087a0.36292 0.36292 0 0 0 -0.0818 0.0633c-0.11773-0.16599-0.19629-0.35445-0.31807-0.51838a0.36292 0.36292 0 0 0 -0.0976 -0.0886c-0.0574-0.0364-0.1163-0.0601-0.17418-0.0965a0.36292 0.36292 0 0 0 0.0804 -0.0585c0.94669-0.21962 1.9738-0.32184 3.0733-0.28972zm-21.3 3.0297a0.36292 0.36292 0 0 0 0.0877 0.11867c-0.0934 0.038-0.19888 0.0301-0.29192 0.0696 0-0.0538 0-0.11234-0.0142-0.16551a0.36292 0.36292 0 0 0 0.21122 -0.0237zm25.31 3.9598c0.17748 0.087 0.36329 0.23782 0.54235 0.33339a0.36292 0.36292 0 0 0 -0.18726 0.5554c0.0201 0.0285 0.0373 0.0649 0.0574 0.0934a0.36292 0.36292 0 0 0 -0.0818 0.0411c-0.10332-0.29843-0.13924-0.59986-0.25043-0.89734a0.36292 0.36292 0 0 0 -0.0503 -0.0934c-0.0142-0.0158-0.0187-0.0206-0.0272-0.0332zm-27.547 1.601s-0.0142 0.0158-0.0172 0.0158v-0.0158a0.36292 0.36292 0 0 0 0.0215 0zm45.705 2.2412c0 0.0158 0 0.0174 0.0142 0.0253-0.19816 0.42833-0.4009 0.84765-0.60984 1.2524a0.36292 0.36292 0 0 0 -0.0142 0.0158c-0.40824 0.69464-0.79982 1.3687-1.1871 2.0365 0-0.0237 0.0142-0.0459 0.0142-0.0696a0.36292 0.36292 0 0 0 0 -0.0886c-0.0517-0.36869-0.167-0.73927-0.22874-1.1087a0.36292 0.36292 0 0 0 0.10633 -0.0158v0.0649a0.36292 0.36292 0 0 0 0.67746 0.20902c0.31505-0.55761 0.59319-1.0776 0.91469-1.6423a0.36292 0.36292 0 0 0 0.0142 -0.0174c0.10776-0.21361 0.20765-0.44004 0.31146-0.65983zm-12.528 7.717c0.12484 0.16615 0.20448 0.36457 0.32237 0.53578a0.36292 0.36292 0 0 0 -0.29838 0.28751c-0.0158-0.27375 0-0.5497-0.0244-0.82329zm0.0272 0.98437c0.0603 0.23719 0.0775 0.4929 0.13213 0.73199a0.36292 0.36292 0 0 0 -0.11203 0.0285c-0.0142-0.25302-0.0142-0.50714-0.0215-0.76zm7.6953 5.9551a0.36292 0.36292 0 0 0 0.1894 0.0506c-0.0503 0.14241-0.0877 0.2921-0.13924 0.4334a0.36292 0.36292 0 0 0 0.45088 0.46837c-0.24295 0.3027-0.50055 0.61284-0.73605 0.91253 0-0.0158 0.0142-0.0174 0.0142-0.0253a0.36292 0.36292 0 0 0 0.0172 -0.0538c0.12643-0.5709 0.10633-1.2004 0.20477-1.7838zm-6.5343 6.837c0.0142 0.63657 0.0331 1.2697-0.0201 1.9168a0.36292 0.36292 0 0 0 -0.38354 0.30919c-0.00071 0 0 0.0158 0 0.0174-0.1307 0.9138-0.29408 1.8195-0.47916 2.7204a0.36292 0.36292 0 0 0 -0.11203 -0.0158c0.39128-1.6325 0.71135-3.2857 0.99538-4.9486zm2.2392 2.1564a0.36292 0.36292 0 0 0 0.1808 0.12817c-0.1364 0.22628-0.23047 0.50287-0.37047 0.72519a0.36292 0.36292 0 0 0 0.30714 0.55761c-0.40852 0.38498-0.811 0.77171-1.1978 1.1587 0.44069-0.7899 0.70546-1.7224 1.0804-2.5702zm-33.312 1.0869s0 0.0158-0.0142 0.0158c-0.001-0.001 0 0 0 0a0.36292 0.36292 0 0 0 0.0142 0zm29.914 4.1559a0.36292 0.36292 0 0 0 0.0546 0.022c-0.0316 0.038-0.0603 0.081-0.0919 0.1187 0.0142-0.048 0.0229-0.095 0.0373-0.1424z" fill="#000200"/>
	</g>
</svg>
