<svg xmlnsRdf="http://www.w3.org/1999/02/22-rdf-syntax-ns#" 
xmlns="http://www.w3.org/2000/svg" height="150" width="150" version="1.1" 
xmlnsCc="http://creativecommons.org/ns#" xmlnsXlink="http://www.w3.org/1999/xlink" 
viewBox="0 0 150 150" 
xmlnsDc="http://purl.org/dc/elements/1.1/">
	<g transform="translate(0 -902.36)">
		<path style="color-rendering:auto;text-decoration-color:#000000;color:#000000;isolation:auto;mix-blend-mode:normal;shape-rendering:auto;solid-color:#000000;block-progression:tb;text-decoration-line:none;text-decoration-style:solid;image-rendering:auto;white-space:normal;text-indent:0;text-transform:none" d="m72.525 902.86a2.2453 2.2453 0 0 0 -1.829 0.95886l-50.279 72.016a2.2453 2.2453 0 0 0 -1.4289 3.1393 2.2453 2.2453 0 0 0 1.3144 1.7105l57.44 70.329a2.2453 2.2453 0 0 0 3.9986 -1.2912l51.064-70.38a2.2453 2.2453 0 0 0 -0.0656 -2.7222l-58.442-72.9a2.2453 2.2453 0 0 0 -1.7634 -0.84025zm0.13537 5.9885 0.26682 0.33228 1.3971 32.663-24.29-0.58639 22.627-32.408zm1.086 1.3548 25.853 32.25-24.498-0.59057-1.3548-31.659zm-3.9225 4.7395a0.38712 0.38712 0 0 0 -0.30269 0.16299l-16.012 22.57a0.38712 0.38712 0 0 0 0.29208 0.60955l16.012 0.96529a0.38712 0.38712 0 0 0 0.4107 -0.38741v-23.535a0.38712 0.38712 0 0 0 -0.40023 -0.3853zm7.119 0.77061a0.38712 0.38712 0 0 0 -0.35557 0.40009l0.77046 23.149a0.38712 0.38712 0 0 0 0.35781 0.37259l17.942 1.3505a0.38712 0.38712 0 0 0 0.3366 -0.62017l-18.713-24.49a0.38712 0.38712 0 0 0 -0.30074 -0.15239 0.38712 0.38712 0 0 0 -0.03766 0zm-7.4937 0.82977v21.909l-14.904-0.8976 14.904-21.012zm7.9508 0.75358 17.453 22.851-16.731-1.2596-0.7219-21.592zm-12.225 11.401a0.46454 0.46454 0 0 0 -0.04603 0 0.46454 0.46454 0 0 0 -0.43387 0.44658l-0.14193 2.8134-1.4839-1.4353a0.46454 0.46454 0 1 0 -0.64557 0.66676l1.685 1.63c-0.01675 0.0168-0.02928 0.0321-0.04603 0.0489l-3.1413 0.61809a0.46498 0.46498 0 1 0 0.17988 0.91239l1.7803-0.3493c-0.053 0.053-0.12979 0.12699-0.17989 0.17779-0.2537 0.25482-0.47098 0.47392-0.63091 0.63719-0.15979 0.16315-0.22412 0.22119-0.31315 0.33228a0.46469 0.46469 0 1 0 0.72608 0.58011c-0.04189 0.0503 0.0949-0.10327 0.25189-0.26249 0.15658-0.15993 0.37163-0.37693 0.6245-0.63092 0.30758-0.30897 0.71855-0.71939 1.1029-1.1028l-0.10606 2.1167a0.46454 0.46454 0 1 0 0.92732 0.046l0.0949-1.8946 1.4816 1.4331a0.46485 0.46485 0 1 0 0.64571 -0.66888l-1.4395-1.3929 1.3993-0.27519a0.46496 0.46496 0 0 0 -0.17988 -0.91225l-1.5856 0.31105c0.9844-0.97812 2.0513-2.0342 2.0513-2.0342a0.46454 0.46454 0 1 0 -0.65408 -0.65827s-0.91225 0.90445-1.5875 1.5748l0.11164-2.2354a0.46454 0.46454 0 0 0 -0.44656 -0.49526zm16.437 1.3506a0.46454 0.46454 0 0 0 -0.04189 0 0.46454 0.46454 0 0 0 -0.35781 0.7134l1.6406 2.682c-0.77982 0-1.9177-0.0154-1.9177-0.0154a0.46469 0.46469 0 1 0 -0.01393 0.92926s0.92272 0.014 1.3464 0.014l-1.3675 1.2575a0.46454 0.46454 0 1 0 0.62854 0.68366l1.4353-1.3208-0.27728 1.4712a0.46454 0.46454 0 1 0 0.91225 0.17361l0.28161-1.4988 0.74716 1.2194a0.46454 0.46454 0 1 0 0.79182 -0.48481l-0.9082-1.4839c1.4206 0.014 2.7874 0.0209 2.9233 0.0209a0.46464 0.46464 0 0 0 0 -0.92928c-0.07673 0-1.4428-0.0139-2.807-0.0209l1.1453-1.0542a0.46454 0.46454 0 1 0 -0.62868 -0.68171l-0.74939 0.69008 0.31329-1.6616a0.46454 0.46454 0 1 0 -0.91239 -0.17151l-0.38097 2.0174-1.4183-2.3201a0.46454 0.46454 0 0 0 -0.38307 -0.22858zm-32.11 11.971 24.854 0.60119 1.4606 34.1-0.38949 0.49106-27.061-33.562 1.1366-1.63zm25.633 0.62017 25.097 0.60537 1.0138 1.2638-24.693 31.276-1.4183-33.145zm-21.894 0.66049a0.38712 0.38712 0 0 0 -0.3006 0.62659s4.583 5.8338 9.2124 11.765c2.3148 2.9657 4.6404 5.9556 6.4119 8.2514 0.88574 1.1478 1.6332 2.1221 2.1698 2.8322 0.26822 0.35516 0.48425 0.64513 0.6372 0.85521 0.15294 0.21017 0.26696 0.39423 0.24128 0.34299 0.01393 0.0238 0.02372 0.0529 0.06138 0.0949 0.01817 0.0212 0.04331 0.0476 0.08511 0.0741 0.04189 0.0265 0.17667 0.0618 0.17779 0.0618 0 0.00017 0.22119-0.0423 0.2223-0.0423 0-0.00071 0.09768-0.0696 0.12281-0.10186 0.05159-0.0626 0.06138-0.10328 0.07117-0.13397 0.04189-0.12144 0.0321-0.1584 0.03625-0.23486 0.01393-0.1532 0.000132-0.36742-0.01393-0.65422-0.0209-0.57326-0.07399-1.4242-0.14597-2.466-0.14486-2.0837-0.3726-4.9301-0.61389-7.8006-0.48243-5.7408-1.014-11.577-1.014-11.577a0.38712 0.38712 0 0 0 -0.35139 -0.3493l-16.975-1.5432a0.38712 0.38712 0 0 0 -0.03624 0zm0.86159 0.8531 15.762 1.433c0.02787 0.31093 0.51564 5.6731 0.9844 11.251 0.24114 2.8688 0.46945 5.714 0.61388 7.79 0.05865 0.84526 0.09071 1.4501 0.11723 1.9877-0.08096-0.10883-0.13118-0.1793-0.22663-0.30488-0.53951-0.71411-1.2872-1.6897-2.1739-2.8386-1.7733-2.2979-4.1009-5.2893-6.416-8.2556-4.3528-5.577-8.1589-10.424-8.6599-11.062zm-6.2002 0.15656 26.668 33.073c-12.913-4.46-20.184-13.58-27.381-22.9l0.24338-4.2484a0.38712 0.38712 0 0 0 -0.40847 -0.41503 0.38712 0.38712 0 0 0 -0.36409 0.37051l-0.24128 4.223a0.38712 0.38712 0 0 0 -0.01675 0.27516l-0.01535 0.27526a0.38712 0.38712 0 0 0 0 0.0423c-5.2569 8.1182-11.273 15.502-20.163 20.368l21.678-31.054zm53.839 0.81932 25.256 31.507c-9.8554-4.3063-17.352-12.77-24.589-21.79v-4.3714a0.38712 0.38712 0 0 0 -0.39367 -0.39154 0.38712 0.38712 0 0 0 -0.38112 0.39154v4.3967c-5.8234 10.621-14.422 17.638-25.027 22.133v-0.0335l25.137-31.841zm-23.84 0.0991a0.38712 0.38712 0 0 0 -0.3514 0.40008l0.7727 22.764a0.38712 0.38712 0 0 0 0.68367 0.23495l17.362-20.836a0.38712 0.38712 0 0 0 -0.25621 -0.63092l-18.133-1.9304a0.38712 0.38712 0 0 0 -0.04048 0 0.38712 0.38712 0 0 0 -0.03766 0zm0.43819 0.8193 16.971 1.8057-16.249 19.5-0.7219-21.306zm-11.958 1.4118a0.46454 0.46454 0 0 0 -0.42117 0.35782l-0.56951 2.2438-1.16-1.5856a0.46575 0.46575 0 1 0 -0.75148 0.55039l1.2341 1.6872-2.7052 0.0811a0.46485 0.46485 0 1 0 0.02654 0.9293l1.7674-0.0529-1.4945 1.2045a0.46516 0.46516 0 1 0 0.5843 0.72389l2.0111-1.6215-0.48703 1.9158a0.46522 0.46522 0 1 0 0.90192 0.22859l0.48676-1.9179 1.0987 1.5009a0.46491 0.46491 0 0 0 0.74939 -0.55041l-1.1453-1.5644 1.9433-0.0591a0.46488 0.46488 0 0 0 -0.02928 -0.92929l-1.8838 0.0573 2.3348-1.8839a0.46454 0.46454 0 1 0 -0.58207 -0.7219l-1.7994 1.4501 0.37051-1.4564a0.46454 0.46454 0 0 0 -0.434 -0.58639 0.46454 0.46454 0 0 0 -0.04603 0zm17.593 1.5919a0.46454 0.46454 0 0 0 -0.4234 0.50378l0.13118 1.9073-2.2459-2.0872a0.46454 0.46454 0 1 0 -0.63287 0.67946l2.5062 2.3306-2.4554 0.39158a0.46454 0.46454 0 1 0 0.14598 0.91659l1.6935-0.27101-1.2003 1.3908a0.46454 0.46454 0 1 0 0.70279 0.60757l1.6279-1.8862 0.1609 2.3371a0.46471 0.46471 0 0 0 0.92718 -0.0644l-0.14192-2.0659 0.85727 0.79798a0.46454 0.46454 0 1 0 0.63301 -0.67952l-0.92509-0.85937 2.61-0.41698a0.46454 0.46454 0 1 0 -0.14597 -0.91659l-2.7393 0.43806 1.4268-1.6531a0.46454 0.46454 0 1 0 -0.70279 -0.60761l-1.1874 1.3739-0.11862-1.7295a0.46454 0.46454 0 0 0 -0.45717 -0.43819 0.46454 0.46454 0 0 0 -0.04603 0zm-36.977 6.416c6.9135 8.9332 14.133 17.736 26.483 22.305l-12.398-0.0317a0.38712 0.38712 0 0 0 -0.0209 -0.0168c-4.7386-3.6955-8.9715-7.6177-12.608-12.741a0.38712 0.38712 0 0 0 -0.33436 -0.16297 0.38712 0.38712 0 0 0 -0.29432 0.16077c-3.5794 4.9448-7.5216 9.4005-12.366 12.697l-10.832-0.0282 0.72819-1.0436c9.6838-4.9118 16.137-12.646 21.642-21.139zm55.069 0.1651c7.4666 9.2861 15.32 18.018 25.872 22.176l0.0782 0.099-14.161-0.0361c-4.1106-3.9134-6.4626-7.835-9.4813-11.808a0.38712 0.38712 0 0 0 -0.33868 -0.1524 0.38712 0.38712 0 0 0 -0.27521 0.14808c-3.0449 3.8977-7.4441 7.479-12.32 10.69a0.38712 0.38712 0 0 0 -0.05582 0.60333c0.15867 0.15222 0.32656 0.3108 0.4869 0.46354l-15.133-0.038c-0.01393 0-0.02796-0.0141-0.04189-0.0194 10.674-4.4867 19.408-11.527 25.347-22.125a0.38741 0.38741 0 0 0 0.0223 0zm-53.922 10.176c3.4334 4.7356 7.3783 8.4725 11.731 11.931l-7.4279-0.0194-4.1913-2.7964a0.38712 0.38712 0 0 0 0.13118 -0.28566l0.27296-5.5927a0.38712 0.38712 0 0 0 -0.41265 -0.41072 0.38712 0.38712 0 0 0 -0.36005 0.37261l-0.26877 5.4932-0.02654-0.0194-4.1468 3.2154-6.6998-0.0168c4.4241-3.2043 8.0829-7.3379 11.399-11.871zm55.876 1.086c2.722 3.6281 5.057 7.2968 8.7763 10.976l-5.5228-0.015-3.4864-2.9869c0.0251-0.39503 0.1623-1.3245 0.31748-2.193 0.16969-0.95011 0.34078-1.7992 0.34078-1.7992a0.38712 0.38712 0 0 0 -0.38517 -0.46778 0.38712 0.38712 0 0 0 -0.37469 0.31538s-0.1715 0.85655-0.34287 1.8161c-0.17138 0.95964-0.34736 1.9727-0.34736 2.4895a0.38741 0.38741 0 0 0 0.0321 0.15442l-3.8738 2.6523-6.16-0.0168c-0.24575-0.23389-0.49987-0.47475-0.74298-0.70696 4.6026-3.0674 8.7508-6.4756 11.77-10.218zm-79.766 11.53 10.402 0.0247a0.38712 0.38712 0 0 0 0.19035 0.32182c5.4004 3.1866 10.207 6.5584 13.402 10.417a0.38712 0.38712 0 0 0 0.57147 0.0291c4.0183-3.969 8.0255-8.0886 11.983-10.703l11.355 0.0282c-9.3865 4.8853-17.806 10.617-23.484 18.679-5.5653-7.2231-13.651-12.9-23.404-17.555l-1.0159-1.2426zm11.518 0.0282 6.6764 0.0168-0.3112 0.2413 5.2265 3.823a0.38712 0.38712 0 0 0 -0.0209 0.13397v3.5478a0.38712 0.38712 0 1 0 0.77256 0v-3.5478a0.38712 0.38712 0 0 0 -0.04189 -0.17991l4.333-3.9923 7.1211 0.0168c-3.6914 2.6149-7.3452 6.2931-10.988 9.8982-3.1724-3.7132-7.6996-6.9319-12.767-9.9576zm38.012 0.0949h0.45926l-23.412 32.415-24.456-29.94c9.2124 4.5703 16.791 10.101 22 17.019a0.38712 0.38712 0 0 0 0.05724 0.0599v3.7995a0.3874 0.3874 0 0 0 0.77479 0v-4.1553c5.8246-8.3242 14.68-14.172 24.576-19.197zm1.4118 0h0.1256l0.60315 0.74506 1.4628 34.14-25.033-0.6095-1.0161-1.2448 23.859-33.031zm1.4755 0c11.272 5.01 19.982 12.172 26.871 20.893v4.3586a0.38741 0.38741 0 0 0 0.77479 0v-4.3649a0.38712 0.38712 0 0 0 0 -0.0256c5.0655-8.0138 12.133-14.334 21.808-18.512l-22.652 31.221-26.78-33.115-0.01958-0.45526zm1.7718 0 14.246 0.0361c3.8558 3.6622 7.9843 7.5037 11.073 11.408a0.38712 0.38712 0 0 0 0.63929 -0.0459c2.8644-4.9544 6.2659-8.2553 9.8602-11.075a0.38712 0.38712 0 0 0 0.13968 -0.23081l13.336 0.0317-0.82977 1.1431c-10.201 4.1672-17.696 10.621-23.001 18.876-6.6138-8.2923-14.912-15.178-25.463-20.142zm15.368 0.038 5.0719 0.0141 4.3924 3.2939a0.38712 0.38712 0 0 0 -0.0139 0.0949l0.13815 4.2293a0.38712 0.38712 0 1 0 0.7727 -0.0247l-0.1242-3.9055 4.3755-3.4504-0.2498-0.21377 5.1798 0.0141c-3.366 2.6918-6.5797 5.9144-9.3265 10.51-2.9443-3.6424-6.6688-7.1823-10.222-10.559zm-17.064 1.7166 26.253 32.464-0.91449 1.2616-23.922-0.5821-1.4162-33.143zm-2.8449 5.0402a0.38712 0.38712 0 0 0 -0.04048 0 0.38712 0.38712 0 0 0 -0.27939 0.14596l-19.483 24.693a0.38712 0.38712 0 0 0 0.30269 0.6266h20.256a0.38712 0.38712 0 0 0 0.3874 -0.398l-0.7727-24.693a0.38712 0.38712 0 0 0 -0.37051 -0.37677zm5.9778 0.96529a0.38712 0.38712 0 0 0 -0.03766 0 0.38712 0.38712 0 0 0 -0.362 0.41071l1.5432 23.535a0.38712 0.38712 0 0 0 0.37679 0.3621l16.012 0.3853a0.38712 0.38712 0 0 0 0.32167 -0.6161l-17.555-23.92a0.38712 0.38712 0 0 0 -0.2985 -0.15883zm-6.3463 0.49529 0.72399 23.234h-19.056l18.332-23.234zm6.8055 1.1918 16.304 22.216-14.871-0.3576-1.4332-21.858zm6.431 11.829a0.46454 0.46454 0 0 0 -0.41921 0.41285l-0.37246 2.902-1.7845-2.3962a0.46454 0.46454 0 1 0 -0.74521 0.5546l1.2405 1.6638-2.119-0.4656a0.46454 0.46454 0 1 0 -0.199 0.9059l3.1096 0.6837-2.0469 1.6343a0.46466 0.46466 0 0 0 0.57998 0.7259l1.7168-1.3716-0.20109 1.577a0.4653 0.4653 0 1 0 0.92299 0.1187l0.15658-1.232 0.79377 1.0648a0.46454 0.46454 0 1 0 0.74507 -0.5546l-1.2255-1.6447 2.248 0.4952a0.46483 0.46483 0 1 0 0.199 -0.908l-1.7867-0.3939 1.6872-1.3462a0.46454 0.46454 0 1 0 -0.57789 -0.7261l-1.7484 1.395 0.32808-2.5634a0.46454 0.46454 0 0 0 -0.45521 -0.53128 0.46454 0.46454 0 0 0 -0.04603 0zm-18.524 0.19265a0.46454 0.46454 0 0 0 -0.04463 0 0.46454 0.46454 0 0 0 -0.42327 0.4592l-0.05159 2.1147-1.6194-1.5685a0.46485 0.46485 0 1 0 -0.6478 0.6668l1.4098 1.3653-2.4956 0.055a0.46477 0.46477 0 0 0 0.0209 0.9292l2.9487-0.065-1.7803 2.2544a0.46454 0.46454 0 1 0 0.72818 0.5759l1.3739-1.7401-0.0321 1.3442a0.46478 0.46478 0 0 0 0.92914 0.023l0.04048-1.6956 1.486 1.4394a0.46559 0.46559 0 1 0 0.6478 -0.6689l-1.6237-1.5728 1.793-0.041a0.46454 0.46454 0 1 0 -0.0209 -0.9272l-1.5898 0.036 1.3379-1.6955a0.46506 0.46506 0 1 0 -0.73042 -0.5758l-1.2403 1.5707 0.04463-1.8034a0.46454 0.46454 0 0 0 -0.4615 -0.4828zm-15.247 13.592 24.42 0.5927 1.3231 30.927l-25.734-31.5zm25.196 0.6118 23.338 0.5673-1.8819 2.5952a0.38712 0.38712 0 0 0 -0.07814 -0.015l-18.135-1.3506a0.38712 0.38712 0 0 0 -0.03766 0 0.38712 0.38712 0 0 0 -0.37679 0.3957l0.57789 22.764a0.38712 0.38712 0 0 0 0.68589 0.2352l12.009-14.648-14.778 20.368-1.3231-30.912zm-21.867 2.1824a0.38712 0.38712 0 0 0 -0.29208 0.6394l19.098 22.377a0.38712 0.38712 0 0 0 0.68157 -0.2583l-0.3853-20.641a0.38712 0.38712 0 0 0 -0.35139 -0.3789l-18.713-1.7358a0.38712 0.38712 0 0 0 -0.03766 0zm25.478 0.4191 16.966 1.2638-16.424 20.031-0.54188-21.295zm-24.561 0.4424 17.417 1.6152 0.3599 19.212-17.777-20.827zm31.164 2.2376a0.46454 0.46454 0 0 0 -0.41921 0.4149l-0.29418 2.4025-1.9518-1.9961a0.46454 0.46454 0 1 0 -0.66259 0.6498l1.1601 1.1854-1.9793-0.2349a0.46474 0.46474 0 1 0 -0.11024 0.9229l2.936 0.3472-1.7272 1.8649a0.46454 0.46454 0 1 0 0.68157 0.6308l1.431-1.5475-0.20738 1.7061a0.46483 0.46483 0 1 0 0.92286 0.1117l0.19691-1.6109 1.1325 1.158a0.46454 0.46454 0 1 0 0.66246 -0.6498l-1.4352-1.467 1.9179 0.2265a0.46478 0.46478 0 1 0 0.11024 -0.923l-1.7655-0.2096 1.2299-1.3271a0.46454 0.46454 0 1 0 -0.68171 -0.631l-0.81066 0.8764 0.16733-1.3737a0.46454 0.46454 0 0 0 -0.45732 -0.527 0.46454 0.46454 0 0 0 -0.04603 0zm-17.851 0.9653a0.46454 0.46454 0 0 0 -0.45299 0.3746l-0.50169 2.3645-0.08652-0.015-1.2913-1.6703a0.46471 0.46471 0 1 0 -0.73446 0.5695l0.66887 0.8637-2.2947-0.4001a0.46454 0.46454 0 1 0 -0.1609 0.9145l3.1138 0.5418c-0.81289 0.6725-1.7401 1.4417-1.7401 1.4417a0.46454 0.46454 0 1 0 0.59491 0.7134s0.87554-0.724 1.5813-1.3084l-0.4996 2.3497a0.46454 0.46454 0 1 0 0.90821 0.1927l0.41684-1.9666 0.8828 1.141a0.46454 0.46454 0 1 0 0.73447 -0.5673l-1.3357-1.7274 1.7103 0.2985a0.46454 0.46454 0 1 0 0.15881 -0.9144l-1.2595-0.2202c0.2424-0.1978 0.51969-0.4262 0.72385-0.5905 0.23612-0.1901 0.4407-0.3498 0.59059-0.4658 0.07532-0.058 0.13676-0.1061 0.18002-0.1382 0.04321-0.032 0.09349-0.056 0.03766-0.029a0.46532 0.46532 0 1 0 -0.41698 -0.832c-0.0921 0.046-0.11164 0.067-0.16718 0.1075-0.05582 0.041-0.1242 0.094-0.20333 0.1546-0.15853 0.1228-0.36451 0.2864-0.60314 0.4784-0.11444 0.093-0.27506 0.225-0.40219 0.3281l0.30269-1.4245a0.46454 0.46454 0 0 0 -0.45508 -0.5675z" fill-rule="evenodd" fill="#000200"/>
	</g>
</svg>
