<svg 
xmlnsRdf="http://www.w3.org/1999/02/22-rdf-syntax-ns#" 
xmlns="http://www.w3.org/2000/svg" 
height="150" 
width="150" 
version="1.1" 
xmlnsCc="http://creativecommons.org/ns#" 
xmlnsXlink="http://www.w3.org/1999/xlink" 
viewBox="0 0 150 150" 
xmlnsDc="http://purl.org/dc/elements/1.1/">
	<g transform="translate(0 -902.36)">
		<path style="color-rendering:auto;text-decoration-color:#000000;color:#000000;isolation:auto;mix-blend-mode:normal;shape-rendering:auto;solid-color:#000000;block-progression:tb;text-decoration-line:none;text-decoration-style:solid;image-rendering:auto;white-space:normal;text-indent:0;text-transform:none" d="m116.5 923.39c-0.34526 0.0158-0.71632 0.0997-1.15 0.24225-0.86791 0.28419-1.9743 0.79512-3.2655 1.475-2.5822 1.3597-5.8823 3.3941-9.1625 5.5951-3.2802 2.2012-6.5365 4.5669-9.0229 6.5925-1.2432 1.0127-2.2936 1.9384-3.0659 2.7278-0.77234 0.78942-1.2959 1.3613-1.4255 2.0515a0.53497 0.53497 0 1 0 1.0513 0.19764c0.019-0.10285 0.4133-0.75937 1.1388-1.5007 0.72534-0.74148 1.7524-1.6499 2.9767-2.6471 2.448-1.9942 5.6864-4.3476 8.944-6.5336 3.2577-2.186 6.5396-4.2065 9.0649-5.5363 1.2626-0.66474 2.3404-1.1568 3.1001-1.4056 0.37976-0.12501 0.68325-0.18419 0.84908-0.18909 0.16567 0 0.0934 0.0237 0.0364-0.0744a0.53497 0.53497 0 1 0 0.91744 -0.54986c-0.21963-0.36616-0.63958-0.45572-0.985-0.44559zm-80.119 0.18909a0.53497 0.53497 0 1 0 0.12026 1.0628c1.9982-0.22627 4.693 0.80889 7.5251 2.5909 2.8321 1.7822 5.8029 4.2772 8.4503 6.8176 2.6474 2.5403 4.9749 5.1283 6.5355 7.0901 0.78041 0.98089 1.3709 1.8092 1.702 2.3716 0.14399 0.24352 0.21156 0.40682 0.2489 0.50998a0.53497 0.53497 0 0 0 0.61632 0.7532c0.21662-0.0538 0.43894-0.30555 0.48056-0.5005 0.04114-0.19494 0.01582-0.33039-0.02848-0.46156-0.07437-0.26251-0.20697-0.52233-0.39606-0.84355-0.37818-0.64227-0.98674-1.4907-1.7857-2.495-1.5978-2.0085-3.9501-4.6218-6.6333-7.1964-2.6832-2.5748-5.6931-5.1087-8.6202-6.9506-2.9272-1.8418-5.7695-3.0257-8.2156-2.7487zm86.172 6.242a0.53497 0.53497 0 0 0 -0.47391 0.71901c0.0934 0.26504 0.0491 0.95177-0.25175 1.8548-0.30096 0.9032-0.81822 2.0248-1.4864 3.2664-1.3364 2.4832-3.2737 5.4508-5.2855 8.2745s-4.1001 5.5073-5.7396 7.4321c-0.81981 0.96237-1.5295 1.7366-2.0468 2.233-0.25871 0.24811-0.47311 0.42818-0.60128 0.51473-0.0285 0.019-0.0237 0.0158-0.0411 0.0237a0.53497 0.53497 0 0 0 -0.31821 0.98294c0.23466 0.15665 0.46726 0.10918 0.60508 0.0633 0.13767-0.0459 0.24147-0.10759 0.35223-0.18323 0.22168-0.15032 0.46046-0.35792 0.74275-0.62882 0.56473-0.54179 1.2875-1.3325 2.1208-2.3108 1.667-1.9569 3.7686-4.6574 5.7977-7.5052 2.0289-2.8479 3.9835-5.8391 5.3557-8.3886 0.6861-1.2746 1.2268-2.4371 1.5596-3.4352 0.33293-0.9983 0.49796-1.8298 0.24606-2.5474a0.53497 0.53497 0 0 0 -0.53578 -0.36473zm-94.793 1.7361a0.53497 0.53497 0 0 0 -0.51663 0.68863c3.2485 11.424 10.291 20.886 17.1 30.385a0.53497 0.53497 0 1 0 0.86902 -0.62312c-6.814-9.52-13.759-18.88-16.939-30.06a0.53497 0.53497 0 0 0 -0.51188 -0.39606zm12.286 60.368c-0.19526-0.0158-0.39194 0.0348-0.55666 0.10444-0.32912 0.14082-0.63024 0.37453-0.95921 0.68293-0.65778 0.6168-1.4089 1.5515-2.2434 2.7259-1.6689 2.3487-3.6465 5.6486-5.5249 9.0875-1.8782 3.4389-3.6539 7.0123-4.9056 9.9024-0.62581 1.4452-1.1206 2.7182-1.4342 3.7318-0.15665 0.5068-0.26884 0.9478-0.3277 1.3277-0.05855 0.38-0.09019 0.6902 0.03639 1.0249a0.53528 0.53528 0 0 0 1.0029 -0.3742c0 0.016-0.0269-0.1891 0.01899-0.4874 0.04747-0.2981 0.14558-0.7003 0.29242-1.1758 0.29416-0.9507 0.77788-2.1982 1.3944-3.6215 1.2326-2.8466 2.9973-6.4008 4.862-9.815 1.8646-3.4141 3.8326-6.6932 5.4584-8.9812 0.81284-1.144 1.5463-2.0418 2.1037-2.5643 0.27865-0.26141 0.51726-0.4247 0.64781-0.48072 0.12975-0.0554 0.0538-0.0269 0.0174-0.057a0.53519 0.53519 0 1 0 0.6687 -0.83579c-0.16077-0.12817-0.3546-0.18656-0.54986-0.19479zm67.566 2.8512a0.53497 0.53497 0 0 0 -0.39211 0.86142c8.1775 10.896 12.725 19.969 17.317 29.097a0.53524 0.53524 0 1 0 0.95652 -0.4806c-4.5916-9.1266-9.1839-18.286-17.418-29.258a0.53497 0.53497 0 0 0 -0.46362 -0.21931zm-48.587 15.284a0.53497 0.53497 0 0 0 -0.37216 0.1503c-6.7988 6.4039-11.426 13.025-26.879 17.592a0.53497 0.53497 0 1 0 0.30397 1.0258c15.669-4.6308 20.601-11.521 27.308-17.839a0.53497 0.53497 0 0 0 -0.36093 -0.9288zm29.498 2.0838a0.53497 0.53497 0 0 0 -0.38372 0.89c8.1493 9.4095 17.866 17.233 27.131 17.552a0.53497 0.53497 0 1 0 0.0364 -1.0684c-8.6807-0.2986-18.296-7.8727-26.36-17.184a0.53497 0.53497 0 0 0 -0.4247 -0.19zm-21.724 18.483c-1.3353-0.2535-2.8253 0.2826-5.8755 2.0058l0.63816 1.1296c2.9882-1.6882 4.1816-2.0158 4.9943-1.8616 0.81269 0.155 1.6615 0.9652 3.6925 1.831 2.0142 1.2091 3.4756 1.8545 5.1285 1.7299 1.6774-0.1266 3.3977-0.9703 6.1618-2.4566l-0.61284-1.1423c-2.7408 1.4739-4.3525 2.2072-5.6477 2.3048-1.2951 0.097-2.4379-0.3771-4.4397-1.5855l-0.03798-0.025-0.04272-0.017c-1.8604-0.7931-2.6232-1.6586-3.9585-1.9121zm16.687 4.2118c-1.3353 0.2534-2.0983 1.1189-3.9585 1.912l-0.04272 0.017-0.03639 0.024c-2.0018 1.2084-3.1471 1.6857-4.4422 1.588-1.2951-0.098-2.9044-0.8307-5.6453-2.3048l-0.61537 1.1423c2.7639 1.4863 4.4869 2.3302 6.1645 2.4566 1.6527 0.125 3.1118-0.5208 5.126-1.7298l0.05538-0.029c0.01582 0 0.01582 0 0.02532-0.016 1.9363-0.8442 2.8167-1.6396 3.6117-1.7904 0.81253-0.1551 2.0085 0.1707 4.9968 1.8589l0.63816-1.1271c-3.0504-1.7232-4.5405-2.2593-5.8758-2.0058zm43.986-70.204-1.1423 0.61284c1.4739 2.7409 2.2072 4.3527 2.3047 5.6478 0.0965 1.2951-0.37692 2.4379-1.5853 4.4396l-0.0237 0.038-0.019 0.0427c-0.7929 1.8602-1.6584 2.6232-1.9119 3.9584-0.25349 1.3353 0.28245 2.8254 2.0058 5.8757l1.1296-0.63816c-1.6884-2.9882-2.0159-4.1816-1.8616-4.9943 0.15032-0.7948 0.94655-1.6752 1.7906-3.6114l0.0158-0.0269c0.0158-0.0301 0.0158-0.0253 0.0269-0.0554 1.2092-2.0142 1.8545-3.4758 1.7298-5.1287-0.12659-1.6774-0.97045-3.3977-2.4566-6.1618zm3.8394-7.8232c-1.7232 3.0503-2.2593 4.5404-2.0058 5.8757 0.25349 1.3353 1.119 2.0982 1.9122 3.9584l0.019 0.0427 0.0237 0.038c1.2084 2.0018 1.6855 3.1471 1.588 4.4422-0.0965 1.2951-0.83073 2.9044-2.3047 5.6451l1.1421 0.61537c1.4863-2.7639 2.33-4.4867 2.4566-6.1643 0.125-1.6529-0.52059-3.1118-1.7298-5.126l-0.0285-0.0554c0-0.0158-0.0158-0.0158-0.0158-0.0269-0.84402-1.9362-1.6396-2.8166-1.7904-3.6115-0.15507-0.81253 0.17326-2.0086 1.8614-4.9968l-1.1296-0.63816zm-108.41 5.1057-1.1296 0.63815c1.6882 2.9882 2.0132 4.1842 1.8591 4.9969-0.15507 0.81268-0.96538 1.6588-1.8312 3.69l0.04272-0.0791c-1.2445 2.0615-1.8967 3.5296-1.7703 5.2072 0.12659 1.6773 0.96776 3.4003 2.4542 6.1643l1.1423-0.61537c-1.4739-2.7409-2.2072-4.3527-2.3048-5.6478-0.09652-1.2951 0.37944-2.4379 1.588-4.4396l0.02374-0.038 0.01899-0.0427c0.79275-1.8605 1.6586-2.6232 1.9121-3.9585 0.25333-1.3353-0.28023-2.8252-2.0034-5.8757zm-4.5842 7.8207c-1.4863 2.7639-2.33 4.4869-2.4564 6.1645-0.125 1.6524 0.51853 3.1124 1.7271 5.1258 0.86585 2.0314 1.6768 2.8798 1.8309 3.6927 0.15507 0.81253-0.17058 2.0085-1.8588 4.9969l1.1295 0.63815c1.7233-3.0504 2.2567-4.5404 2.0032-5.8757-0.25333-1.3353-1.119-2.0982-1.9121-3.9585l-0.01899-0.0427-0.02373-0.038c-1.2084-2.0016-1.6855-3.1444-1.588-4.4396 0.09652-1.2951 0.83342-2.9069 2.3074-5.6478l-1.1423-0.61537zm48.482-54.651c-1.3353-0.25365-2.8253 0.28007-5.8755 2.0032l0.63816 1.1295c2.9882-1.688 4.1816-2.013 4.9943-1.8589 0.81269 0.15507 1.6615 0.96253 3.6925 1.8287 2.0142 1.2089 3.4756 1.8543 5.1285 1.7296 1.6774-0.12659 3.3977-0.97044 6.1618-2.4567l-0.61284-1.142c-2.7408 1.4738-4.3525 2.2092-5.6477 2.3072-1.2951 0.0965-2.4379-0.3796-4.4397-1.588l-0.03798-0.0237-0.04272-0.0206c-1.8604-0.79322-2.6232-1.6562-3.9585-1.9097zm16.687 4.2115c-1.3353 0.25349-2.0983 1.1165-3.9585 1.9097l-0.04272 0.0174-0.03639 0.0253c-2.0018 1.2084-3.1471 1.6833-4.4422 1.5855-1.2951-0.0965-2.9044-0.83088-5.6453-2.3047l-0.61537 1.1423c2.7639 1.4863 4.4869 2.3301 6.1645 2.4566 1.6527 0.125 3.1118-0.52075 5.126-1.7298l0.05222-0.0285c0.01582-0.0158 0.01899-0.0158 0.02848-0.0158 1.9363-0.84434 2.8167-1.6371 3.6115-1.788 0.81269-0.15349 2.0086 0.17073 4.9969 1.8589l0.63831-1.1295c-3.0504-1.7232-4.5405-2.2569-5.8758-2.0034zm-6.4569 26.415a0.45546 0.45546 0 0 0 -0.4709 0.43895l-0.2432 4.7783c-0.1076-0.25538-0.19478-0.47264-0.30586-0.7323-0.63768-1.4912-1.2755-2.934-1.2755-2.934a0.45546 0.45546 0 1 0 -0.83294 0.36773s0.63562 1.4394 1.2708 2.9243c0.04747 0.11235 0.08545 0.20428 0.13292 0.31726l-2.7563-2.8438a0.45546 0.45546 0 1 0 -0.6543 0.63357l3.0943 3.1922-5.3899-1.8434a0.45546 0.45546 0 1 0 -0.29542 0.86142l4.3908 1.5024-5.0538-0.14241a0.45565 0.45565 0 1 0 -0.02532 0.91095l5.9618 0.16709-5.2638 2.7933a0.45546 0.45546 0 1 0 0.42644 0.80446l5.0738-2.6926-3.458 3.9368a0.45567 0.45567 0 1 0 0.68483 0.60129l3.5207-4.009-2.0382 4.9578a0.45556 0.45556 0 1 0 0.84259 0.34669l1.6972-4.1296-0.2527 4.9806a0.45555 0.45555 0 1 0 0.90984 0.0475l0.29447-5.808 1.5225 3.856a0.45546 0.45546 0 1 0 0.84718 -0.33419l-1.5605-3.9541 3.0479 3.3063a0.45546 0.45546 0 1 0 0.66948 -0.61743l-3.1455-3.4125 5.1345 1.7561a0.45546 0.45546 0 1 0 0.29542 -0.86142l-5.0578-1.7306c0.54511-0.0443 1.1065-0.087 1.7012-0.12659 1.5868-0.10285 3.0821-0.17754 3.0821-0.17754a0.45558 0.45558 0 1 0 -0.04589 -0.91s-1.5001 0.0759-3.0954 0.17865c-0.65936 0.0427-1.3007 0.0918-1.8956 0.14083l4.6283-2.4561a0.45593 0.45593 0 0 0 -0.42755 -0.80541l-3.1618 1.6782 1.5605-1.966a0.45546 0.45546 0 1 0 -0.71332 -0.566l-2.4419 3.0754 1.6518-4.275a0.45575 0.45575 0 0 0 -0.85019 -0.32865l-1.5111 3.9112 0.21947-4.3225a0.45546 0.45546 0 0 0 -0.43783 -0.48548zm13.62 21.2a0.45546 0.45546 0 0 0 -0.41885 0.66094l2.9083 5.9287-2.7848-2.6414a0.45554 0.45554 0 0 0 -0.62692 0.6611l2.5844 2.4504-6.546-2.8246a0.45546 0.45546 0 0 0 -0.35998 0.83674l6.4774 2.7952-6.0157-0.2622a0.45546 0.45546 0 1 0 -0.03956 0.91l6.9819 0.30381-7.3039 3.3955a0.45554 0.45554 0 1 0 0.38372 0.8263l6.9847-3.2473c-0.87993 0.95715-1.8076 1.9635-2.4884 2.7154-0.50556 0.55825-0.92725 1.0292-1.2271 1.3724-0.15033 0.17168-0.26884 0.31109-0.35524 0.41695-0.0427 0.0538-0.0775 0.0965-0.1076 0.13924-0.0158 0.0206-0.0301 0.0411-0.0459 0.0696-0.0174 0.0285-0.0475 0.0285-0.0696 0.19083a0.45546 0.45546 0 0 0 0.86064 0.26504c0.0158-0.019 0.0364-0.0475 0.0696-0.0886 0.0744-0.0918 0.18893-0.22564 0.33529-0.39321 0.29289-0.33545 0.71316-0.80493 1.2167-1.3611 0.61758-0.68199 1.4708-1.6065 2.2624-2.4684-0.24621 0.68737-0.30444 0.84228-0.61078 1.7076-0.34891 0.98596-0.69892 1.9842-0.96491 2.7648-0.13291 0.39036-0.24463 0.7255-0.3258 0.98025-0.0411 0.12817-0.0744 0.23419-0.0981 0.32106-0.0253 0.087-0.0411 0.12184-0.0522 0.24209a0.45546 0.45546 0 1 0 0.90699 0.0823c-0.0158 0.068 0 0 0.0237-0.076 0.019-0.0712 0.0506-0.17152 0.0902-0.29336 0.0775-0.244 0.18814-0.57518 0.32011-0.96222 0.26377-0.77423 0.61284-1.7713 0.96127-2.7553 0.25491-0.72059 0.28877-0.8073 0.50888-1.4228-0.0158 0.34052-0.0158 0.35017-0.0269 0.70572-0.0348 0.91696-0.0728 1.8404-0.10127 2.5484-0.0158 0.35381-0.0269 0.65382-0.038 0.87092 0 0.10918-0.0158 0.19715-0.0158 0.25934 0 0.0617-0.0158 0.13608 0 0.0728a0.45547 0.45547 0 0 0 0.89844 0.15032c0.0158-0.0902 0.0158-0.0997 0.0158-0.1682 0-0.068 0.0158-0.15919 0.0158-0.26963 0.0158-0.22105 0.0237-0.5217 0.0411-0.87662 0.0301-0.71015 0.0649-1.6347 0.10127-2.5521 0.0301-0.78247 0.0348-0.91855 0.057-1.5529l3.0327 6.1812a0.45546 0.45546 0 1 0 0.81775 -0.4008l-2.6309-5.3635c0.17595 0.18403 0.17754 0.1864 0.35808 0.37517 0.613 0.64116 1.2311 1.2869 1.705 1.7819 0.47376 0.49495 0.76949 0.80556 0.84719 0.88326a0.45546 0.45546 0 1 0 0.64385 -0.64401s-0.3603-0.37422-0.83389-0.86902c-0.47359-0.49464-1.0909-1.1407-1.7039-1.7817-0.33166-0.34685-0.35286-0.36916-0.65825-0.68863l3.555 1.5339a0.45546 0.45546 0 1 0 0.36093 -0.83594l-3.7259-1.6078 2.8142 0.12184a0.45546 0.45546 0 1 0 0.0396 -0.91l-2.8474-0.12342 6.111-2.5577a0.45574 0.45574 0 0 0 -0.35254 -0.84053l-6.069 2.5406c1.6208-1.7485 3.6215-3.9065 3.6215-3.9065a0.45564 0.45564 0 0 0 -0.66663 -0.62123s-2.0278 2.1873-3.7016 3.993l1.9842-4.7413a0.45572 0.45572 0 0 0 -0.84054 -0.35239l-1.7657 4.2199 0.13291-4.1791a0.45566 0.45566 0 1 0 -0.91079 -0.0285l-0.1595 5.0358-3.1314-6.3825a0.45546 0.45546 0 0 0 -0.39891 -0.2603zm-42.547 0.74844a0.45546 0.45546 0 0 0 -0.38846 0.68009l2.8626 5.2181-4.1791-3.7906a0.45557 0.45557 0 0 0 -0.61157 0.67534l3.9986 3.6272-4.8601-2.099a0.45546 0.45546 0 1 0 -0.36093 0.83579l5.2239 2.2558-2.8341-0.0933a0.45569 0.45569 0 1 0 -0.03006 0.91079l3.4496 0.11551-6.4909 2.9425a0.4557 0.4557 0 1 0 0.37628 0.83009l5.6662-2.5692-4.1324 4.5429a0.45557 0.45557 0 1 0 0.67439 0.61268l4.1573-4.5695-2.5197 6.1879a0.45546 0.45546 0 1 0 0.84323 0.34384l2.8265-6.942 0.22706 5.3291a0.45546 0.45546 0 1 0 0.90984 -0.0396l-0.22406-5.2608 2.627 4.7888a0.45568 0.45568 0 0 0 0.79876 -0.43878l-2.1236-3.8704 3.065 2.78a0.45552 0.45552 0 0 0 0.61252 -0.67424l-3.2044-2.9064 4.6644 2.0145a0.45564 0.45564 0 1 0 0.36093 -0.83674l-4.9237-2.1265 4.653 0.15506a0.45546 0.45546 0 1 0 0.03006 -0.90984l-4.9456-0.1644 4.8193-2.1854a0.45546 0.45546 0 1 0 -0.37612 -0.82915l-5.1745 2.346 3.0794-3.3851a0.45557 0.45557 0 1 0 -0.67439 -0.61268l-2.574 2.8295 1.948-4.7842a0.45546 0.45546 0 1 0 -0.84338 -0.34368l-1.9993 4.9112-0.15665-3.6737a0.45546 0.45546 0 1 0 -0.91 0.0396l0.17105 4.0242-3.0982-5.6474a0.45546 0.45546 0 0 0 -0.40935 -0.24226zm27.292 28.014a0.45546 0.45546 0 0 0 -0.46346 0.44748l-0.25634 8.0257-2.8029-5.0985a0.45546 0.45546 0 1 0 -0.79781 0.43878l2.1873 3.9786-3.3612-2.3621a0.45546 0.45546 0 1 0 -0.52328 0.7447l3.2805 2.307-5.1193-1.7257a0.45549 0.45549 0 0 0 -0.29068 0.8633l4.371 1.4732-3.9103 0.1861a0.45546 0.45546 0 0 0 0.04272 0.9098l4.3652-0.2079c-0.34637 0.1566-0.35761 0.1615-0.71901 0.3258-0.92218 0.419-1.8491 0.841-2.5559 1.1663-0.35334 0.1627-0.6516 0.3007-0.86807 0.4027-0.1076 0.051-0.19542 0.093-0.26109 0.125-0.03323 0.016-0.06013 0.029-0.08545 0.041-0.02374 0.016-0.02057 0-0.09652 0.058a0.45546 0.45546 0 0 0 0.51853 0.7485v0c0.01582 0 0.03481-0.016 0.06171-0.03 0.05696-0.029 0.14241-0.068 0.24779-0.1187 0.21156-0.1 0.5084-0.2378 0.86047-0.3998 0.70414-0.3241 1.6306-0.7459 2.5521-1.1645 0.48261-0.2193 0.51252-0.2323 0.96016-0.4351l-3.4677 2.9928a0.45546 0.45546 0 1 0 0.59464 0.6896l4.2038-3.6281-1.6516 3.3042a0.45556 0.45556 0 1 0 0.8149 0.4074l1.3401-2.6803-0.06013 1.8977a0.45546 0.45546 0 1 0 0.90984 0.028l0.06013-1.8872 1.8103 3.2937a0.45546 0.45546 0 1 0 0.79781 -0.4387l-1.6336-2.9728 2.8673 2.7354a0.45546 0.45546 0 1 0 0.62787 -0.6592l-3.1789-3.0327 5.2598 1.8455a0.45546 0.45546 0 1 0 0.30112 -0.8595l-4.7593-1.6699 4.5742-0.028a0.45547 0.45547 0 0 0 0 -0.9109l-5.8896 0.036 6.2809-2.4134a0.45546 0.45546 0 1 0 -0.32675 -0.85l-4.8934 1.8806 3.1212-2.9197a0.45546 0.45546 0 1 0 -0.62217 -0.66484l-2.7164 2.5416 1.9755-3.9521a0.45554 0.45554 0 0 0 -0.8149 -0.40745l-2.6423 5.2846 0.22991-7.187a0.45546 0.45546 0 0 0 -0.448 -0.48zm-58.286-83.54c-0.49068 36.103 12.381 49.746 23.876 62.575-24.174 18.422-27.09 54.585-27.217 65.567 27.397 0.1715 50.194-13.167 61.203-25.427 17.1 25.14 48.206 29.516 59.353 26.976 7.6124-30.926-21.015-62.033-29.485-67.116 21.446-17.889 33.372-46.997 31.128-61.735-17.992-1.4792-41.365 5.9788-58.652 27.448-11.847-14.81-30.385-26.33-60.208-28.29zm113.46 3.2406c0.38942 0.0158 0.77108 0.0348 1.1521 0.0617l-56.833 59.46-52.841-59.08c26.168 1.902 44.653 17.307 55.086 30.348 14.846-18.44 37.528-31.2 53.438-30.79zm1.5075 0.0807c0 0.00016 0.0158 0 0.0158 0 0.00047 0 0.00047 0 0 0.0158l-0.0158-0.0158zm0.1345 1.1398c0.99466 13.656-14.151 43.482-32.631 58.897 7.4704 4.4828 37.879 34.957 31.541 62.266l-55.461-61.98 56.551-59.16zm-110.67 0.38847 52.544 58.744-56.541 59.148c0.50255-10.744 8.0379-43.502 28.878-59.383-10.056-11.19-24.917-27.27-24.878-58.47zm53.315 59.607 55.236 61.753c-10.755 1.5284-40.157-7.7626-54.869-29.391-9.651 10.747-32.896 26.573-56.898 26.777l56.531-59.139zm56.191 61.482c-0.0158 0.035-0.0158 0.07-0.0237 0.1028-0.0364 0.016-0.0791 0.016-0.11551 0.021l0.13924-0.125z" fill-rule="evenodd" fill="#000200"/>
	</g>
</svg>
